<?xml version="1.0" encoding="utf-8"?>
<!-- Generator: Adobe Illustrator 24.3.0, SVG Export Plug-In . SVG Version: 6.00 Build 0)  -->
<svg version="1.1" id="レイヤー_1" xmlns="http://www.w3.org/2000/svg" xmlns:xlink="http://www.w3.org/1999/xlink" x="0px"
	 y="0px" viewBox="0 0 92.6 54" style="enable-background:new 0 0 92.6 54;" xml:space="preserve">
<style type="text/css">
	.st0{fill:#202121;}
	.st1{fill:#222222;}
</style>
<g>
	<g>
		<path class="st0" d="M13.5,14.6h-2.9L9,8.4C8.8,7.7,8.6,6.5,8.5,5.8l0,0C8.4,6.5,8.2,7.6,8,8.4l-1.6,6.1H3.5L0,1.1h3.1l1.5,6.4
			c0.2,0.9,0.4,2,0.5,3.3h0.1c0.2-1.5,0.4-2.6,0.6-3.3l1.5-5.3h2.4l1.5,5.3c0.2,0.7,0.4,1.7,0.6,3.3h0.1c0.2-1.3,0.4-2.5,0.6-3.3
			L14,1.1h3L13.5,14.6z"/>
		<path class="st0" d="M28.3,1.1v2.5h-6.6v2.8h5.8v2.4h-5.8v3h6.9v2.5h-9.9V1.1H28.3z"/>
		<path class="st0" d="M36.2,1.1c1.1,0,2.2,0.1,2.9,0.4c1.4,0.5,2.3,1.6,2.3,2.9c0,1.6-1.1,2.7-2.9,3v0.1c1.2,0.1,2,0.4,2.7,1
			C41.8,9,42,9.6,42,10.7c0,2.3-2,3.7-5.3,3.7h-5.6V1.1H36.2z M34.1,6.3h1.8c1.6,0,2.4-0.5,2.4-1.5s-0.8-1.5-2.4-1.5H34v3H34.1z
			 M34.1,12h2.1c0.7,0,1.2-0.1,1.6-0.3c0.6-0.3,0.9-0.8,0.9-1.4c0-1.1-0.8-1.7-2.7-1.7h-1.9C34.1,8.6,34.1,12,34.1,12z"/>
		<path class="st0" d="M58.9,11.8c-0.6,0.4-0.7,0.4-1.7,1c0.7,0.3,1.4,0.5,2.3,0.7l-1.4,2.2c-2.3-0.7-3.9-1.6-5.1-3l0.1,2
			c-2.2,0.4-4.3,0.8-6.1,1l-0.5-2.2c0.8,0,1-0.1,1.4-0.1v-2.6h-0.8c-0.3,1.9-0.8,3.5-1.5,4.8l-2.2-2c0.9-2.2,1.3-4,1.3-7.1v-6h13.6
			v4.6h-2.6V6h2.5v1.8h-2.5v1h3.4v1.9h-1.5L58.9,11.8z M47.5,7.8c0,0.6,0,0.6,0,1h1.4v-1H47.5z M47.5,2.3v1h8.2v-1H47.5z M47.5,5.1
			V6h1.3V5.1H47.5z M50.7,10.7V13c0.8-0.1,1.2-0.2,1.9-0.3l0.4-0.1c-0.4-0.5-0.9-1.3-1.1-1.9H50.7z M51.4,5.1V6h1.8V5.1H51.4z
			 M51.4,7.8v1h1.8v-1H51.4z M54.5,10.7c0.2,0.3,0.4,0.6,0.7,0.9c0.5-0.3,0.9-0.6,1.2-0.9H54.5z"/>
		<path class="st0" d="M59.8,13.1c1.1-1.2,2.1-3,2.6-4.9l2.5,0.9c-0.9,2.5-1.8,4.3-3,5.7L59.8,13.1z M69.3,13.5c0,1.4-0.5,2-1.9,2
			c-0.6,0-1.4,0-2.4-0.1l-0.5-2.5c0.6,0.1,1.2,0.1,1.7,0.1c0.3,0,0.4-0.1,0.4-0.4V7.3h-6.5V4.9h15.4v2.5h-6.3v6.1H69.3z M73.7,0.6
			v2.5H62V0.6H73.7z M73.3,14.7c-0.9-2.1-2-4-2.9-5.4L72.7,8c1.1,1.6,2.2,3.5,3,5.1L73.3,14.7z"/>
		<path class="st0" d="M88.1,6.7h-7.9v-1c-0.9,0.6-1.9,1.1-2.6,1.3l-1.5-2.2C78.7,3.9,81,2.1,82.5,0h3.1c1.4,1.8,3.7,3.4,6.5,4.5
			l-1.4,2.3c-0.9-0.4-1.5-0.7-2.7-1.4L88.1,6.7L88.1,6.7z M83.4,10.1c-0.4,0.8-1,1.8-1.5,2.6h1.3c0.9,0,1.2-0.1,2-0.1l1.4-0.1
			c-0.5-0.6-0.7-0.8-1.1-1.2l2.5-1c1.2,1.1,2.7,2.9,3.6,4.3L89,15.7c-0.4-0.6-0.4-0.7-0.8-1.3c-3,0.5-6.2,0.8-10.3,1l-0.8-2.5
			c0.6,0,0.9,0,1.2,0h0.6c0.5-0.9,0.8-1.6,1.4-2.7h-3.4V7.7h14.7v2.4H83.4z M86.5,4.4c-1-0.8-1.8-1.5-2.3-2.1
			C83.6,3,83,3.6,82.1,4.4H86.5z"/>
	</g>
</g>
<g>
	<path class="st1" d="M9.9,30.1H1.6v-4.2h29.2v4.2h-9.1v3.2h8.1v20.4h-4.7v-1.4H7.3v1.4H2.6V33.3h7.3V30.1z M14.2,37.4
		C14,42,13.1,44.1,10,46.7l-2.7-3.3V48h17.9v-3h-4.9c-1.9,0-2.9-1-2.9-2.9v-4.7H14.2z M7.3,37.4v5.7L7.4,43c0.1-0.1,0.2-0.2,0.2-0.2
		c1.6-1.4,2.1-2.6,2.2-5.4H7.3z M17.4,33.3v-3.2h-3.1v3.2H17.4z M21.4,40.5c0,0.3,0.1,0.4,0.5,0.5h3.3v-3.5h-3.7V40.5z"/>
	<path class="st1" d="M59.2,53.4h-5.3v-2h-14v2h-5.2V25.8h24.6V53.4z M39.9,35.8h14v-5h-14V35.8z M39.9,46.2h14v-5.4h-14V46.2z"/>
	<path class="st1" d="M83.5,34.7c2.8,4.5,5.8,7.9,9.1,10.1l-3.1,4.4c-2.1-1.8-3.1-2.6-4.5-4.2v3.6h-4.8V54h-5.3v-5.4h-4.5v-3.7
		c-1.4,1.7-2.9,3.1-4.8,4.5L62.7,45c3.8-2.7,7-6.2,9.2-10.3h-8.2V30h11.1v-5.2h5.3V30h11.3v4.7H83.5z M75.1,44.1v-6.7
		c-1.2,2.6-2.5,4.8-4.1,6.7H75.1z M80,44.1h4.3c-1.7-2.1-3-4.3-4.3-6.9V44.1z"/>
</g>
</svg>
