<?xml version="1.0" encoding="utf-8"?>
<!-- Generator: Adobe Illustrator 25.0.0, SVG Export Plug-In . SVG Version: 6.00 Build 0)  -->
<svg version="1.1" id="レイヤー_1" xmlns="http://www.w3.org/2000/svg" xmlns:xlink="http://www.w3.org/1999/xlink" x="0px"
	 y="0px" viewBox="0 0 278.8 54" style="enable-background:new 0 0 278.8 54;" xml:space="preserve">
<style type="text/css">
	.st0{fill:#222222;}
</style>
<g>
	<path class="st0" d="M25.6,51.9h-5.5l-3-11.6c-0.4-1.4-0.8-3.7-0.9-5h-0.1c-0.2,1.4-0.5,3.4-0.9,5l-3,11.6H6.6L0,26.4h5.8l2.9,12.1
		c0.4,1.7,0.7,3.7,1.1,6.2h0.1c0.3-2.8,0.7-5,1.1-6.2l2.9-10.1h4.6l2.9,10.1c0.4,1.4,0.7,3.2,1.1,6.2h0.1c0.3-2.5,0.7-4.7,1.1-6.2
		l2.9-12.1h5.8L25.6,51.9z"/>
	<path class="st0" d="M53.6,26.4v4.7H41v5.3H52V41H41v5.7h13.1v4.8H35.3V26.4H53.6z"/>
	<path class="st0" d="M68.5,26.4c2.2,0,4.2,0.3,5.6,0.7c2.7,1,4.4,3.1,4.4,5.5c0,3.1-2,5.2-5.5,5.7v0.1c2.2,0.2,3.8,0.8,5,2
		c1.1,1,1.5,2.1,1.5,4.1c0,4.4-3.8,7-10,7H58.9V26.4H68.5z M64.6,36.2H68c3,0,4.6-1,4.6-2.9c0-1.9-1.5-2.9-4.5-2.9h-3.6V36.2z
		 M64.6,46.9h4.1c1.3,0,2.3-0.2,3-0.5c1.1-0.6,1.6-1.5,1.6-2.6c0-2.2-1.6-3.1-5.1-3.1h-3.6V46.9z"/>
	<path class="st0" d="M111.6,46.6c-1.2,0.7-1.4,0.8-3.3,1.8c1.3,0.6,2.6,0.9,4.4,1.3l-2.6,4.2c-4.4-1.3-7.5-3.1-9.6-5.7l0.2,3.9
		c-4.2,0.8-8.2,1.4-11.5,1.8l-0.9-4.2c1.4-0.1,1.9-0.1,2.7-0.2v-5h-1.6c-0.6,3.7-1.5,6.6-2.9,9.1l-4.2-3.7c1.8-4.2,2.4-7.6,2.4-13.4
		V25h25.8v8.8h-4.9v1.8h4.7V39h-4.7v1.8h6.4v3.7h-2.9L111.6,46.6z M90,39c-0.1,1.1-0.1,1.1-0.1,1.8h2.6V39H90z M90,28.5v1.9h15.5
		v-1.9H90z M90,33.8v1.8h2.5v-1.8H90z M96.1,44.5v4.4c1.5-0.2,2.4-0.3,3.5-0.6l0.8-0.1c-0.8-1-1.6-2.4-2.2-3.7H96.1z M97.5,33.8v1.8
		h3.3v-1.8H97.5z M97.5,39v1.8h3.3V39H97.5z M103.3,44.5c0.3,0.6,0.8,1.2,1.4,1.7c0.9-0.6,1.7-1.2,2.4-1.7H103.3z"/>
	<path class="st0" d="M113.2,49c2.1-2.3,3.9-5.7,5-9.2l4.7,1.8c-1.6,4.7-3.4,8.2-5.7,10.8L113.2,49z M131.2,49.8
		c0,2.7-1,3.8-3.7,3.8c-1.1,0-2.7-0.1-4.5-0.2l-0.9-4.7c1.1,0.2,2.3,0.3,3.2,0.3c0.7,0,0.8-0.2,0.8-0.8v-9.9h-12.2v-4.7h29.2v4.7
		h-11.9V49.8z M139.6,25.4v4.7h-22.2v-4.7H139.6z M138.8,52.1c-1.7-3.9-3.7-7.7-5.5-10.2l4.4-2.5c2.2,3,4.2,6.5,5.6,9.7L138.8,52.1z
		"/>
	<path class="st0" d="M166.9,36.9h-14.9V35c-1.6,1.1-3.5,2-4.9,2.5l-2.8-4.2c4.9-1.7,9.4-5.1,12.1-9.1h5.8c2.6,3.4,7,6.4,12.4,8.6
		l-2.6,4.4c-1.8-0.7-2.8-1.2-5.1-2.6V36.9z M158,43.3c-0.8,1.6-1.9,3.3-2.9,4.9l2.5-0.1c1.6-0.1,2.3-0.1,3.8-0.2l2.7-0.2
		c-0.9-1.1-1.3-1.5-2-2.2l4.7-1.9c2.2,2.1,5.2,5.6,6.8,8.1l-5,2.4c-0.7-1.1-0.8-1.3-1.6-2.5c-5.7,0.9-11.7,1.4-19.6,1.9l-1.4-4.8
		c1.2,0,1.7-0.1,2.3-0.1l1.1,0c0.9-1.7,1.6-3,2.6-5.1h-6.5v-4.5h27.8v4.5H158z M163.8,32.5c-2-1.5-3.4-2.8-4.3-4.1
		c-1,1.4-2.2,2.6-4,4.1H163.8z"/>
	<path class="st0" d="M208.2,44.1c0.1,0.1,0.1,0.1,0.2,0.1c2.5,1.9,5.5,3.3,8.6,4.2l-3.1,4.5c-3.6-1.5-6.8-3.7-9.7-6.8v7.5H199v-7.3
		c-2.7,2.9-6.1,5.3-9.5,6.9l-2.9-4.4c3.2-0.9,6.5-2.7,8.8-4.7h-6.2V31.5h9.7v-1.3h-11.6v-3.8H199v-2.2h5.1v2.2H216v3.8h-11.8v1.3
		h9.9v12.6H208.2z M194.2,34.8v1.4h5v-1.4H194.2z M194.2,39.4v1.5h5v-1.5H194.2z M204,36.2h5.1v-1.4H204V36.2z M204,40.8h5.1v-1.5
		H204V40.8z"/>
	<path class="st0" d="M245.1,53.1h-5.4v-2h-14.1v2h-5.3V25.2h24.8V53.1z M225.5,35.3h14.1v-5h-14.1V35.3z M225.5,45.8h14.1v-5.5
		h-14.1V45.8z"/>
	<path class="st0" d="M269.5,34.2c2.9,4.6,5.9,7.9,9.2,10.2l-3.1,4.5c-2.2-1.8-3.2-2.7-4.6-4.2v3.7h-4.8v5.4h-5.4v-5.4h-4.5v-3.8
		c-1.5,1.7-3,3.1-4.9,4.5l-2.9-4.4c3.9-2.7,7-6.2,9.3-10.4h-8.2v-4.7h11.2v-5.2h5.4v5.2h11.4v4.7H269.5z M261.1,43.7V37
		c-1.2,2.6-2.6,4.8-4.1,6.8H261.1z M266,43.7h4.3c-1.7-2.1-3.1-4.3-4.3-7V43.7z"/>
</g>
</svg>
