<?xml version="1.0" encoding="utf-8"?>
<!-- Generator: Adobe Illustrator 24.3.0, SVG Export Plug-In . SVG Version: 6.00 Build 0)  -->
<svg version="1.1" id="レイヤー_1" xmlns="http://www.w3.org/2000/svg" xmlns:xlink="http://www.w3.org/1999/xlink" x="0px"
	 y="0px" viewBox="0 0 92.6 54" style="enable-background:new 0 0 92.6 54;" xml:space="preserve">
<style type="text/css">
	.st0{fill:#202121;}
</style>
<g>
	<g>
		<path class="st0" d="M34.7,23h-4.9l-2.7-10.5c-0.3-1.2-0.7-3.2-0.8-4.4l0,0c-0.2,1.2-0.5,3-0.8,4.4l-2.7,10.3h-4.9L11.9,0.2h5.2
			L19.7,11c0.3,1.5,0.7,3.4,0.8,5.6h0.2c0.3-2.5,0.7-4.4,1-5.6l2.5-8.9h4l2.5,8.9c0.3,1.2,0.7,2.9,1,5.6H32c0.3-2.2,0.7-4.2,1-5.6
			l2.5-10.8h5.1L34.7,23z"/>
		<path class="st0" d="M59.6,0.2v4.2H48.5v4.7h9.8v4h-9.8v5.1h11.6v4.2H43.5V0.2H59.6z"/>
		<path class="st0" d="M73,0.2c1.9,0,3.7,0.2,4.9,0.7c2.4,0.8,3.9,2.7,3.9,4.9c0,2.7-1.9,4.6-4.9,5.1V11c2,0.2,3.4,0.7,4.6,1.7
			c1,0.8,1.3,1.9,1.3,3.7c0,3.9-3.4,6.2-8.9,6.2h-9.4V0.2H73z M69.4,9h3c2.7,0,4-0.8,4-2.5s-1.3-2.5-4-2.5h-3.2V9H69.4z M69.4,18.6
			H73c1.2,0,2-0.2,2.7-0.5c1-0.5,1.5-1.3,1.5-2.4c0-1.9-1.3-2.9-4.6-2.9h-3.2C69.4,12.9,69.4,18.6,69.4,18.6z"/>
		<path class="st0" d="M31.4,47.2c-1,0.7-1.2,0.7-2.9,1.7c1.2,0.5,2.4,0.8,3.9,1.2L30,53.8c-3.9-1.2-6.6-2.7-8.6-5.1l0.2,3.4
			c-3.7,0.7-7.2,1.3-10.3,1.7l-0.8-3.7c1.3,0,1.7-0.2,2.4-0.2v-4.4h-1.3c-0.5,3.2-1.3,5.9-2.5,8.1l-3.7-3.4c1.5-3.7,2.2-6.7,2.2-12
			V28.2h22.9v7.8H26v1.5h4.2v3H26v1.7h5.7v3.2h-2.5L31.4,47.2z M12.2,40.5c0,1,0,1,0,1.7h2.4v-1.7H12.2z M12.2,31.2v1.7H26v-1.7
			H12.2z M12.2,35.9v1.5h2.2v-1.5H12.2z M17.6,45.4v3.9c1.3-0.2,2-0.3,3.2-0.5l0.7-0.2c-0.7-0.8-1.5-2.2-1.9-3.2H17.6z M18.7,35.9
			v1.5h3v-1.5H18.7z M18.7,40.5v1.7h3v-1.7H18.7z M24,45.4c0.3,0.5,0.7,1,1.2,1.5c0.8-0.5,1.5-1,2-1.5H24z"/>
		<path class="st0" d="M32.9,49.4c1.9-2,3.5-5.1,4.4-8.3l4.2,1.5c-1.5,4.2-3,7.2-5.1,9.6L32.9,49.4z M48.9,50.1
			c0,2.4-0.8,3.4-3.2,3.4c-1,0-2.4,0-4-0.2l-0.8-4.2c1,0.2,2,0.2,2.9,0.2c0.5,0,0.7-0.2,0.7-0.7v-8.9h-11v-4h26v4.2H48.7v10.3H48.9z
			 M56.3,28.3v4.2H36.6v-4.2H56.3z M55.7,52.1c-1.5-3.5-3.4-6.7-4.9-9.1l3.9-2.2c1.9,2.7,3.7,5.9,5.1,8.6L55.7,52.1z"/>
		<path class="st0" d="M80.6,38.6H67.3v-1.7c-1.5,1-3.2,1.9-4.4,2.2l-2.5-3.7c4.4-1.5,8.3-4.6,10.8-8.1h5.2c2.4,3,6.2,5.7,11,7.6
			L85,38.8c-1.5-0.7-2.5-1.2-4.6-2.4v2.2H80.6z M72.7,44.4c-0.7,1.3-1.7,3-2.5,4.4h2.2c1.5,0,2-0.2,3.4-0.2l2.4-0.2
			c-0.8-1-1.2-1.3-1.9-2l4.2-1.7c2,1.9,4.6,4.9,6.1,7.2l-4.4,1.9c-0.7-1-0.7-1.2-1.3-2.2c-5.1,0.8-10.5,1.3-17.4,1.7l-1.3-4.2
			c1,0,1.5,0,2,0h1c0.8-1.5,1.3-2.7,2.4-4.6h-5.7v-4.2h24.8v4H72.7z M77.9,34.7c-1.7-1.3-3-2.5-3.9-3.5c-1,1.2-2,2.2-3.5,3.5H77.9z"
			/>
	</g>
</g>
</svg>
