<?xml version="1.0" encoding="utf-8"?>
<!-- Generator: Adobe Illustrator 25.0.0, SVG Export Plug-In . SVG Version: 6.00 Build 0)  -->
<svg version="1.1" id="レイヤー_1" xmlns="http://www.w3.org/2000/svg" xmlns:xlink="http://www.w3.org/1999/xlink" x="0px"
	 y="0px" viewBox="0 0 92.6 54" style="enable-background:new 0 0 92.6 54;" xml:space="preserve">
<style type="text/css">
	.st0{fill:#202121;}
</style>
<g>
	<g>
		<path class="st0" d="M13.5,14.6h-2.9L9,8.4C8.8,7.7,8.6,6.5,8.5,5.8H8.5C8.4,6.5,8.2,7.6,8,8.4l-1.6,6.1H3.5L0,1.1h3.1l1.5,6.4
			C4.8,8.4,5,9.5,5.1,10.8h0.1c0.2-1.5,0.4-2.6,0.6-3.3l1.5-5.3h2.4l1.5,5.3c0.2,0.7,0.4,1.7,0.6,3.3h0.1c0.2-1.3,0.4-2.5,0.6-3.3
			L14,1.1H17L13.5,14.6z"/>
		<path class="st0" d="M28.3,1.1v2.5h-6.6v2.8h5.8v2.4h-5.8v3h6.9v2.5h-9.9V1.1H28.3z"/>
		<path class="st0" d="M36.2,1.1c1.1,0,2.2,0.1,2.9,0.4c1.4,0.5,2.3,1.6,2.3,2.9c0,1.6-1.1,2.7-2.9,3v0.1c1.2,0.1,2,0.4,2.7,1
			C41.8,9,42,9.6,42,10.7c0,2.3-2,3.7-5.3,3.7h-5.6V1.1H36.2z M34.1,6.3h1.8c1.6,0,2.4-0.5,2.4-1.5c0-1-0.8-1.5-2.4-1.5h-1.9V6.3z
			 M34.1,12h2.1c0.7,0,1.2-0.1,1.6-0.3c0.6-0.3,0.9-0.8,0.9-1.4c0-1.1-0.8-1.7-2.7-1.7h-1.9V12z"/>
		<path class="st0" d="M58.9,11.8c-0.6,0.4-0.7,0.4-1.7,1c0.7,0.3,1.4,0.5,2.3,0.7l-1.4,2.2c-2.3-0.7-3.9-1.6-5.1-3l0.1,2
			c-2.2,0.4-4.3,0.8-6.1,1l-0.5-2.2c0.8,0,1-0.1,1.4-0.1v-2.6h-0.8c-0.3,1.9-0.8,3.5-1.5,4.8l-2.2-2c0.9-2.2,1.3-4,1.3-7.1v-6h13.6
			v4.6h-2.6V6h2.5v1.8h-2.5v1h3.4v1.9h-1.5L58.9,11.8z M47.5,7.8c0,0.6,0,0.6,0,1h1.4v-1H47.5z M47.5,2.3v1h8.2v-1H47.5z M47.5,5.1
			V6h1.3V5.1H47.5z M50.7,10.7V13c0.8-0.1,1.2-0.2,1.9-0.3l0.4-0.1c-0.4-0.5-0.9-1.3-1.1-1.9H50.7z M51.4,5.1V6h1.8V5.1H51.4z
			 M51.4,7.8v1h1.8v-1H51.4z M54.5,10.7c0.2,0.3,0.4,0.6,0.7,0.9c0.5-0.3,0.9-0.6,1.2-0.9H54.5z"/>
		<path class="st0" d="M59.8,13.1c1.1-1.2,2.1-3,2.6-4.9l2.5,0.9c-0.9,2.5-1.8,4.3-3,5.7L59.8,13.1z M69.3,13.5c0,1.4-0.5,2-1.9,2
			c-0.6,0-1.4,0-2.4-0.1l-0.5-2.5c0.6,0.1,1.2,0.1,1.7,0.1c0.3,0,0.4-0.1,0.4-0.4V7.3h-6.5V4.9h15.4v2.5h-6.3V13.5z M73.7,0.6v2.5
			H62V0.6H73.7z M73.3,14.7c-0.9-2.1-2-4-2.9-5.4L72.7,8c1.1,1.6,2.2,3.5,3,5.1L73.3,14.7z"/>
		<path class="st0" d="M88.1,6.7h-7.9v-1c-0.9,0.6-1.9,1.1-2.6,1.3l-1.5-2.2c2.6-0.9,4.9-2.7,6.4-4.8h3.1c1.4,1.8,3.7,3.4,6.5,4.5
			l-1.4,2.3c-0.9-0.4-1.5-0.7-2.7-1.4V6.7z M83.4,10.1c-0.4,0.8-1,1.8-1.5,2.6l1.3,0c0.9,0,1.2-0.1,2-0.1l1.4-0.1
			c-0.5-0.6-0.7-0.8-1.1-1.2l2.5-1c1.2,1.1,2.7,2.9,3.6,4.3L89,15.7c-0.4-0.6-0.4-0.7-0.8-1.3c-3,0.5-6.2,0.8-10.3,1l-0.8-2.5
			c0.6,0,0.9,0,1.2,0l0.6,0c0.5-0.9,0.8-1.6,1.4-2.7h-3.4V7.7h14.7v2.4H83.4z M86.5,4.4c-1-0.8-1.8-1.5-2.3-2.1
			C83.6,3,83,3.6,82.1,4.4H86.5z"/>
	</g>
	<path class="st0" d="M22,44.4c0.1,0.1,0.1,0.1,0.2,0.1c2.5,1.9,5.5,3.3,8.6,4.2l-3.1,4.5c-3.6-1.5-6.8-3.7-9.7-6.8V54h-5.1v-7.3
		c-2.7,2.9-6.1,5.3-9.5,6.9l-2.9-4.4c3.2-0.9,6.5-2.7,8.8-4.7H3.1V31.8h9.7v-1.3H1.2v-3.8h11.6v-2.2h5.1v2.2h11.8v3.8H17.9v1.3h9.9
		v12.6H22z M8,35.1v1.4h5v-1.4H8z M8,39.7v1.5h5v-1.5H8z M17.8,36.5H23v-1.4h-5.1V36.5z M17.8,41.1H23v-1.5h-5.1V41.1z"/>
	<path class="st0" d="M58.9,53.4h-5.4v-2H39.3v2h-5.3V25.5h24.8V53.4z M39.3,35.6h14.1v-5H39.3V35.6z M39.3,46.1h14.1v-5.5H39.3
		V46.1z"/>
	<path class="st0" d="M83.4,34.5c2.9,4.6,5.9,7.9,9.2,10.2l-3.1,4.5c-2.2-1.8-3.2-2.7-4.6-4.2v3.7h-4.8V54h-5.4v-5.4h-4.5v-3.8
		c-1.5,1.7-3,3.1-4.9,4.5l-2.9-4.4c3.9-2.7,7-6.2,9.3-10.4h-8.2v-4.7h11.2v-5.2h5.4v5.2h11.4v4.7H83.4z M74.9,44v-6.8
		c-1.2,2.6-2.6,4.8-4.1,6.8H74.9z M79.8,44h4.3c-1.7-2.1-3.1-4.3-4.3-7V44z"/>
</g>
</svg>
