<?xml version="1.0" encoding="utf-8"?>
<!-- Generator: Adobe Illustrator 24.3.0, SVG Export Plug-In . SVG Version: 6.00 Build 0)  -->
<svg version="1.1" id="_x32_" xmlns="http://www.w3.org/2000/svg" xmlns:xlink="http://www.w3.org/1999/xlink" x="0px" y="0px"
	 viewBox="0 0 24 24" style="enable-background:new 0 0 24 24;" xml:space="preserve">
<style type="text/css">
	.st0{fill:#202121;}
</style>
<path class="st0" d="M23.4,10.4L20.8,10c-0.2,0-0.3-0.1-0.4-0.3l-0.8-2c-0.1-0.2,0-0.3,0.1-0.4l1.6-2.1c0.2-0.3,0.2-0.7,0-1
	l-1.2-1.2c-0.3-0.3-0.7-0.3-1,0l-2.1,1.6c-0.1,0.1-0.3,0.1-0.4,0.1l-2-0.8c-0.2,0-0.3-0.2-0.3-0.4l-0.4-2.6c0-0.4-0.4-0.7-0.7-0.7
	h-1.8c-0.4,0-0.7,0.3-0.7,0.7L10,3.3c0,0.2-0.1,0.3-0.3,0.4l-2,0.8c-0.2,0.1-0.3,0-0.4-0.1L5.1,2.8c-0.3-0.2-0.7-0.2-1,0L2.9,4.1
	c-0.3,0.3-0.3,0.7,0,1l1.6,2.1c0.1,0.1,0.1,0.3,0.1,0.4l-0.8,2c0,0.2-0.2,0.3-0.4,0.3l-2.6,0.4c-0.4,0-0.7,0.4-0.7,0.7v1.8
	c0,0.4,0.3,0.7,0.7,0.7L3.3,14c0.2,0,0.3,0.1,0.4,0.3l0.8,2c0.1,0.2,0,0.3-0.1,0.4l-1.6,2.1c-0.2,0.3-0.2,0.7,0,1l1.2,1.2
	c0.3,0.3,0.7,0.3,1,0l2.1-1.6c0.1-0.1,0.3-0.1,0.4-0.1l2,0.8c0.2,0.1,0.2,0.2,0.3,0.4l0.4,2.6c0,0.4,0.4,0.7,0.7,0.7h1.8
	c0.4,0,0.7-0.3,0.7-0.7l0.4-2.6c0-0.2,0.1-0.3,0.3-0.4l2-0.8c0.2-0.1,0.3,0,0.4,0.1l2.1,1.6c0.3,0.2,0.7,0.2,1,0l1.2-1.2
	c0.3-0.3,0.3-0.7,0-1l-1.6-2.1c-0.1-0.1-0.1-0.3-0.1-0.4l0.8-2c0.1-0.2,0.2-0.2,0.4-0.3l2.6-0.4c0.4,0,0.7-0.4,0.7-0.7v-1.8
	C24.1,10.8,23.8,10.4,23.4,10.4z M14.9,14.9c-0.8,0.8-1.8,1.2-2.9,1.2s-2.1-0.4-2.9-1.2S7.9,13.1,7.9,12s0.4-2.1,1.2-2.9
	C9.9,8.3,11,7.9,12,7.9s2.1,0.4,2.9,1.2c0.8,0.8,1.2,1.8,1.2,2.9S15.7,14.1,14.9,14.9z"/>
</svg>
