<?xml version="1.0" encoding="utf-8"?>
<!-- Generator: Adobe Illustrator 25.0.0, SVG Export Plug-In . SVG Version: 6.00 Build 0)  -->
<svg version="1.1" id="レイヤー_1" xmlns="http://www.w3.org/2000/svg" xmlns:xlink="http://www.w3.org/1999/xlink" x="0px"
	 y="0px" viewBox="0 0 48.3 48.4" style="enable-background:new 0 0 48.3 48.4;" xml:space="preserve">
<style type="text/css">
	.st0{fill:#222222;}
	.st1{fill:#009944;}
</style>
<g>
	<path class="st0" d="M48.3,43.8L33.1,28.6c2.1-3,3.3-6.5,3.3-10.4C36.4,8.2,28.2,0,18.2,0C8.1,0-0.1,8.2-0.1,18.2
		c0,10.1,8.2,18.2,18.2,18.2c3.9,0,7.5-1.2,10.4-3.3l15.2,15.2L48.3,43.8z"/>
	<path class="st1" d="M18.2,30c-6.5,0-11.8-5.3-11.8-11.8c0-6.5,5.3-11.8,11.8-11.8c6.5,0,11.8,5.3,11.8,11.8
		C30,24.7,24.7,30,18.2,30z"/>
</g>
</svg>
