<?xml version="1.0" encoding="utf-8"?>
<!-- Generator: Adobe Illustrator 23.0.3, SVG Export Plug-In . SVG Version: 6.00 Build 0)  -->
<svg version="1.1" id="レイヤー_1" xmlns="http://www.w3.org/2000/svg" xmlns:xlink="http://www.w3.org/1999/xlink" x="0px"
	 y="0px" viewBox="0 0 32 32" style="enable-background:new 0 0 32 32;" xml:space="preserve" preserveAspectRatio="none">
<style type="text/css">
	.st0{fill:#FFFFFF;}
</style>
<g>
	<path class="st0" d="M13.4,21.8l-5.3-5.3C8,16.4,7.9,16.2,7.9,16s0.1-0.4,0.2-0.6l1.2-1.1C9.4,14.1,9.6,14,9.8,14
		c0.2,0,0.4,0.1,0.6,0.3l3.5,3.5l7.6-7.6c0.2-0.2,0.4-0.3,0.6-0.3s0.4,0.1,0.6,0.3l1.2,1.1c0.1,0.1,0.2,0.3,0.2,0.6
		c0,0.2-0.1,0.4-0.2,0.6l-9.3,9.3C14.4,22,14.2,22,14,22C13.7,22,13.6,22,13.4,21.8z"/>
</g>
</svg>
