<?xml version="1.0" encoding="utf-8"?>
<!-- Generator: Adobe Illustrator 25.0.0, SVG Export Plug-In . SVG Version: 6.00 Build 0)  -->
<svg version="1.1" id="レイヤー_1" xmlns="http://www.w3.org/2000/svg" xmlns:xlink="http://www.w3.org/1999/xlink" x="0px"
	 y="0px" viewBox="0 0 23 23" style="enable-background:new 0 0 23 23;" xml:space="preserve">
<style type="text/css">
	.st0{fill:#FFFFFF;}
</style>
<path class="st0" d="M23,20.8l-7.2-7.2c1-1.4,1.6-3.1,1.6-4.9c0-4.8-3.9-8.7-8.7-8.7S0,3.9,0,8.7s3.9,8.7,8.7,8.7
	c1.8,0,3.5-0.6,4.9-1.6l7.2,7.2L23,20.8z M8.7,14.3c-3.1,0-5.6-2.5-5.6-5.6c0-3.1,2.5-5.6,5.6-5.6s5.6,2.5,5.6,5.6
	C14.3,11.7,11.7,14.3,8.7,14.3z"/>
</svg>
