<?xml version="1.0" encoding="utf-8"?>
<!-- Generator: Adobe Illustrator 24.3.0, SVG Export Plug-In . SVG Version: 6.00 Build 0)  -->
<svg version="1.1" id="レイヤー_1" xmlns="http://www.w3.org/2000/svg" xmlns:xlink="http://www.w3.org/1999/xlink" x="0px"
	 y="0px" viewBox="0 0 60.3 15.4" enable-background="new 0 0 60.3 15.4" xml:space="preserve">
<g>
	<polygon fill="#0062B0" points="37,11.9 37,8.9 42.4,8.9 42.4,6.2 37,6.2 37,3.3 42.7,3.3 42.7,0.7 34.1,0.7 34.1,14.6 42.8,14.6 
		42.8,11.9 37,11.9 	"/>
	<path fill="#0062B0" d="M10.7,14.8h2.8L6.8,0L0,14.8h2.8L4,12.3h5.6L10.7,14.8L10.7,14.8z M5.2,9.6l1.6-3.4l1.6,3.4H5.2L5.2,9.6z"
		/>
	<path fill="#0062B0" d="M22.7,12.1c-0.7,0.4-1.5,0.6-2.4,0.6c-2.7,0-4.9-2.2-4.9-4.9c0-2.7,2.2-4.9,4.9-4.9c0.9,0,1.8,0.3,2.6,0.7
		l1.4-2.3c-1.2-0.7-2.5-1.1-4-1.1c-4.2,0-7.5,3.4-7.5,7.5c0,4.2,3.4,7.5,7.5,7.5c1.4,0,2.6-0.3,3.7-1L22.7,12.1L22.7,12.1z"/>
	<path fill="#009844" d="M31.5,7.8c-0.5,0.5-1.2,0.8-2,0.8c-1.6,0-2.9-1.3-2.9-2.9c0-1.6,1.3-2.9,2.9-2.9c0.7,0,1.3,0.3,1.8,0.7
		l1.6-2c-0.9-0.8-2.1-1.2-3.5-1.2c-3,0-5.5,2.5-5.5,5.5c0,3,2.4,5.5,5.5,5.5c1.4,0,2.7-0.5,3.7-1.4L31.5,7.8L31.5,7.8z"/>
	<path fill="#009844" d="M29.1,15.1c1.9,0,3.5-0.4,3.5-1c0-0.5-1.6-1-3.5-1c-1.9,0-3.5,0.4-3.5,1C25.6,14.7,27.1,15.1,29.1,15.1
		L29.1,15.1z"/>
	<path fill="#0062B0" d="M55.9,6.1L55.9,6.1c-0.9,0-1.8-0.8-1.8-1.7c0-1.1,0.9-1.7,1.8-1.7c0.9,0,1.7,0.8,1.7,1.7h2.5
		c0-2.4-1.9-4.3-4.3-4.3c-1.7,0-3.1,0.9-3.8,2.3c-0.7-1.4-2.2-2.3-3.9-2.3c-2.4,0-4.3,1.9-4.3,4.3c0,2.4,1.9,4.3,4.3,4.3
		c0.9,0,1.8,0.8,1.8,1.7c0,1-0.7,1.7-1.7,1.7c-0.9,0-1.8-0.7-1.8-1.7h-2.6c0,2.4,2,4.4,4.4,4.4c1.7,0,3.1-0.9,3.9-2.3
		c0.7,1.4,2.2,2.3,3.9,2.3c2.4,0,4.4-2,4.4-4.4C60.3,8.1,58.5,6.3,55.9,6.1L55.9,6.1z M55.9,12.2c0,0-0.9,0.1-1.8-1.1
		c-0.8-1.1-1.4-3-3.4-4.2c-0.7-0.5-1.5-0.7-2.5-0.8v0c-0.9,0-1.8-0.8-1.8-1.7c0-1.1,0.9-1.7,1.8-1.7c0,0,0.7-0.1,1.4,0.8
		c0.8,1,3.6,4.4,4,4.7c0.6,0.4,1.4,0.6,2.2,0.6c0.9,0,1.8,0.8,1.8,1.7C57.6,11.5,56.9,12.2,55.9,12.2L55.9,12.2z"/>
</g>
</svg>
