<?xml version="1.0" encoding="utf-8"?>
<!-- Generator: Adobe Illustrator 24.3.0, SVG Export Plug-In . SVG Version: 6.00 Build 0)  -->
<svg version="1.1" id="_x32_" xmlns="http://www.w3.org/2000/svg" xmlns:xlink="http://www.w3.org/1999/xlink" x="0px" y="0px"
	 viewBox="0 0 60 60" style="enable-background:new 0 0 60 60;" xml:space="preserve">
<style type="text/css">
	.st0{fill:#202121;}
</style>
<path class="st0" d="M58.3,26l-6.5-1c-0.4,0-0.8-0.3-0.9-0.7l-2.1-5.1c-0.2-0.4-0.1-0.8,0.2-1.1l3.9-5.3c0.6-0.7,0.6-1.8-0.1-2.5
	l-3.1-3.1c-0.7-0.7-1.8-0.7-2.5-0.1l-5.3,3.9c-0.3,0.3-0.7,0.3-1.1,0.2l-5.1-2.1C35.3,9,35,8.6,35,8.2L34,1.7
	c-0.1-1-0.9-1.7-1.8-1.7h-4.4c-1,0-1.8,0.7-1.8,1.7l-1,6.5c0,0.4-0.3,0.8-0.7,0.9l-5.1,2.1c-0.4,0.2-0.8,0.1-1.1-0.2l-5.3-3.9
	c-0.7-0.6-1.8-0.6-2.5,0.1l-3.1,3.1c-0.7,0.7-0.7,1.8-0.1,2.5l3.9,5.3c0.3,0.3,0.3,0.7,0.2,1.1l-2.1,5.1C9,24.7,8.6,25,8.2,25
	L1.7,26c-1,0.1-1.7,0.9-1.7,1.8v4.4c0,1,0.7,1.8,1.7,1.8L8.2,35c0.4,0,0.8,0.3,0.9,0.7l2.1,5.1c0.2,0.4,0.1,0.8-0.2,1.1l-3.9,5.3
	c-0.6,0.7-0.6,1.8,0.1,2.5l3.1,3.1c0.7,0.7,1.8,0.7,2.5,0.1l5.3-3.9c0.3-0.3,0.7-0.3,1.1-0.2l5.1,2.1c0.4,0.2,0.6,0.5,0.7,0.9
	l0.9,6.5c0.1,1,0.9,1.7,1.8,1.7h4.4c1,0,1.8-0.7,1.8-1.7l0.9-6.5c0-0.4,0.3-0.8,0.7-0.9l5.1-2.1c0.4-0.2,0.8-0.1,1.1,0.2l5.3,3.9
	c0.7,0.6,1.8,0.6,2.5-0.1l3.1-3.1c0.7-0.7,0.7-1.8,0.1-2.5l-3.9-5.3c-0.3-0.3-0.3-0.7-0.2-1.1l2.1-5.1c0.2-0.4,0.5-0.6,0.9-0.7
	l6.5-0.9c1-0.1,1.7-0.9,1.7-1.8v-4.4C60,26.9,59.3,26.1,58.3,26z M37.2,37.2c-1.9,1.9-4.5,3-7.2,3c-2.7,0-5.3-1.1-7.2-3
	c-1.9-1.9-3-4.5-3-7.2c0-2.7,1.1-5.3,3-7.2c1.9-1.9,4.5-3,7.2-3c2.7,0,5.3,1.1,7.2,3c1.9,1.9,3,4.5,3,7.2
	C40.2,32.7,39.1,35.3,37.2,37.2z"/>
</svg>
