<svg xmlns="http://www.w3.org/2000/svg" xmlns:xlink="http://www.w3.org/1999/xlink" width="1474.013" height="1096.063" viewBox="0 0 1105.51 822.047"><path d="M0 822.047h1105.511V0H0z" fill="#f8ed37"/><path d="M429.231 210.138h-7.536v3.514h7.536zm-7.536-2.807h7.536v-3.267h-7.536zm7.536 9.235h-7.536v.636h-2.991v-16.033h13.587v16.033h-3.06z" fill="#2c292a"/><clipPath id="a"><path transform="matrix(1 0 0 -1 0 822.047)" d="M0 822.047h1105.512V0H0z"/></clipPath><g clip-path="url(#a)"><path d="M428.833 229.527c-1.175-1.553-1.676-2.525-1.987-3.125v3.125zm-4.805 0v-3.125c-.294.6-.743 1.536-1.988 3.125zm-2.922 1.13c-1.33 1.43-2.074 1.978-2.454 2.26l-1.66-2.966c3.302-2.19 4.823-4.61 5.826-6.586h-5.515v-2.825h6.725v-2.401h2.887v2.4h6.776v2.826h-5.618c.83 2.013 3.042 4.696 5.93 6.568l-1.696 2.984c-.5-.353-1.365-.953-2.523-2.243v1.572h-2.938v2.808h-2.818v-2.808h-2.922zM417.857 249.78c4.512-1.801 5.532-4.308 5.41-8.9h3.147a26.21 26.21 0 0 1-.121 2.155c2.143-1.06 2.835-2.613 3.077-3.16h-11.478v-2.984h15.298c-.536 4.502-2.23 6.78-5.152 8.58l-1.815-1.853c-.656 5.597-4.252 7.663-6.378 8.616zM432.585 256.155c-1.002 7.557-3.734 12.219-12.636 13.649l-1.21-2.878c6.776-.883 8.937-3.337 10.078-7.91h-5.065c-1.867 2.4-3.405 3.337-4.15 3.778l-1.918-2.277c2.248-1.29 4.356-3.285 5.6-6.692l3.216.388c-.207.565-.45 1.13-.881 1.942zM432.965 274.484c-.225 3.832-1.486 6.55-5.238 8.51l-1.815-2.348c1.435-.6 2.49-1.341 3.302-2.913l-4.875.512v4.803c0 .935.122 1.024 1.33 1.024h4.168c.864 0 1.71-.106 2.575-.23v3.072c-.605.07-1.867.142-2.506.142h-4.927c-3.734 0-3.734-2.525-3.734-3.655v-4.82l-3.198.335-.224-3.054 3.422-.301v-3.76h3.094v3.477zM417.58 302.47c4.287-1.8 7.571-5.032 9.248-9.358h-8.194v-2.93h12.222c-.502 3.001-1.366 5.155-3.026 7.644 3.043 2.243 4.616 3.832 5.567 4.82l-2.576 2.56c-1.66-1.976-3.906-4.219-4.857-5.067-3.319 3.478-5.48 4.415-6.69 4.927zM430.545 317.25c-.052-3.902-.83-5.756-1.971-7.486l2.611-1.254c1.676 2.454 2.333 4.908 2.506 8.175zm-6.413-10.258c-.104 1.006-.207 2.012-.363 2.895h1.365c3.008 0 3.855 1.995 3.855 5.544 0 1.766-.328 4.803-1.227 5.933-.986 1.27-2.178 1.289-3.164 1.289-.933 0-1.659-.07-2.23-.106l-.224-3.09c.83.106 1.486.195 2.022.195.225 0 .934-.018 1.176-.495.311-.565.725-2.383.725-4.167 0-1.553-.189-2.207-1.4-2.207h-1.382c-.156.812-1.297 7.15-2.991 9.905l-2.904-1.571c1.47-2.401 2.334-5.244 2.87-8.3l-2.334.019v-2.95h2.8c.173-1.535.208-2.33.242-3.071zM429.715 328.675c-2.057-.954-6.516-1.466-7.831-1.536l.519-2.825c1.21.017 4.46.088 8.038 1.112zm-6.793-.688c-.277 1.183-.363 2.4-.415 3.601 1.52-.935 3.388-1.43 5.168-1.43 3.579 0 4.858 2.56 4.858 4.662 0 5.208-5.376 5.473-9.404 5.473-.518 0-2.04 0-3.544-.106l-.362-2.984c2.195.212 3.733.212 4.114.212 4.476 0 6.033-.865 6.033-2.719 0-1.571-1.453-1.836-2.265-1.836-1.746 0-3.664.758-4.684 1.924v.53l-3.008-.124c.052-4.52.294-6.48.414-7.398zM420.415 351.012c0 .44.104 2.065 1.037 2.065 1.176 0 2.161-3.16 2.524-7.345-3.56 1.183-3.56 4.768-3.56 5.28m4.355 3.973c1.504-.124 5.532-.477 5.532-5.21 0-2.454-1.262-3.972-3.44-4.202-.017.3-.467 10.895-5.532 10.895-2.904 0-3.837-3.302-3.837-5.527 0-5.473 4.08-8.334 8.453-8.334 4.995 0 7.571 3.196 7.571 7.363 0 1.465-.346 4.15-2.489 6.056-1.66 1.5-4.356 1.837-5.186 1.943zM408.503 314.688c-.156-.318-.88-1.784-1.642-2.737l1.504-.777c.657.742 1.383 2.013 1.66 2.63zm-2.385 1.36c-.208-.46-.778-1.713-1.59-2.88l1.486-.793a12.927 12.927 0 0 1 1.66 2.755zm1.694-5.28c-1.902.212-4.339 1.2-6.154 2.525l-2.247-1.695a12.09 12.09 0 0 1 1.763-.936c-.795.035-4.374.124-5.099.159v-3.072c1.866.053 10.06 0 11.737 0zm-8.298 4.449c-.362.389-1.07 1.166-1.07 2.207 0 1.59 1.986 1.766 4.251 1.766 1.988 0 3.993-.035 5.964-.264l.017 3.16c-1.089.14-2.402.159-4.477.159-3.734 0-5.427-.141-7.088-1.095-.742-.423-1.849-1.377-1.849-3.248 0-1.996 1.107-3.32 1.988-4.274zM402.661 329.326h4.356v-.688h-4.356zm0-2.136h4.356v-.654h-4.356zm7.018 3.813h-9.731v-6.374h9.731zm-7.018 3.69c-.052.512-.104.937-.208 1.466.312.459.64.847 1.055 1.166v-3.303h-4.027v.106c-.346.142-.692.265-1.159.424v4.309c1.417-1.625 1.608-3.726 1.677-4.538zm-4.391 4.645c-.069.582-.208 1.606-1.348 1.606h-2.559l-.414-3.019h1.262c.414 0 .414-.229.414-.513v-2.048c-.691.195-1.089.301-1.538.406l-.259-2.913c.449-.088.915-.176 1.797-.388v-2.755h-1.711v-2.789h1.711v-2.737h2.697v2.737h1.159v2.789h-1.159v2.031c.536-.159.709-.212 1.124-.353v.194h10.872v2.436h-4.183v.901h3.561v2.03h-3.561v1.06h4.443l-.622 2.789h-4.08c-1.729 0-3.146-.635-4.183-2.065-.519 1.166-1.037 1.836-1.47 2.384zM407.12 345.5v-.688h-4.027c-.07.14-.155.265-.432.688zm-5.997 2.013c-.191.212-.33.353-.588.636.743.035 1.193.07 1.763.14.83-.334 1.089-.53 1.469-.776zm-1.73-2.013c.19-.3.312-.46.45-.688h-2.575v.688zm-3.56 2.013v-.847h-1.417v-4.026h6.309v-.883h2.852v.883h6.414v4.026h-1.47v.847h-1.366c-.328.353-.691.759-1.4 1.324 2.248.424 3.457.813 4.08 1.007l-1.867 2.083h2.385v2.419h-4.442a16.273 16.273 0 0 0 4.754 1.413l-1.384 2.772c-2.644-.777-4.666-1.943-5.79-2.861v2.914h-2.766v-2.878c-2.265 1.624-4.408 2.348-5.687 2.719l-1.28-2.72c.692-.105 2.386-.353 4.668-1.36h-4.443v-2.418h6.742v-.847h2.766v.847h3.959c-1.366-.76-3.095-1.395-3.976-1.712-2.144.953-6.034 1.182-8.194 1.2l-.761-2.225c.346.018.778.036 1.435.036 1.59 0 2.748-.141 3.336-.212a22.97 22.97 0 0 0-2.385-.39c.31-.316.57-.581 1.02-1.111z" fill="#2c292a"/><path stroke-width="1.5" fill="none" stroke="#2c292a" d="M439.38 201.162v157.323"/><path d="M475.966 232.65h-2.602v2.071h-7.932v2.5h3.933c-.374 4.218-2.644 8.844-4.475 10.23l-.076.056v3.038l.257-.1c3.348-1.357 6.719-7.62 7.117-13.224h1.176v9.713h-3.978v2.467h3.978v2.397h2.788v-2.397h3.986v-2.467h-3.986v-9.713h1.166c.415 5.601 3.785 11.86 7.126 13.21l.257.102v-3.026l-.077-.056c-1.831-1.388-4.1-6.017-4.47-10.23h3.93v-2.5h-7.932v-2.07zM459.348 241.528h-11.176v-4.306h11.176zm0 7.345h-11.176v-4.889h11.176zm2.651-14.151h-16.676v16.607h16.862v-16.607zM504.562 234.685h-17.06v2.618l14.408-.002c-.092 3.119-1.918 5.076-5.166 5.565l.008-.233v-3.23h-2.862v3.23c0 4.599-2.84 5.9-5.222 6.19l-.22.028v2.59l.27-.02c4.247-.34 6.833-2.332 7.701-5.922 5.483-.542 8.395-3.693 8.395-9.125v-1.69zM524.522 234.685h-14.865v1.22c0 2.476-1.203 4.613-3.077 5.44l-.15.067v2.496l.297-.06c2.453-.486 5.264-2.741 5.76-6.545l9.384-.002c-.09 7.624-4.115 11.49-11.965 11.49h-.25v2.58h.25c5.564 0 9.628-1.518 12.05-4.525 1.899-2.35 2.81-5.558 2.81-9.797v-2.364zM532.39 232.618h-2.615v2.067h-2.377v2.618h2.377v5.652c0 2.808.83 4.96 2.454 6.4 1.516 1.333 3.7 2.017 6.479 2.017h5.47v-2.581h-5.162c-4.411 0-6.376-1.858-6.376-6.028v-5.46h9.593c-.238 2.804-2.62 4.52-4.803 4.945l-.203.039v2.57l.279-.034c2.315-.286 7.687-1.763 7.687-9.382v-.756H532.64v-2.067zM563.656 234.685h-15.481v2.618l12.652-.001c-.531 2.92-2.196 5.814-4.604 7.972-2.532 2.272-5.56 3.517-8.526 3.517h-.251l.019 2.58h.248c4.09 0 8.338-1.814 11.409-4.868 1.315 1.425 2.344 3.055 2.998 4.714l.063.16h3.192l-.11-.337c-.8-2.416-2.302-4.698-4.351-6.622 1.956-2.733 2.99-5.993 2.99-9.477v-.256z" fill="#2c292a"/><path d="M476.292 219.688c-1.096.159-.943 1.325-.83 1.546.353.704 1.155.604 1.794.824.448.154.891.383 1.254.71.43.391.764.873 1.066 1.346.41.63.684 1.451 1.53 1.608.44.097 1.047-.127 1.187-.726.341-1.313-.98-1.351-1.623-1.57-.438-.146-.844-.276-1.209-.546-.586-.441-1.057-1.02-1.418-1.647-.246-.427-.193-.515-.51-.946-.266-.348-.57-.63-1.24-.599m.008-1.792c.94 0 1.862.338 2.335 1.136.06.099.13.191.155.254.024.062.092.122.153.019.422-.68 1.051-1.408 2.478-1.408 1.712 0 2.736 1.523 2.67 2.947l-1.665-.002c-.148-1.756-2.429-1.28-2.113.211.182.868 1.085.849 1.803 1.028.934.224 2.343 1.1 1.887 3.229-.482 2.277-3.2 2.869-4.717 1.286-.12-.13-.318-.391-.355-.48-.018-.042-.083-.071-.11-.01-.934 2.042-4.306 1.785-5.027-.596-.104-.343-.11-.88-.105-.892.344 0 1.748-.001 1.75.003.004.249.088.556.158.66.233.374.491.447.975.447.492-.043.874-.35.887-.995.016-.782-.569-1.075-.94-1.174-.874-.223-1.559-.267-2.186-.963-1.179-1.267-.786-3.449.674-4.307.596-.349 1.052-.393 1.293-.393M448.806 223.74l.902-1.983.976 1.982zm3.492 3.45h1.81l-4.398-9.37-4.391 9.373h1.856l.797-1.695h3.538zM460.918 227.032c-.704.436-1.592.619-2.472.619-2.634 0-4.768-1.844-4.81-4.893-.035-2.81 2.176-4.886 4.81-4.861 1.184.012 1.895.278 2.63.77l.012.008-.973 1.532-.04-.023a3.007 3.007 0 0 0-1.629-.437c-1.648.059-2.96 1.327-2.96 3.011 0 1.702 1.294 3.078 2.96 3.078.561 0 1.11-.128 1.568-.413a.08.08 0 0 1 .008-.006s.9 1.613.896 1.615M472.922 220.037v-1.748h-5.541v8.857h1.685v-.001h3.847v-1.723h-3.75v-1.826h3.437v-1.74h-3.44v-1.82z" fill="#006eb8"/><path d="M466.572 223.877s-.691.98-2.404.983c-1.914.003-3.342-1.61-3.342-3.488 0-1.88 1.523-3.501 3.36-3.472 1.055.016 1.807.38 2.359.964.002 0-1.081 1.207-1.085 1.204-.295-.267-.774-.433-1.302-.433-.802 0-1.661.772-1.642 1.76.02.913.767 1.74 1.616 1.759.828.023 1.37-.493 1.37-.493zM466.198 226.89c0 .182-1.01.586-2.274.586-1.247 0-2.273-.404-2.273-.586 0-.257 1.026-.602 2.273-.602 1.264 0 2.274.345 2.274.602" fill="#00a754"/><path d="m464.921 278.7 9.677-17.874h8.937v42.528h-9.615v-22.188l-6.348 12.697h-5.548l-6.163-12.512v22.003h-9.615v-42.528h8.937zM501.542 291.089h-2.96c-1.478 0-2.525.8-2.525 2.836 0 1.786.985 2.772 2.71 2.772 2.343 0 2.775-1.849 2.775-4.683zm-4.315-6.534h4.315v-.923c0-3.022-.186-4.192-3.76-4.192-2.527 0-3.205.555-4.13 2.096l-6.225-4.376c2.096-3.822 5.3-5.24 11.403-5.24 7.335 0 11.71 2.28 11.71 11.772v19.663h-8.998v-2.529c-.801 1.666-2.281 3.144-5.363 3.144-4.684 0-9.121-3.204-9.121-9.8 0-6.47 4.437-9.615 10.169-9.615M528.824 282.09c-.616-1.109-1.233-2.28-2.527-2.28-1.725 0-2.527 1.85-2.527 5.978v17.566h-9.245v-30.818h8.998v2.343c.802-1.356 2.158-2.958 5.116-2.958 2.836 0 5.363 1.602 6.842 5.053zM561.057 272.537l-6.102 11.403 7.58 19.415h-9.984l-3.697-10.725-2.281 4.19v6.535h-9.245v-42.528h9.245v21.572l4.437-9.862zM571.822 284.124h4.376c0-3.267-.8-4.438-2.157-4.438-1.602 0-2.219 1.726-2.219 4.438m12.882 14.546c-2.035 3.821-5.054 5.301-9.924 5.301-8.69 0-12.265-6.287-12.265-13.93v-4.315c0-9.553 4.562-13.806 11.464-13.806 7.951 0 11.403 5.116 11.403 14.731v3.637h-13.62c0 3.451.245 5.916 3.204 5.916 2.033 0 2.526-.863 3.266-2.095zM587.24 272.537h3.33v-6.78h9.245v6.78h4.129v7.766h-4.13v11.526c0 2.465.37 3.513 2.343 3.513h1.787v8.013h-3.266c-6.472 0-10.108-1.665-10.108-10.355v-12.697h-3.33zM607.567 272.537h9.245v30.818h-9.245zm0-11.711h9.245v8.629h-9.245zM621.162 272.537h8.937v2.158c1.048-1.295 2.958-2.774 6.102-2.774 4.376 0 8.875 2.712 8.875 12.08v19.354h-9.245v-17.566c0-4.13-.123-5.98-2.465-5.98-2.466 0-2.959 1.973-2.959 5.918v17.628h-9.245zM657.555 289.363c0 4.56.37 6.842 2.773 6.842 2.404 0 2.775-2.281 2.775-6.842v-2.835c0-4.561-.37-6.841-2.775-6.841-2.403 0-2.773 2.28-2.773 6.84zm-9.245-3.636c0-9 4.191-13.806 9.985-13.806 2.404 0 3.883.924 4.808 2.157v-1.541h9.244v30.2c0 11.095-5.855 12.697-12.14 12.697-5.117 0-8.692-1.11-11.465-5.485l6.04-4.684c1.11 1.664 2.403 2.527 4.068 2.527 3.328 0 4.253-.863 4.253-4.684v-.493c-1.11.924-2.466 1.356-4.438 1.356-6.533 0-10.355-5.054-10.355-13.93zM470.037 358.23h-23.544v-6.04l11.772-16.332c1.911-2.651 2.527-5.363 2.527-8.013 0-2.958-1.294-4.376-3.143-4.376-1.91 0-2.836 1.54-3.082 4.376h-8.814c0-7.396 5.61-12.76 12.574-12.76 7.272 0 12.634 5.734 12.634 12.698 0 5.733-3.574 10.479-5.793 13.807l-5.3 8.135h10.17zM484.926 329.632v14.669c0 3.76.431 6.04 3.636 6.04 3.206 0 3.637-2.28 3.637-6.04v-14.669c0-3.76-.43-6.04-3.637-6.04-3.205 0-3.636 2.28-3.636 6.04m-10.232 15.039v-15.409c0-10.971 6.472-14.176 13.868-14.176s13.868 3.205 13.868 14.176v15.409c0 10.971-6.472 14.176-13.868 14.176s-13.868-3.205-13.868-14.176M530.312 358.23h-23.544v-6.04l11.772-16.332c1.911-2.651 2.527-5.363 2.527-8.013 0-2.958-1.294-4.376-3.143-4.376-1.911 0-2.836 1.54-3.082 4.376h-8.814c0-7.396 5.609-12.76 12.574-12.76 7.272 0 12.634 5.734 12.634 12.698 0 5.733-3.574 10.479-5.793 13.807l-5.3 8.135h10.169zM545.3 340.295h-9.184v-24.592h22.867v8.999h-12.82v5.424c.924-.863 2.034-1.972 4.746-1.972 4.992 0 9.553 4.56 9.553 15.038 0 10.786-4.068 15.656-12.327 15.656-6.718 0-12.573-3.76-13.313-12.02h10.108c.431 2.219.986 3.514 2.897 3.514 1.664 0 2.404-2.281 2.404-6.533 0-4.5-.617-6.657-2.404-6.657-1.418 0-1.972 1.11-2.527 3.143" fill="#2c292a"/><path d="M1105.512 455.036H0V367.01h1105.512v44.013z" fill="#fff"/></g><symbol id="b"><path d="M.281.512a1.057 1.057 0 0 1-.183.264L0 .718C.091.614.158.476.171.448l.11.064M.149 0C.59.12.712.387.801.776L.672.802C.593.247.292.15.087.099L.149 0z"/></symbol><symbol id="c"><path d="M.116.839H0V.296h.116v.543m.505.018H.503V.424C.503.386.497.239.381.18A.808.808 0 0 0 .053.11L.09 0c.293.031.531.077.531.477v.38z"/></symbol><symbol id="d"><path d="M.087.559V.45h.369C.455.437.443.228.419.098H0V0h.704v.098H.529c.018.127.029.231.043.461H.087z"/></symbol><symbol id="e"><path d="M0 .121V0h.888v.121H0z"/></symbol><symbol id="f"><path d="M.416.695C.289.766.161.797.127.806L.075.707C.107.698.243.66.365.592l.051.103M.332.474a1.146 1.146 0 0 1-.28.11L0 .483C.146.436.149.434.28.369l.052.105M.082 0C.55.037.721.273.843.615L.734.663C.607.274.431.139.054.12L.082 0z"/></symbol><symbol id="g"><path d="M.012.596V.498h.444V.356H.02V.257h.436V.1H0V0h.563v.596H.012z"/></symbol><symbol id="h"><path d="M.364.647a1.107 1.107 0 0 1-.31.137L0 .686C.103.655.227.594.302.539l.062.108M.047 0C.49.055.706.244.853.671L.74.722C.601.297.384.153.01.126L.047 0z"/></symbol><use xlink:href="#b" transform="matrix(12.0274 0 0 -12.0274 480.068 447.587)" fill="#2c292a"/><use xlink:href="#c" transform="matrix(12.0274 0 0 -12.0274 492.076 447.912)" fill="#2c292a"/><use xlink:href="#d" transform="matrix(12.0274 0 0 -12.0274 501.794 447.082)" fill="#2c292a"/><use xlink:href="#e" transform="matrix(12.0274 0 0 -12.0274 511.359 443.197)" fill="#2c292a"/><use xlink:href="#f" transform="matrix(12.0274 0 0 -12.0274 523.566 447.37)" fill="#2c292a"/><use xlink:href="#g" transform="matrix(12.0274 0 0 -12.0274 535.928 447.31)" fill="#2c292a"/><use xlink:href="#h" transform="matrix(12.0274 0 0 -12.0274 545.278 447.491)" fill="#2c292a"/><symbol id="i"><path d="M.065.614V.478H.19L.16.31H0V.174h.136L.105 0h.086l.031.174h.139L.33 0h.086l.031.174h.15V.31H.471l.03.168h.16v.136H.525l.031.174H.47L.439.614H.3l.031.174H.245L.214.614H.065M.246.31l.03.168h.139L.385.31H.246z"/></symbol><symbol id="j"><path d="M.504.298a.303.303 0 0 1 .155.069c.05.047.054.144.054.18 0 .239-.172.249-.354.249C.037.796.016.691.014.516h.162c.002.111.018.13.199.13C.527.646.55.611.55.537.55.471.527.449.453.441L.197.412C.002.39 0 .223 0 .14V0h.708v.15H.164v.025c0 .075.039.086.094.093l.246.03z"/></symbol><use xlink:href="#i" transform="matrix(18.0411 0 0 -18.0411 559.61 449.403)" fill="#2c292a"/><use xlink:href="#j" transform="matrix(18.0411 0 0 -18.0411 573.178 449.403)" fill="#2c292a"/><path stroke-width="1.5" stroke-miterlimit="10" fill="none" stroke="#2c292a" d="M594.847 432.667v19.115M471.259 432.667v19.115"/><symbol id="k"><path d="M.457 0 .34.295c.059.03.096.091.096.184 0 .14-.087.211-.22.211H0V0h.14v.271h.069L.31 0h.147M.14.389v.182H.2c.059 0 .096-.02.096-.092S.259.389.2.389H.14z"/></symbol><symbol id="l"><path d="M.257.15C.242.122.232.108.192.108.137.108.13.16.128.227h.229v.057c0 .152-.058.234-.179.234C.07.518 0 .445 0 .294V.226C0 .097.061 0 .191 0 .275 0 .32.026.349.087L.257.15M.179.41C.211.41.225.382.228.318h-.1C.132.375.144.41.179.41z"/></symbol><symbol id="m"><path d="M0 .392h.053V.163C.053.034.107 0 .209 0h.048v.112H.222C.19.112.181.133.181.183v.209h.076V.5H.181v.11H.053V.5H0V.392z"/></symbol><symbol id="n"><path d="M0 .157C0 .055.062 0 .145 0c.047 0 .073.019.089.053V.009H.36v.328C.36.48.288.518.18.518.092.518.039.496.006.435l.09-.063c.016.03.033.04.071.04.059 0 .067-.018.067-.074V.309H.159C.066.309 0 .263 0 .157m.234.039C.234.128.219.103.175.103c-.032 0-.05.018-.05.056 0 .039.018.056.052.056h.057V.196z"/></symbol><symbol id="o"><path d="M0 0h.128v.5H0V0m0 .566h.128V.69H0V.566z"/></symbol><symbol id="p"><path d="M0 .16C0 .035.067 0 .182 0v.11C.147.11.128.135.128.189V.69H0V.16z"/></symbol><use xlink:href="#k" transform="matrix(65.7318 0 0 -65.7318 370.371 427.047)" fill="#2c292a"/><use xlink:href="#l" transform="matrix(65.7318 0 0 -65.7318 401.758 427.639)" fill="#2c292a"/><use xlink:href="#m" transform="matrix(65.7318 0 0 -65.7318 427.34 427.047)" fill="#2c292a"/><use xlink:href="#n" transform="matrix(65.7318 0 0 -65.7318 446.68 427.639)" fill="#2c292a"/><use xlink:href="#o" transform="matrix(65.7318 0 0 -65.7318 475.338 427.047)" fill="#2c292a"/><use xlink:href="#p" transform="matrix(65.7318 0 0 -65.7318 488.682 427.047)" fill="#2c292a"/><clipPath id="q"><path transform="matrix(1 0 0 -1 0 822.047)" d="M0 822.047h1105.512V0H0z"/></clipPath><g clip-path="url(#q)" stroke-width="4.706" stroke-linecap="round" stroke-linejoin="round" fill="none" stroke="#2c292a"><path d="M536.991 388.462c-2.629-4.995-7.494-7.362-13.54-7.362-9.204 0-13.476 5.587-13.476 12.752 0 7.493 3.55 11.7 11.174 14.199 5.72 1.84 7.165 3.614 7.165 6.77 0 2.76-1.249 5.061-4.93 5.061-3.352 0-5.324-1.906-7.427-4.536l-6.902 4.865c3.55 5.258 8.216 7.427 14.987 7.427 8.742 0 13.474-5.784 13.474-13.212 0-8.019-3.418-11.372-11.568-14-4.799-1.577-6.77-3.024-6.77-6.574 0-3.09 1.511-4.995 4.667-4.995 2.694 0 4.667 1.71 6.507 4.403zM552.99 427.639c7.56 0 12.226-5.127 12.226-14.987v-4.075c0-9.86-4.667-14.987-12.227-14.987-7.559 0-12.226 5.127-12.226 14.987v4.075c0 9.86 4.667 14.987 12.226 14.987zm0-26.95c3.022 0 3.812 2.892 3.812 8.15v3.55c0 5.259-.79 8.15-3.813 8.15s-3.812-2.891-3.812-8.15v-3.55c0-5.258.79-8.15 3.812-8.15zM568.877 416.53c0 8.216 4.403 10.517 11.963 10.517v-7.23c-2.301 0-3.55-1.644-3.55-5.193v-32.932h-8.413zM608.177 394.181h-8.414v19.325c0 4.338-1.052 6.902-4.01 6.902-2.63 0-3.418-1.84-3.418-6.968v-19.259h-8.413v20.574c0 9.728 4.864 12.884 10.122 12.884 3.485 0 4.799-1.184 5.916-3.09v2.498h8.217zM610.956 401.28h3.483v15.053c0 8.479 3.55 10.714 10.254 10.714h3.156v-7.362h-2.3c-2.105 0-2.696-1.38-2.696-4.667V401.28h4.996v-7.1h-4.996v-7.23h-8.414v7.23h-3.483zM631.794 427.047h8.413v-32.866h-8.413zm0-37.204h8.413v-8.151h-8.413zM656.54 427.639c7.56 0 12.227-5.127 12.227-14.987v-4.075c0-9.86-4.667-14.987-12.227-14.987-7.559 0-12.226 5.127-12.226 14.987v4.075c0 9.86 4.667 14.987 12.226 14.987zm0-26.95c3.023 0 3.813 2.892 3.813 8.15v3.55c0 5.259-.79 8.15-3.813 8.15s-3.813-2.891-3.813-8.15v-3.55c0-5.258.79-8.15 3.813-8.15zM672.514 427.047h8.413v-19.325c0-4.339 1.052-6.902 4.01-6.902 2.629 0 3.418 1.84 3.418 6.968v19.259h8.414v-20.574c0-9.728-4.864-12.884-9.597-12.884-3.55 0-5.456 1.578-6.442 3.156v-2.564h-8.216z"/></g><symbol id="r"><path d="M.425.596C.385.672.311.708.219.708.079.708.014.623.014.514.014.4.068.336.184.298.271.27.293.243.293.195.293.153.274.118.218.118.167.118.137.147.105.187L0 .113C.054.033.125 0 .228 0c.133 0 .205.088.205.201 0 .122-.052.173-.176.213C.184.438.154.46.154.514c0 .047.023.076.071.076C.266.59.296.564.324.523l.101.073z"/></symbol><symbol id="s"><path d="M.186 0c.115 0 .186.078.186.228V.29c0 .15-.071.228-.186.228S0 .44 0 .29V.228C0 .078.071 0 .186 0m0 .41C.232.41.244.366.244.286V.232C.244.152.232.108.186.108S.128.152.128.232v.054c0 .08.012.124.058.124z"/></symbol><symbol id="t"><path d="M.369.509H.241V.215C.241.149.225.11.18.11.14.11.128.138.128.216v.293H0V.196C0 .048.074 0 .154 0c.053 0 .073.018.09.047V.009h.125v.5z"/></symbol><symbol id="u"><path d="M0 0h.128v.294c0 .066.016.105.061.105.04 0 .052-.028.052-.106V0h.128v.313c0 .148-.074.196-.146.196C.169.509.14.485.125.461V.5H0V0z"/></symbol><use xlink:href="#r" transform="matrix(65.7318 0 0 -65.7318 509.055 427.639)" fill="#2c292a"/><use xlink:href="#s" transform="matrix(65.7318 0 0 -65.7318 540.764 427.639)" fill="#2c292a"/><use xlink:href="#p" transform="matrix(65.7318 0 0 -65.7318 568.878 427.047)" fill="#2c292a"/><use xlink:href="#t" transform="matrix(65.7318 0 0 -65.7318 583.923 427.639)" fill="#2c292a"/><use xlink:href="#m" transform="matrix(65.7318 0 0 -65.7318 610.952 427.047)" fill="#2c292a"/><use xlink:href="#o" transform="matrix(65.7318 0 0 -65.7318 631.79 427.047)" fill="#2c292a"/><use xlink:href="#s" transform="matrix(65.7318 0 0 -65.7318 644.311 427.639)" fill="#2c292a"/><use xlink:href="#u" transform="matrix(65.7318 0 0 -65.7318 672.51 427.047)" fill="#2c292a"/><use xlink:href="#r" transform="matrix(65.7318 0 0 -65.7318 509.055 427.639)" fill="#fff"/><use xlink:href="#s" transform="matrix(65.7318 0 0 -65.7318 540.764 427.639)" fill="#fff"/><use xlink:href="#p" transform="matrix(65.7318 0 0 -65.7318 568.878 427.047)" fill="#fff"/><use xlink:href="#t" transform="matrix(65.7318 0 0 -65.7318 583.923 427.639)" fill="#fff"/><use xlink:href="#m" transform="matrix(65.7318 0 0 -65.7318 610.952 427.047)" fill="#fff"/><use xlink:href="#o" transform="matrix(65.7318 0 0 -65.7318 631.79 427.047)" fill="#fff"/><use xlink:href="#s" transform="matrix(65.7318 0 0 -65.7318 644.311 427.639)" fill="#fff"/><use xlink:href="#u" transform="matrix(65.7318 0 0 -65.7318 672.51 427.047)" fill="#fff"/><clipPath id="v"><path transform="matrix(1 0 0 -1 0 822.047)" d="M0 822.047h1105.512V0H0z"/></clipPath><g clip-path="url(#v)" stroke-width=".941" stroke-linecap="round" stroke-linejoin="round" fill="none" stroke="#2c292a"><path d="M536.991 388.462c-2.629-4.995-7.494-7.362-13.54-7.362-9.204 0-13.476 5.587-13.476 12.752 0 7.493 3.55 11.7 11.174 14.199 5.72 1.84 7.165 3.614 7.165 6.77 0 2.76-1.249 5.061-4.93 5.061-3.352 0-5.324-1.906-7.427-4.536l-6.902 4.865c3.55 5.258 8.216 7.427 14.987 7.427 8.742 0 13.474-5.784 13.474-13.212 0-8.019-3.418-11.372-11.568-14-4.799-1.577-6.77-3.024-6.77-6.574 0-3.09 1.511-4.995 4.667-4.995 2.694 0 4.667 1.71 6.507 4.403zM552.99 427.639c7.56 0 12.226-5.127 12.226-14.987v-4.075c0-9.86-4.667-14.987-12.227-14.987-7.559 0-12.226 5.127-12.226 14.987v4.075c0 9.86 4.667 14.987 12.226 14.987zm0-26.95c3.022 0 3.812 2.892 3.812 8.15v3.55c0 5.259-.79 8.15-3.813 8.15s-3.812-2.891-3.812-8.15v-3.55c0-5.258.79-8.15 3.812-8.15zM568.877 416.53c0 8.216 4.403 10.517 11.963 10.517v-7.23c-2.301 0-3.55-1.644-3.55-5.193v-32.932h-8.413zM608.177 394.181h-8.414v19.325c0 4.338-1.052 6.902-4.01 6.902-2.63 0-3.418-1.84-3.418-6.968v-19.259h-8.413v20.574c0 9.728 4.864 12.884 10.122 12.884 3.485 0 4.799-1.184 5.916-3.09v2.498h8.217zM610.956 401.28h3.483v15.053c0 8.479 3.55 10.714 10.254 10.714h3.156v-7.362h-2.3c-2.105 0-2.696-1.38-2.696-4.667V401.28h4.996v-7.1h-4.996v-7.23h-8.414v7.23h-3.483zM631.794 427.047h8.413v-32.866h-8.413zm0-37.204h8.413v-8.151h-8.413zM656.54 427.639c7.56 0 12.227-5.127 12.227-14.987v-4.075c0-9.86-4.667-14.987-12.227-14.987-7.559 0-12.226 5.127-12.226 14.987v4.075c0 9.86 4.667 14.987 12.226 14.987zm0-26.95c3.023 0 3.813 2.892 3.813 8.15v3.55c0 5.259-.79 8.15-3.813 8.15s-3.813-2.891-3.813-8.15v-3.55c0-5.258.79-8.15 3.813-8.15zM672.514 427.047h8.413v-19.325c0-4.339 1.052-6.902 4.01-6.902 2.629 0 3.418 1.84 3.418 6.968v19.259h8.414v-20.574c0-9.728-4.864-12.884-9.597-12.884-3.55 0-5.456 1.578-6.442 3.156v-2.564h-8.216z"/></g></svg>