<svg xmlns="http://www.w3.org/2000/svg" width="1474.013" height="1096.063" viewBox="0 0 1105.51 822.047"><path d="M0 822.047h1105.51V0H0z" fill="#f8ed37"/><clipPath id="a"><path transform="matrix(1 0 0 -1 0 822.047)" d="M0 822.047h1105.512V0H0z"/></clipPath><g clip-path="url(#a)"><path d="M492.68 342.632h2.4c.853 11.322 7.788 23.97 14.663 26.702l.528.207v-6.118l-.157-.113c-3.77-2.805-8.434-12.163-9.196-20.678H509v-5.054h-16.32v-4.187h-5.738v4.187H470.62v5.054h8.093c-.77 8.526-5.441 17.877-9.208 20.678l-.158.113v6.14l.53-.203c6.89-2.741 13.826-15.404 14.645-26.728h2.42v19.632h-8.185v4.988h8.185v4.846h5.738v-4.846h8.2v-4.988h-8.2zM458.103 351.335h-22.997v-8.704h22.997zm0 14.848h-22.997v-9.882h22.997zm-28.861 4.965h34.699v-33.57h-34.699zM545.684 342.791c-.189 6.304-3.946 10.261-10.63 11.249l.016-.47v-6.53h-5.889v6.53c0 9.297-5.845 11.929-10.745 12.515l-.453.054v5.237l.554-.041c8.74-.686 14.062-4.714 15.848-11.973 11.283-1.094 17.275-7.463 17.275-18.444v-3.415h-35.627v5.292zM586.758 342.791c-.183 15.411-8.468 23.226-24.621 23.226h-.512v5.218h.512c11.449 0 19.813-3.07 24.798-9.15 3.906-4.749 5.783-11.235 5.783-19.803v-4.779h-31.093v2.468c0 5.003-2.476 9.323-6.332 10.996l-.306.135v5.044l.608-.118c5.048-.984 10.832-5.544 11.853-13.233zM628.658 342.795c-.49 5.667-5.39 9.138-9.883 9.997l-.419.077v5.196l.574-.068c4.765-.58 15.818-3.565 15.818-18.966v-1.528h-25.83v-4.179h-5.896v4.18h-4.89v5.291h4.89v11.425c0 5.676 1.71 10.028 5.05 12.94 3.12 2.693 7.613 4.075 13.333 4.075h11.257v-5.219h-10.624c-9.076 0-13.12-3.755-13.12-12.184v-11.037zM666.919 342.793c-1.093 5.906-4.517 11.753-9.473 16.114-5.21 4.593-11.44 7.11-17.545 7.11h-.515l.038 5.218h.51c8.418 0 17.158-3.669 23.477-9.844 2.706 2.883 4.823 6.177 6.169 9.53l.13.325h6.568l-.227-.682c-1.644-4.883-4.736-9.498-8.953-13.386 4.026-5.524 6.156-12.114 6.156-19.158v-.517h-32.368v5.292z" fill="#2c292a"/><path d="M492.97 307.188c-2.255.322-1.94 2.678-1.71 3.126.727 1.423 2.378 1.22 3.693 1.665.921.312 1.833.774 2.58 1.435.883.791 1.573 1.764 2.193 2.721.841 1.273 1.41 2.932 3.148 3.251.905.195 2.156-.257 2.443-1.467.703-2.656-2.018-2.73-3.339-3.176-.902-.294-1.737-.557-2.489-1.103-1.205-.89-2.174-2.062-2.917-3.329-.506-.862-.398-1.042-1.049-1.913-.548-.702-1.174-1.272-2.554-1.21m.02-3.622c1.933 0 3.83.683 4.804 2.297.123.2.267.385.32.511.048.126.187.248.313.04.87-1.375 2.163-2.847 5.1-2.847 3.523 0 5.63 3.08 5.494 5.96-1.017 0-3.412-.006-3.428-.006-.304-3.55-4.997-2.588-4.346.426.373 1.756 2.232 1.717 3.71 2.08 1.922.452 4.82 2.223 3.882 6.526-.992 4.601-6.587 5.8-9.707 2.6-.249-.263-.654-.79-.73-.97-.037-.086-.17-.146-.226-.02-1.922 4.127-8.862 3.607-10.343-1.206-.215-.694-.23-1.78-.218-1.803.71 0 3.597-.002 3.602.006.008.503.181 1.123.324 1.334.48.755 1.01.903 2.007.903 1.012-.087 1.8-.707 1.826-2.01.032-1.58-1.172-2.174-1.938-2.374-1.796-.45-3.206-.54-4.495-1.947-2.426-2.56-1.617-6.97 1.388-8.707 1.226-.705 2.163-.793 2.66-.793M436.409 315.377l1.857-4.007 2.007 4.007zm7.185 6.976h3.727l-9.052-18.944-9.034 18.95h3.818l1.64-3.427h7.28zM459.473 318.781c-.942.575-2.073.835-3.226.835-3.428 0-6.093-2.782-6.093-6.223 0-3.403 2.701-5.967 6.093-6.085 1.174-.043 2.395.311 3.35.883l.085.045 2.002-3.095s-.02-.014-.027-.017c-1.51-.994-2.974-1.532-5.41-1.556-5.422-.05-9.97 4.146-9.899 9.825.086 6.163 4.477 9.891 9.9 9.891 1.81 0 3.637-.37 5.085-1.25.005-.005-1.843-3.265-1.843-3.265l-.017.012M486.033 307.893v-3.534h-11.4v17.904l11.381-.002v-3.482H478.3v-3.692h7.071v-3.517h-7.075v-3.677z" fill="#006eb8"/><path d="M470.764 313.198s-1.114 1.042-2.818.997c-1.747-.04-3.283-1.712-3.326-3.557-.04-1.997 1.728-3.556 3.38-3.556 1.085 0 2.072.335 2.678.875.008.005 2.236-2.432 2.233-2.434-1.137-1.18-2.684-1.917-4.852-1.95-3.783-.058-6.916 3.22-6.916 7.018 0 3.799 2.938 7.059 6.877 7.05 3.524-.003 4.946-1.985 4.946-1.985zM467.519 320.529c-2.566 0-4.676.697-4.676 1.217 0 .368 2.11 1.184 4.676 1.184 2.602 0 4.679-.816 4.679-1.184 0-.52-2.077-1.217-4.68-1.217" fill="#00a754"/><path d="M486.573 428.933a29.43 29.43 0 0 1 2.937 2.464c2.379-2.137 3.532-3.563 4.376-4.717h-12.131v-2.426h13.705c.154 0 .749-.059 1.286-.27l1.594 1.925c-.27.232-.596.502-.768.713-3.187 3.678-3.532 4.101-6.335 6.681.998 1.04 1.382 1.522 2.035 2.582-.212.192-1.19 1.04-1.383 1.213-.344.308-.556.52-.767.73-.576-1.077-1.958-3.637-6.316-7.027zM515.617 431.648h-16.566v-2.734h16.566zM523.077 428.316c-.077.116-1.67 2.62-3.302 4.256a11.528 11.528 0 0 0-2.246-1.617c3.282-3.178 4.972-6.624 5.97-9.744l2.649 1.02c.134.058.307.135.307.29 0 .191-.384.25-.575.288a47.984 47.984 0 0 1-1.344 2.985h9.886v2.522h-4.8c-.153 3.717-1.285 7.857-6.181 10.88-.767-.866-1.785-1.579-2.111-1.79 2.63-1.484 5.337-3.62 5.566-9.09zM550.3 424.793h-10.961v-2.369H550.3zm-13.686 5.025v-2.348h16.316v2.348h-6.449c-.058 3.351-1.171 5.161-2.17 6.24-.73.79-2.015 2.002-4.261 2.734-.614-.924-1.383-1.617-1.939-2.041 5.183-1.444 5.72-4.621 5.778-6.933zM563.343 438.484h-2.4v-7.048c-.268.153-2.802 1.598-4.396 2.156a7.575 7.575 0 0 0-1.631-1.925c3.244-1.059 6.948-2.715 10.538-7.125l1.939 1.521c.077.058.135.135.135.232 0 .172-.135.192-.25.192-.116 0-.173-.02-.27-.038-1.227 1.29-2.341 2.348-3.665 3.35zM570.88 435.673c4.606-.982 10.48-4.044 14.416-10.456.69 1.098.92 1.463 1.67 2.253-1.248 1.926-4.857 7.375-13.917 10.648-.038.193-.058.424-.326.424-.135 0-.25-.154-.346-.327zm1.362-13.537c2.823 1.425 4.127 2.503 5.03 3.31-.403.463-.691.849-1.593 2.236-2.266-1.984-4.127-2.87-5.05-3.275zM603.191 420.749c.633.559 1.458 1.52 1.843 1.983-.097.058-.942.636-1.42.944-.154-.232-.884-1.29-1.69-1.984zm-2.995.212c.268.23 1.248 1.098 1.823 1.809-.21.135-.844.482-1.4.963-.769-.905-1.229-1.328-1.767-1.771zm.75 3.523c.632 0 .977-.134 1.323-.29l1.382 1.215c-.326.559-1.344 2.83-1.977 4.256-2.995 6.682-7.716 8.896-9.195 9.59-.345-.444-.71-.867-2.054-1.888 6.853-2.85 8.677-7.991 9.58-10.514h-5.337c-1.287 1.887-2.59 3.389-4.51 5.123-.865-.906-1.134-1.195-1.997-1.772 2.034-1.676 4.971-4.602 6.43-8.666l2.361 1.137c.096.038.268.115.268.288 0 .193-.344.25-.46.25-.23.463-.383.752-.653 1.27zM618.488 424.195v10.592c.441.038.845.077 1.095.077 1.573 0 1.843-.636 1.843-1.387 0-2.253-2.324-4.313-2.746-4.64.806-1.233 1.69-3.313 2.035-4.642zm5.24-.98c-.537 1.443-.92 2.194-2.418 5.217.825.847 2.457 2.541 2.457 5.122 0 2.1-.883 3.64-4.184 3.793-.25-1.155-.519-1.54-1.095-2.156v3.813h-2.246v-16.83h6.45zm-14.454 12.92h3.091v-2.89h-3.09zm-.326-11.015c.595 1.04.845 1.54 1.286 2.754l-1.478.558h2.591c.71-1.52 1.056-2.85 1.114-3.312zm5.797 13.884h-2.38v-.867h-3.09v.924h-2.343v-7.817h7.813zm.556-15.733v1.85h-2.495l1.863.807c.173.078.23.155.23.25 0 .194-.269.251-.48.271a20.31 20.31 0 0 1-.845 1.983h2.111v1.887h-9.789v-1.887h2.207c-.326-1.02-.69-1.753-1.15-2.599l1.688-.713h-2.188v-1.849h3.205v-1.964l2.496.077c.191 0 .384.116.384.27 0 .192-.173.288-.442.423v1.194zM490.815 479.94h2.074v1.196h-2.074v2.02h-1.267v-2.02h-1.987v-1.197h1.987v-3.34c-1.33 2.73-3.005 4.35-4.098 5.298-.137-.187-.373-.499-1.205-.936 3.018-2.168 4.52-5.023 4.819-5.647h-4.56v-1.122h5.044V471.7l1.217.088c.15.011.323.024.323.173 0 .113-.111.175-.273.238v1.994h5.08v1.122h-4.62c.98 1.883 2.559 3.853 4.856 5.485-.497.362-.708.55-1.005 1.01-1.84-1.384-3.304-3.203-4.311-5.273zM505.212 476.062c-.869-.448-1.154-.673-1.825-1.259-.634.798-1.242 1.135-1.479 1.26zm.273 3.43h-5.452v.572h5.452zm0-1.273h-5.452v.548h5.452zm-5.452-.735h5.452v-.549h-5.452zm-2.46-5.585c1.07.324 1.231.386 2.187.81-.174.311-.249.473-.485 1.01-.695-.312-1.416-.624-2.11-.786zm9.204 9.05h-2.173c.534.287 1.8.898 3.503 1.272-.274.2-.72.773-.845 1.034-1.603-.548-2.522-.984-3.7-1.682l.52-.624h-2.62l.56.511c.073.075.11.124.11.2 0 .075-.062.137-.149.137a.96.96 0 0 1-.286-.05c-.894.561-2.52 1.21-3.577 1.508-.199-.548-.397-.76-.807-1.122 1.18-.162 2.77-.748 3.577-1.184h-2.16v-4.887h2.235c-.31-.374-.46-.46-.659-.586 1.28-.374 2.112-.872 2.51-2.03h-1.119c-.434.547-.683.797-.894 1.01a2.369 2.369 0 0 0-.658-.414c-.037.337.025.848.124 1.073-.72.361-1.478.685-2.633 1.172-.025.162-.063.337-.224.337-.137 0-.186-.188-.21-.275l-.31-1.035c1.03-.199 2.545-.872 3.24-1.272-.11-.037-.198-.086-.372-.136.596-.512 1.316-1.272 1.801-2.369l1.068.287c.1.025.224.075.224.162 0 .087-.15.125-.336.162a3.195 3.195 0 0 1-.199.374h5.006l.683.486c-.608.935-1.093 1.447-1.516 1.845-.484-.374-.682-.486-1.017-.599.322-.324.583-.586.732-.809h-1.85c.061.186-.174.223-.348.236-.025.063-.037.112-.087.237 1.304 1.284 3.167 1.82 4.46 2.032-.262.3-.46.723-.622 1.06a7.79 7.79 0 0 1-.982-.287zM516.312 472.685c.522.423 1.255 1.108 1.689 1.646-.26.185-.632.623-.819.834-.447-.574-1.205-1.284-1.627-1.632zm-.161 2.954a15.74 15.74 0 0 1 1.689 1.832c-.236.213-.497.512-.782.836-.386-.524-1.142-1.372-1.665-1.82zm4.521 2.469.248 1.096-1.416.375v3.577h-1.254v-3.253l-3.142.822-.336-1.135 3.478-.872v-7.043l1.341.123c.087.014.211.052.211.139 0 .074-.111.137-.298.236v6.233zm-5.477-5.224c.074.026.186.087.186.161 0 .077-.087.113-.298.2-.224.749-.385 1.11-.783 1.995a3.76 3.76 0 0 0-.993-.41c.398-.861.609-1.51.782-2.283zm-4.559-.212c.137.286.634 1.308.869 2.144-.285.138-.769.325-1.055.474-.174-.724-.534-1.632-.832-2.231zm2.311 10.496h-1.155v-4.2c-.721 1.582-1.267 2.269-1.603 2.668-.509-.463-.758-.612-1.068-.762 1.168-1.108 2.112-2.63 2.558-3.952h-2.185v-1.034h2.298v-4.213l1.242.087c.087 0 .235.088.235.175 0 .137-.186.199-.322.236v3.716h1.987v1.034h-1.95c.111.249.645 1.42 1.64 2.418-.423.411-.46.462-.795.91-.311-.422-.535-.86-.882-1.632zM527.815 471.9c.075.011.26.05.26.211 0 .037-.011.174-.322.186-.1.225-.2.437-.46.973.374-.05 1.888-.225 3.093-.66l.037 1.27a38.317 38.317 0 0 1-3.751.562c-.41.698-.583.984-.856 1.396.633-.336 1.18-.336 1.316-.336.224 0 1.44 0 1.95 1.284.932-.412 2.41-1.048 2.783-1.235l.496 1.334c-1.354.387-2.074.673-3.055 1.06.05.461.05.947.05 1.334 0 .586-.013.91-.038 1.246a15.119 15.119 0 0 0-1.291 0c.099-1.07.06-1.819.049-2.007-2.025 1.06-2.285 1.633-2.285 2.132 0 .387.087.96 2.335.96 1.292 0 2.584-.187 3.837-.523-.098.423-.148.76-.148 1.358-1.528.324-3.068.324-3.43.324-2.83 0-3.837-.947-3.837-2.044 0-1.645 2.348-2.918 3.379-3.39-.1-.35-.248-.886-1.168-.886-.92 0-1.962.586-3.378 2.892l-1.155-.71c.584-.61 1.987-2.357 2.993-4.089-1.006.05-1.316.062-2.298.05v-1.248c.398.038.882.088 1.74.088.497 0 .906-.012 1.155-.025.422-.86.57-1.196.745-1.782zM544.074 472.734c.087.037.162.112.162.2 0 .074-.062.137-.137.161-.087.026-.162.037-.236.05a18.592 18.592 0 0 1-1.651 2.905c-.386-.2-.771-.399-1.193-.536.596-.81 1.404-2.23 1.739-3.254zm-8.482-.573c.645.847 1.415 2.243 1.775 3.178-.348.175-.97.487-1.23.661-.31-.872-1.118-2.444-1.751-3.229zm8.582 4.09v6.892h-1.367v-.586h-8.855v-1.146h8.855v-1.484h-8.023v-1.097h8.023v-1.47h-8.794v-1.11h4.546v-4.563l1.379.087c.15.013.298.024.298.162 0 .137-.124.162-.298.212v4.102zM550.882 476.798v-1.271h2.285v-3.778l1.417.075c.1 0 .2.037.2.137 0 .112-.088.15-.275.2v3.366h2.373v1.27h-2.373v4.639h2.646v1.21h-6.844v-1.21h2.856v-4.638zm-1.863 6.333h-1.29v-3.89c-.622.587-1.082.923-1.43 1.185-.26-.536-.534-.798-.857-1.06 1.441-.872 3.105-2.53 3.713-3.901h-3.279v-1.197h1.852v-2.506l1.254.05c.162.012.273.088.273.187 0 .1-.137.162-.236.212v2.057h1.354l.56.549c-.734 1.483-.957 1.844-1.405 2.418.733.786 1.553 1.32 2.025 1.62a4.096 4.096 0 0 0-.808.998c-.273-.2-.956-.686-1.726-1.51zM559.448 478.02c0 1.246.66 2.17 1.144 2.17.471 0 .832-.948 1.154-1.759.584-1.509.894-2.917.944-4.525-1.962.498-3.242 2.53-3.242 4.114m4.211 3.465c3.701-.773 3.95-3.553 3.95-4.276 0-1.87-1.366-3.502-3.553-3.515-.136 1.433-.41 3.49-1.366 5.697-.67 1.533-1.316 2.318-2.024 2.318-.932 0-2.447-1.496-2.447-3.602 0-2.618 2.334-5.585 5.75-5.585 2.622 0 4.92 1.758 4.92 4.675 0 1.621-.709 2.88-1.454 3.69-.98 1.06-2.174 1.484-2.93 1.745a6.272 6.272 0 0 0-.846-1.147M578.587 477.384h2.683v1.197h-2.683v4.55h-1.316v-4.55H574.6v-1.197h2.67v-2.768h-.844c-.385.899-.683 1.509-1.217 2.245-.286-.275-.783-.586-1.168-.673 1.106-1.235 1.789-3.18 2.013-4.55l1.403.349c.074.024.137.075.137.149 0 .149-.25.162-.348.162-.062.188-.323 1.023-.373 1.185h3.987v1.133h-2.273zm-5.378 2.58h-1.764v1.435h1.764zm.819-3.452H570.5v-.96h3.527zm0 1.695h-3.54v-.96h3.54zm.013-5.074h-3.552v-.935h3.552zm-2.596 9.325v.686h-1.168v-4.264h4.075v4.102h-1.143v-.524zm3.254-7.63h-4.732v-.972h4.732zM584.935 478.756h2.211v-2.544h-2.211zm3.503-3.728v4.924h-3.503v1.047h-1.303v-5.971zm3.478 6.407c0 1.522-.894 1.696-2.807 1.684-.024-.287-.074-.773-.471-1.509.422.075.67.125 1.005.125.919 0 .919-.224.919-.661v-7.68h-8.396v-1.196h11.402v1.196h-1.652zM601.941 474.019c1.913.636 2.634 1.134 3.218 1.608-.423.598-.547.772-.734 1.072-1.117-.972-2.508-1.41-3.179-1.608zm-2.335 6.184c-.608 0-1.167.26-1.167.796 0 .835 1.242.835 1.316.835 1.243 0 1.23-.772 1.217-1.284-.67-.347-1.242-.347-1.366-.347m2.97-3.192c-.585.548-.61 1.01-.61 1.296 0 .61.087 1.096.162 1.445a13.944 13.944 0 0 1 2.745 1.697c-.26.298-.373.449-.758.985-1.292-1.023-1.553-1.16-1.95-1.373-.05 1.809-1.875 1.809-2.31 1.809-1.416 0-2.597-.649-2.597-1.871 0-.91.684-1.783 2.287-1.783.545 0 .98.1 1.253.163-.049-.423-.124-.91-.124-1.298 0-.796.572-1.52.87-1.731zm-7.838-3.067c.372.036.682.075 1.316.075.696 0 1.217-.05 1.441-.075.323-1.197.423-1.783.51-2.22l1.34.388c.113.036.174.06.174.161 0 .137-.11.15-.248.162a66.242 66.242 0 0 0-.385 1.31c.311-.05.981-.188 1.875-.512-.024.362-.024.873.037 1.272a17.254 17.254 0 0 1-2.285.486c-.434 1.297-1.664 4.376-2.869 6.07-.52-.273-.558-.285-1.205-.535 1.218-1.745 2.2-3.89 2.684-5.373-.349.038-1.292.1-2.237.087zM613.897 472.385c.087.062.174.15.174.212 0 .038-.025.125-.149.125-.062 0-.149-.025-.199-.037-.385.36-3.006 2.63-4.732 4.013-.224.175-.559.45-.559.624 0 .2.063.237.646.61.931.599 3.776 2.482 5.28 4.327-.386.349-.448.424-1.007 1.109-1.018-1.496-3.8-3.677-5.39-4.712-1.106-.71-1.218-.797-1.218-1.284 0-.287 0-.424 1.018-1.21.994-.772 3.23-2.517 4.956-4.636zM618.741 479.578c1.23.761 2.186 1.671 2.707 2.182l-1.043 1.059c-.795-1.021-1.652-1.72-2.52-2.305zM450.701 495.249h2.745v-.848h-2.745zm-1.23 1.01h-2.484c-.087.598-.1.698-.124.873h2.608zm0 2.443c-.696.648-2.323 1.933-4.261 2.594-.074-.125-.434-.711-.931-.973 1.255-.324 2.845-.984 4.174-2.106h-1.801c-.063.261-.087.374-.137.573a4.714 4.714 0 0 0-1.305-.149c.361-1.484.547-2.282.671-3.579l1.193.187h2.397v-.848h-4.322v-1.059h9.551v2.917h-3.999v.873h4.719c-.099 1.321-.421 2.506-.745 2.992-.273.424-.547.723-2.223.66a3.212 3.212 0 0 0-.448-1.309c.411.087.92.125 1.044.125.435 0 .72 0 .944-1.383h-3.291v3.079h-1.23zm1.788-6.831c-.434.648-.595.872-1.08 1.371-.31-.249-.832-.486-1.192-.61.335-.287.558-.536.769-.761h-1.664c.074.125.385.772.509 1.034a5.79 5.79 0 0 0-1.217.237 11.26 11.26 0 0 0-.547-1.271h-.558c-.137.236-.522.822-.982 1.408a4.36 4.36 0 0 0-1.192-.523c.547-.598 1.403-1.533 1.889-2.967l1.191.249c.149.038.199.112.199.175 0 .112-.111.162-.323.175-.099.224-.148.311-.224.473h2.995v.923c.21-.263.832-.998 1.241-2.07l1.23.287c.05.013.174.037.174.162 0 .137-.124.149-.348.199-.174.337-.212.387-.273.499h3.764v1.01h-2.224c.285.573.311.648.41.923-.447.05-.92.124-1.342.223-.074-.311-.161-.547-.41-1.146zM466.42 495.985h-8.446v-1.247h8.446zm.882-4.201h-10.185v-1.26h10.185zm.522 8.764h-11.34v-1.284h11.34zM474.657 493.392c.634-.623.932-.96 1.13-1.197h-1.626v1.197zm2.273 5.236h-4.77v1.022h4.77zm0-1.907h-4.77v.947h4.77zm1.565-6.197c.087.05.175.1.175.2 0 .075-.063.138-.175.138-.05 0-.15 0-.224-.026a21.444 21.444 0 0 1-1.912 2.555h3.254v1.11h-4.347c-.497.475-1.081.923-1.454 1.16h4.385v5.584h-1.267v-.56h-4.77v.56h-1.266v-3.964c-1.217.536-1.826.712-2.2.824-.086-.2-.284-.725-.72-1.223 2.162-.473 4.1-1.483 5.354-2.382h-5.055v-1.108h4.609v-1.197h-3.491v-1.097h3.49v-1.247l1.329.05c.162 0 .249.075.249.15 0 .1-.087.15-.298.199v.848h1.862v.81c.808-1.01 1.155-1.683 1.318-1.995zM479.82 496.621c1.242-.936 2.224-2.231 3.466-3.853.546-.71.98-.834 1.329-.834.807 0 1.24.536 1.999 1.483 2.062 2.568 3.888 4.214 5.143 5.086-.386.436-.547.685-.92 1.222-2.112-1.708-3.69-3.628-5.242-5.51-.534-.649-.72-.811-.98-.811-.187 0-.41.087-.771.586-1.726 2.357-2.024 2.755-2.931 3.691zM498.372 493.43h3.342v-.773h-3.342zm3.341-2.357h-3.342v.711h3.342zm1.204 3.278h-5.812v-4.188h5.812zm-4.669 2.532c.099.024.199.05.199.162 0 .149-.162.186-.311.223-.038.163-.162.798-.186.886.31.599.782 1.11 1.34 1.434v-3.541h-2.583v-1.134h6.844v1.134h-3.068v1.035h2.423v1.097h-2.423v1.77c.36.037.696.05 1.068.05.957 0 1.727-.137 2.074-.199-.21.498-.273.748-.31 1.284-.348.024-.782.062-1.64.062-1.453 0-2.956 0-4.135-1.783-.584 1.371-1.032 1.795-1.217 1.983-.224-.238-.46-.437-1.032-.599.361-.424 1.528-1.758 1.727-4.151zm-1.789-4.875v1.16h-1.329v1.932c.05-.013.72-.262 1.267-.499-.037.299-.074.598-.074.798 0 .162.011.237.037.349-.274.149-.398.212-1.23.536v3.516c0 .972 0 1.52-1.826 1.52-.111 0-.174-.012-.298-.024a3.842 3.842 0 0 0-.336-1.247c.174.037.411.075.771.075.521 0 .521-.088.521-.724v-2.667c-.26.087-.347.112-1.167.386-.038.149-.087.337-.261.337-.099 0-.136-.075-.149-.175l-.211-1.334c.285-.05.583-.112 1.788-.461v-2.318h-1.676v-1.16h1.676v-2.206l1.28.087c.099.012.199.025.199.149 0 .15-.162.2-.311.25v1.72zM513.626 497.53a11.166 11.166 0 0 0 2.634 2.756c-.373.25-.746.56-1.03.96-.759-.686-1.666-1.522-2.634-3.055zm-2.484-1.383h1.9v-2.68h-1.9zm1.9-3.902v-2.344l1.268.05c.185.013.335.037.335.162 0 .05-.038.125-.1.15-.074.037-.137.075-.235.112v1.87h1.601v1.222h-1.6v2.68h1.95v1.222h-8.125v-1.222h1.726v-2.68h-1.477v-1.222h1.477v-2.344l1.292.1c.087.012.298.025.298.162 0 .062-.06.1-.098.125a.824.824 0 0 1-.212.1v1.857zm-1.602 5.983c.137.075.211.138.211.2 0 .137-.186.174-.36.163a10.922 10.922 0 0 1-2.36 2.692c-.223-.274-.707-.66-1.117-.785 1.117-.674 2.135-1.82 2.583-2.843zm-3.789 3.042h-1.303v-6.507c-.435.648-.758 1.022-.982 1.296-.223-.374-.509-.685-.919-.897 1.603-1.646 2.683-4.2 2.993-5.386l1.181.387c.124.037.211.125.211.212 0 .125-.112.162-.323.175-.435 1.072-.683 1.62-1.08 2.393.322.087.51.162.51.25 0 .05-.026.1-.076.124-.062.037-.136.074-.212.112zM520.888 496.321c0 .175 0 1.321.931 1.321.646 0 1.093-.66 1.093-1.483 0-.386-.173-1.222-1.018-1.222-.708 0-1.006.686-1.006 1.384m2.943-6.283c.298.038.298.088.298.15 0 .087-.087.137-.21.2-.038.348-.038.436-.063 1.171.683-.025 3.69-.162 4.31-.187-.012.237-.025.91.012 1.334a92.904 92.904 0 0 0-2.583-.037c-.286 0-.969 0-1.714.024-.013 1.347-.013 1.496.025 1.933.534.873.534 1.957.534 2.12 0 .797-.274 2.094-1.118 3.166-.733.934-1.515 1.346-1.988 1.596-.335-.337-.422-.4-1.142-.898 1.69-.674 2.397-1.484 2.745-2.556-.385.386-.845.611-1.379.611-1.167 0-1.764-1.034-1.764-2.319 0-1.52.882-2.456 2.025-2.456.41 0 .633.1.795.175v-1.309c-1.18.062-3.329.2-5.242.536l-.11-1.408c.483.011.968-.026 5.314-.262-.01-.1-.037-.96-.185-1.746zM534.67 498.765a1.823 1.823 0 0 0-1.143-.448c-.36 0-.769.162-.769.685 0 .773 1.018.985 1.515.985.397 0 .72-.075.894-.124-.037-.325-.087-.724-.497-1.098m2.51-7.654c-.447.36-3.193 2.905-3.59 3.316.385-.138 1.006-.361 1.925-.361 1.776 0 3.49 1.047 3.49 3.153 0 2.644-2.62 3.777-4.559 3.777-1.6 0-2.856-.722-2.856-1.994 0-1.01.857-1.745 2.074-1.745.15 0 2.248 0 2.61 2.144.296-.137 1.452-.636 1.452-2.07 0-1.221-.882-2.181-2.535-2.181-2.085 0-3.377 1.184-5.34 3.24l-1.006-.983c1.23-.861 5.353-4.937 5.887-5.661-1.266.275-3.453.45-4.334.512l-.21-1.31c1.166.05 4.557-.112 6.308-.735zM549.762 491.733c-1.217.475-2.869 1.571-4.049 2.668-.124-.137-.658-.748-.77-.859.173-.125 1.69-1.285 1.851-1.422-.572.038-1.689.137-3.179.137-.87 0-1.33-.038-1.628-.062l-.099-1.359c.621.125 1.627.187 3.278.187.361 0 2.348 0 3.913-.3zm-5.899 4.476c-.21.174-1.49 1.234-1.49 2.02 0 .436.272.635.371.685.832.474 2.535.474 2.895.474 2.546 0 4.061-.436 4.644-.598.125.66.163.91.3 1.358-1.877.462-4.535.486-4.894.486-2.882 0-4.634-.586-4.634-2.294 0-.486.1-1.37 1.89-2.879zM561.581 493.653c-1.739.25-3.49.948-4.819 1.584-1.304.623-2.894 1.633-2.894 2.817 0 1.508 2.646 1.508 3.478 1.508.819 0 2.769-.124 4.173-.636-.05.212-.125.562-.087 1.484-1.23.237-2.931.374-4.049.374-2.198 0-3.069-.36-3.602-.636-.771-.41-1.292-1.159-1.292-2.057 0-1.308.919-2.38 2.745-3.403-.696-.735-.783-1.546-.957-3.24a4.387 4.387 0 0 0-.248-1.16l1.677-.363c-.05.537-.074.85-.074 1.21 0 .898.074 2.182.67 3.004.609-.299 1.466-.66 2-.872.434-.175 2.595-1.01 2.745-1.072zM569.394 497.967c-.16 0-1.292 0-1.292.823 0 .573.672.81 1.132.81.545 0 1.166-.3 1.166-1.034 0-.113-.011-.212-.05-.412a2.234 2.234 0 0 0-.956-.187m2.198-7.48c.125.025.15.076.15.126 0 .162-.173.186-.285.21-.05.4-.1.849-.125 1.796 1.106-.187 1.615-.35 2.087-.5l.013 1.26c-.387.088-1.032.25-2.125.425 0 1.358.1 2.904.187 3.453.434.162 1.664.61 2.607 1.42-.173.263-.446.799-.607 1.136-.832-.774-1.553-1.085-1.875-1.21.06 1.57-1.406 2.032-2.423 2.032-1.317 0-2.187-.885-2.187-1.832 0-1.322 1.355-1.846 2.41-1.846.323 0 .572.038.794.075-.073-.835-.087-1.06-.135-3.066-.77.074-1.478.11-2.038.11-.396 0-.657-.01-.93-.023v-1.297c.371.038.832.075 1.502.075.696 0 1.168-.037 1.44-.062 0-.673.014-1.696.026-2.52zm-6.048.25c.136.049.163.075.163.174 0 .087-.1.175-.337.2-.683 2.468-.683 4.637-.683 5.124 0 .872.05 1.37.1 1.794.135-.261.645-1.47.77-1.72.21.337.397.574.67.848-.236.436-1.043 1.919-1.019 3.465l-1.117.225c-.162-.586-.609-2.206-.609-4.762 0-1.496.162-3.603.696-5.81zM585.243 489.59c.484.424.907.91 1.218 1.27-.249.176-.46.363-.647.625-.434-.586-.633-.848-1.142-1.334zm-.919.997c.261.237.82.81 1.18 1.309a3.105 3.105 0 0 0-.596.61 9.884 9.884 0 0 0-1.205-1.346zm-.645 1.32c-.908.45-2.572 1.647-3.354 2.483a17.243 17.243 0 0 0-.857-.811c.584-.511 1.155-1.01 1.776-1.471a43.16 43.16 0 0 1-3.155.137c-.857 0-1.204-.037-1.503-.075l-.099-1.346c.422.062 1.366.212 2.794.212.323 0 1.938 0 3.714-.3zm-5.13 4.302c-.21.175-1.49 1.235-1.49 2.02 0 .436.272.635.372.685.832.475 2.534.475 2.894.475 2.546 0 4.062-.437 4.645-.6.125.66.162.91.298 1.36-1.876.462-4.534.486-4.893.486-2.882 0-4.634-.586-4.634-2.294 0-.486.1-1.371 1.89-2.88zM595.312 496.209c.198.2.422.437 1.006.86.298-.274.597-.56.857-.86zm-2.708-.872h3.453v-.96h-3.453zm5.627 1.222c.074.049.137.149.137.212 0 .186-.274.136-.348.136-.137.138-.224.225-.87.736.61.362.981.536 1.292.673-.373.225-.57.437-.869.91-1.317-.736-2.298-1.757-2.634-2.131v2.393h-1.13v-2.506a8.63 8.63 0 0 1-2.447 1.957c-.149-.287-.522-.735-.969-.947.46-.175 1.652-.611 2.857-1.783h-1.876v-2.705h5.913v2.568c.062-.062.074-.087.124-.162zm-.298-5.996v.92h-2.882v.637h3.64v.91h-8.385v-.91h3.516v-.636h-2.869v-.921h2.87v-.798l1.315.037c.087 0 .187.037.187.149 0 .125-.162.175-.274.212v.4zm-9.725-.761c.571.398 1.614 1.396 2.037 1.982-.46.424-.51.46-.92.909-.646-.835-1.415-1.52-2.012-1.981zm1.9 4.737v3.603c0 .348.012.934.571 1.32.621.425 1.006.425 3.602.425 1.218 0 3.353 0 4.595-.237-.086.187-.322.673-.459 1.322h-6c-1.279 0-2.272-.3-2.869-1.235-.372.325-1.167.91-1.503 1.135-.01.199-.024.299-.185.299-.1 0-.162-.087-.187-.15l-.558-1.147c.446-.174 1.527-.872 1.714-1.01v-3.141h-1.516v-1.184zM606.965 497.755h1.876v-.511h-1.876zm1.876-1.62h-1.876v.461h1.876zm-3.49 2.592c.112.013.26.013.26.137 0 .088-.099.162-.186.175v.86c0 .262.05.374.373.374h1.39c.448 0 .61-.075.771-.997.248.224.422.299.993.461-.174.711-.335 1.434-1.503 1.434h-2.036c-.932 0-1.144-.437-1.144-1.122v-1.397zm-1.429-.972h1.851v-.511h-1.851zm1.85-1.62h-1.851v.461h1.851zm3.479 2.331h-2.46c.671.499.795.648.92.798-.063.037-.46.336-.721.711-.298-.35-.832-.811-1.131-.999l.547-.51h-3.638v-3.042h7.228v3.042h-.634c.497.374 1.218 1.146 1.702 1.745-.36.274-.609.461-.857.735-.695-.934-.932-1.221-1.764-1.944zm-5.329.411c.099.037.199.075.199.162 0 .1-.037.1-.298.162-.249.623-.745 1.496-1.168 1.995-.298-.337-.782-.486-.981-.549.708-.823 1.081-1.658 1.192-2.169zm6.372-8.427v.798h-4.198v.436h4.869v1.757h-1.292v-.922h-3.254c.024.163-.236.187-.323.2v.337l2.671-.225.074.686-2.745.261c0 .337 0 .573.434.573h1.876c.398 0 .733-.112.869-.959.249.211.659.412 1.019.499-.274.997-.683 1.171-1.614 1.171h-2.448c-1.08 0-1.329-.349-1.341-1.171l-2.335.224-.075-.735 2.41-.212v-.649h-3.018v3.08c0 1.084 0 3.79-1.118 5.721-.335-.249-.832-.424-1.167-.486 1.03-1.67 1.093-3.577 1.093-5.41v-3.74h4.123v-1.908l1.304.075c.199.013.298.038.298.15 0 .137-.174.187-.31.224v.225zM619.622 490.512c.087.062.174.15.174.212 0 .038-.025.125-.149.125-.062 0-.149-.025-.199-.037-.385.36-3.006 2.63-4.732 4.013-.224.175-.559.45-.559.624 0 .2.063.237.646.61.931.599 3.776 2.482 5.279 4.327-.385.349-.447.424-1.006 1.109-1.018-1.496-3.801-3.677-5.391-4.712-1.105-.71-1.217-.797-1.217-1.284 0-.287 0-.424 1.018-1.21.994-.772 3.23-2.517 4.956-4.636zM632.509 490.188c.385.312.932.935 1.205 1.321-.298.2-.36.25-.658.511-.124-.175-.584-.835-1.18-1.37zm-1.205.835c.373.337.845.848 1.205 1.334-.285.15-.422.25-.695.511a12.67 12.67 0 0 0-1.156-1.347zm-3.055 3.477a19.237 19.237 0 0 1 2.844-.21c1.019 0 1.453.074 1.813.124a8.619 8.619 0 0 0-.1 1.271c-.397-.074-.893-.175-1.85-.175-1.117 0-2.248.151-2.707.212zm.459 3.13c-.434.461-.534 1.01-.534 1.172 0 .498.584.81 2.348.81.509 0 1.552-.074 2.645-.41-.024.186-.05.41-.05.684 0 .337.038.5.076.686-1.268.237-2.373.237-2.646.237-.808 0-3.553 0-3.553-1.907 0-.549.187-.998.634-1.695zm-1.093-7.38c.162.038.237.1.237.174 0 .15-.174.175-.237.188a92.537 92.537 0 0 0-.384 1.633c1.403-.212 2.124-.499 2.533-.673l.212 1.283c-.423.125-1.231.374-3.081.636-.782 2.68-1.664 4.925-3.328 7.58-.435-.262-.485-.287-1.255-.649.745-.91 2.223-3.265 3.217-6.744-.92.1-1.416.113-2.633.125l-.113-1.359c.299.025.622.05 1.106.05.833 0 1.553-.063 1.95-.087.249-1.222.298-1.87.36-2.506zM639.585 489.938c.148.848.335 1.347.67 2.207 1.155-.449 2.149-.836 3.105-1.546.448.536.497.586.845.985-.82.561-1.95 1.097-3.428 1.658.845 1.571 2.174 3.092 2.98 3.715l-.844.797c-1.067-.672-2.422-1.02-3.688-1.02-2.062 0-2.496.921-2.496 1.457 0 .997 1.303 1.596 3.179 1.596 1.577 0 2.409-.349 3.005-.599.038.437.162.923.323 1.321-1.527.462-2.92.462-3.266.462-3.18 0-4.596-1.297-4.596-2.73 0-1.11.969-2.58 3.565-2.58a8.18 8.18 0 0 1 2.112.286c-.373-.487-.808-1.06-1.453-2.306-1.864.548-3.566.723-4.696.835l-.41-1.297c2.298-.037 3.8-.436 4.572-.648a33.14 33.14 0 0 1-.908-2.28zM654.099 491.41a12.585 12.585 0 0 1 2.472 6.383c-.2.061-1.032.435-1.367.586-.112-1.97-.596-4.214-2.2-6.283zm-6.36-.25c.174.05.26.075.26.2 0 .15-.161.174-.272.174-.597 1.721-.597 3.441-.597 3.74 0 2.032.77 3.578 1.355 3.578.534 0 1.179-1.595 1.466-2.319.347.412.558.611.906.848-.224.55-1.255 3.13-2.447 3.13-1.02 0-2.56-1.896-2.56-5.436 0-1.509.274-3.005.535-4.326zM658.755 499.313a.99.99 0 0 0 .994.997.99.99 0 0 0 .993-.997.997.997 0 0 0-.993-.997 1 1 0 0 0-.994.997m2.646 0c0 .923-.757 1.658-1.652 1.658a1.662 1.662 0 0 1-1.652-1.658c0-.923.745-1.646 1.652-1.646.906 0 1.652.736 1.652 1.646" fill="#2c292a"/><path stroke-width="1.131" stroke-miterlimit="10" fill="none" stroke="#2c292a" d="M698.445 518.072H407.068v-63.11h291.377z"/><path d="M431.51 407.356v-14.818h8.501v1.577h-6.648v5.013h5.64v1.578h-5.64v6.65zM447.867 405.981c.887 0 1.658-.249 2.316-.748.659-.498 1.169-1.205 1.532-2.122.363-.916.544-1.988.544-3.215 0-1.239-.181-2.308-.544-3.204-.363-.896-.873-1.583-1.532-2.062-.658-.478-1.43-.717-2.316-.717-.873 0-1.642.24-2.307.717-.665.48-1.178 1.166-1.542 2.062-.362.896-.544 1.965-.544 3.204 0 1.227.182 2.3.544 3.215.364.917.877 1.624 1.542 2.122.665.5 1.434.748 2.307.748m0 1.638c-1.236 0-2.327-.314-3.274-.94-.947-.627-1.69-1.519-2.226-2.678-.537-1.16-.806-2.528-.806-4.105 0-1.59.269-2.954.806-4.093.537-1.138 1.279-2.01 2.226-2.618.947-.606 2.038-.91 3.274-.91 1.235 0 2.327.307 3.273.92.948.613 1.69 1.486 2.227 2.618.537 1.132.806 2.493.806 4.083 0 1.577-.27 2.945-.806 4.105-.537 1.16-1.28 2.051-2.227 2.678-.946.626-2.038.94-3.273.94M462.816 405.981c.887 0 1.658-.249 2.316-.748.659-.498 1.169-1.205 1.532-2.122.363-.916.544-1.988.544-3.215 0-1.239-.181-2.308-.544-3.204-.363-.896-.873-1.583-1.532-2.062-.658-.478-1.43-.717-2.316-.717-.873 0-1.642.24-2.307.717-.665.48-1.178 1.166-1.542 2.062-.362.896-.544 1.965-.544 3.204 0 1.227.182 2.3.544 3.215.364.917.877 1.624 1.542 2.122.665.5 1.434.748 2.307.748m0 1.638c-1.236 0-2.327-.314-3.274-.94-.947-.627-1.69-1.519-2.226-2.678-.537-1.16-.806-2.528-.806-4.105 0-1.59.269-2.954.806-4.093.537-1.138 1.279-2.01 2.226-2.618.947-.606 2.038-.91 3.274-.91 1.235 0 2.327.307 3.273.92.948.613 1.69 1.486 2.227 2.618.537 1.132.806 2.493.806 4.083 0 1.577-.27 2.945-.806 4.105-.537 1.16-1.28 2.051-2.227 2.678-.946.626-2.038.94-3.273.94M474.032 405.82h1.672c1.155 0 2.118-.232 2.89-.697.773-.466 1.35-1.143 1.734-2.032.383-.89.574-1.955.574-3.195 0-1.266-.191-2.33-.574-3.193-.383-.862-.961-1.52-1.734-1.972-.772-.45-1.735-.677-2.89-.677h-1.672zm-1.854 1.536v-14.818h3.687c1.518 0 2.794.287 3.828.86a5.494 5.494 0 0 1 2.337 2.496c.523 1.092.786 2.426.786 4.002 0 1.565-.263 2.905-.786 4.024-.523 1.12-1.296 1.97-2.317 2.557-1.021.586-2.277.88-3.767.88zM496.234 407.62a6.285 6.285 0 0 1-2.55-.517 5.738 5.738 0 0 1-2.044-1.505c-.578-.66-1.027-1.466-1.35-2.416-.322-.95-.483-2.025-.483-3.224 0-1.2.164-2.275.493-3.225.33-.95.789-1.756 1.38-2.416a6.034 6.034 0 0 1 2.075-1.515 6.348 6.348 0 0 1 2.599-.527c.9 0 1.692.186 2.378.557.685.37 1.242.792 1.672 1.263l-1.007 1.212a4.875 4.875 0 0 0-1.33-1.01c-.497-.256-1.062-.384-1.692-.384-.927 0-1.74.243-2.438.727-.698.486-1.243 1.177-1.632 2.073-.39.896-.585 1.958-.585 3.183 0 1.254.189 2.335.565 3.245.376.91.906 1.611 1.592 2.103.684.492 1.497.737 2.437.737.698 0 1.326-.147 1.884-.444a5.608 5.608 0 0 0 1.54-1.233l1.029 1.193a6.344 6.344 0 0 1-1.974 1.566c-.74.37-1.592.556-2.56.556M508.464 405.981c.887 0 1.658-.249 2.316-.748.66-.498 1.17-1.205 1.532-2.122.363-.916.544-1.988.544-3.215 0-1.239-.18-2.308-.544-3.204-.363-.896-.873-1.583-1.532-2.062-.658-.478-1.429-.717-2.316-.717-.873 0-1.642.24-2.307.717-.665.48-1.178 1.166-1.542 2.062-.362.896-.544 1.965-.544 3.204 0 1.227.182 2.3.544 3.215.364.917.877 1.624 1.542 2.122.665.5 1.434.748 2.307.748m0 1.638c-1.236 0-2.327-.314-3.274-.94-.947-.627-1.689-1.519-2.226-2.678-.537-1.16-.806-2.528-.806-4.105 0-1.59.27-2.954.806-4.093.537-1.138 1.28-2.01 2.226-2.618.947-.606 2.038-.91 3.274-.91 1.235 0 2.327.307 3.273.92.948.613 1.69 1.486 2.227 2.618.537 1.132.806 2.493.806 4.083 0 1.577-.269 2.945-.806 4.105-.537 1.16-1.279 2.051-2.227 2.678-.946.626-2.038.94-3.273.94M517.828 407.356v-14.818h1.894l5.399 9.34 1.592 3.052h.1a94.202 94.202 0 0 1-.181-2.325 35.5 35.5 0 0 1-.08-2.365v-7.702h1.772v14.818h-1.914l-5.38-9.359-1.591-3.033h-.08c.04.742.087 1.5.14 2.274.055.775.082 1.554.082 2.335v7.783zM535.175 407.356l-4.714-14.818h1.954l2.398 8.026c.255.862.486 1.675.695 2.436.208.761.453 1.58.735 2.456h.08c.283-.876.528-1.695.736-2.456.208-.76.44-1.574.695-2.436l2.377-8.026h1.894l-4.694 14.818zM544.143 407.356v-14.818h8.502v1.577h-6.648v4.65h5.6v1.597h-5.6v5.397h6.87v1.597zM555.61 407.356v-14.818h1.894l5.4 9.34 1.591 3.052h.1a94.202 94.202 0 0 1-.18-2.325 35.5 35.5 0 0 1-.08-2.365v-7.702h1.771v14.818h-1.914l-5.379-9.359-1.592-3.033h-.08c.04.742.087 1.5.141 2.274.054.775.081 1.554.081 2.335v7.783zM573.085 407.356v-13.24h-4.472v-1.578h10.819v1.577h-4.473v13.241zM581.929 392.538h1.854v14.818h-1.854zM593.16 405.981c.886 0 1.657-.249 2.315-.748.66-.498 1.17-1.205 1.532-2.122.363-.916.544-1.988.544-3.215 0-1.239-.18-2.308-.544-3.204-.363-.896-.873-1.583-1.532-2.062-.658-.478-1.429-.717-2.316-.717-.873 0-1.642.24-2.307.717-.665.48-1.178 1.166-1.542 2.062-.362.896-.544 1.965-.544 3.204 0 1.227.182 2.3.544 3.215.364.917.877 1.624 1.542 2.122.665.5 1.434.748 2.307.748m0 1.638c-1.236 0-2.327-.314-3.274-.94-.947-.627-1.689-1.519-2.226-2.678-.537-1.16-.806-2.528-.806-4.105 0-1.59.27-2.954.806-4.093.537-1.138 1.28-2.01 2.226-2.618.947-.606 2.038-.91 3.274-.91 1.235 0 2.327.307 3.273.92.948.613 1.69 1.486 2.227 2.618.537 1.132.806 2.493.806 4.083 0 1.577-.269 2.945-.806 4.105-.537 1.16-1.279 2.051-2.227 2.678-.946.626-2.038.94-3.273.94M602.521 407.356v-14.818h1.894l5.4 9.34 1.591 3.052h.1a94.202 94.202 0 0 1-.18-2.325 35.5 35.5 0 0 1-.08-2.365v-7.702h1.771v14.818h-1.914l-5.379-9.359-1.592-3.033h-.08c.04.742.087 1.5.141 2.274.054.775.081 1.554.081 2.335v7.783zM620.573 407.356v-1.092c1.45-1.44 2.68-2.712 3.687-3.81 1.007-1.099 1.773-2.089 2.296-2.972.524-.883.787-1.715.787-2.496 0-.553-.098-1.04-.293-1.466a2.172 2.172 0 0 0-.897-.99c-.402-.237-.913-.355-1.53-.355-.605 0-1.166.17-1.683.506a6.403 6.403 0 0 0-1.38 1.213l-1.068-1.03c.591-.675 1.23-1.207 1.914-1.598.686-.39 1.498-.587 2.438-.587.886 0 1.65.176 2.287.527.637.35 1.134.841 1.491 1.475.355.634.533 1.374.533 2.224 0 .903-.255 1.82-.766 2.75-.51.93-1.208 1.902-2.094 2.92a119.96 119.96 0 0 1-3.023 3.326c.376-.027.78-.058 1.21-.092.43-.033.832-.05 1.208-.05h4.17v1.597zM636.203 406.123c.564 0 1.058-.209 1.481-.626.423-.418.752-1.072.987-1.961.235-.89.353-2.035.353-3.437 0-1.402-.118-2.54-.353-3.416-.235-.876-.564-1.516-.987-1.92a2.074 2.074 0 0 0-1.48-.607c-.552 0-1.042.202-1.472.607-.429.404-.76 1.044-.997 1.92-.235.876-.352 2.014-.352 3.416 0 1.402.117 2.547.352 3.437.236.889.568 1.543.997 1.961.43.417.92.626 1.471.626m0 1.496c-.953 0-1.772-.289-2.458-.869-.685-.579-1.212-1.429-1.58-2.547-.37-1.119-.555-2.486-.555-4.104 0-1.604.184-2.958.554-4.063.37-1.105.896-1.941 1.581-2.507.686-.566 1.505-.849 2.458-.849.954 0 1.773.283 2.458.849.686.566 1.212 1.402 1.582 2.507.37 1.105.554 2.459.554 4.063 0 1.618-.185 2.985-.554 4.104-.37 1.118-.896 1.968-1.582 2.547-.685.58-1.504.869-2.458.869M642.508 407.356v-1.092c1.45-1.44 2.68-2.712 3.687-3.81 1.007-1.099 1.773-2.089 2.296-2.972.524-.883.787-1.715.787-2.496 0-.553-.098-1.04-.293-1.466a2.172 2.172 0 0 0-.897-.99c-.402-.237-.913-.355-1.531-.355-.604 0-1.165.17-1.682.506a6.403 6.403 0 0 0-1.38 1.213l-1.068-1.03c.59-.675 1.229-1.207 1.914-1.598.686-.39 1.498-.587 2.438-.587.886 0 1.649.176 2.287.527.637.35 1.134.841 1.49 1.475.356.634.534 1.374.534 2.224 0 .903-.255 1.82-.766 2.75-.51.93-1.208 1.902-2.094 2.92a119.96 119.96 0 0 1-3.023 3.326c.376-.027.78-.058 1.209-.092.43-.033.833-.05 1.209-.05h4.17v1.597zM658.477 407.62c-.765 0-1.44-.096-2.024-.284a5.991 5.991 0 0 1-1.532-.728 8.835 8.835 0 0 1-1.178-.95l.926-1.213c.284.283.596.55.938.8.342.248.735.45 1.178.605.443.156.947.233 1.51.233.578 0 1.106-.135 1.582-.404.477-.27.857-.648 1.14-1.132.28-.486.422-1.065.422-1.74 0-1.01-.279-1.794-.836-2.354-.558-.56-1.3-.839-2.226-.839-.483 0-.906.077-1.27.233a7.752 7.752 0 0 0-1.188.657l-.988-.627.483-6.935h7.173v1.598h-5.56l-.383 4.285a4.418 4.418 0 0 1 1.018-.435c.355-.1.754-.15 1.198-.15.82 0 1.564.157 2.236.475a3.694 3.694 0 0 1 1.612 1.475c.404.667.605 1.52.605 2.557 0 1.038-.231 1.921-.695 2.648a4.585 4.585 0 0 1-1.804 1.658 5.06 5.06 0 0 1-2.337.566" fill="#2c292a"/></g></svg>