<?xml version="1.0" encoding="UTF-8" standalone="no"?>
<!DOCTYPE svg PUBLIC "-//W3C//DTD SVG 1.1//EN" "http://www.w3.org/Graphics/SVG/1.1/DTD/svg11.dtd">
<svg xmlns="http://www.w3.org/2000/svg" xmlns:xlink="http://www.w3.org/1999/xlink" version="1.1" width="1653.5444pt" height="2338.5833pt" viewBox="0 0 1653.5444 2338.5833">
<g enable-background="new">
<path transform="matrix(2.7777777,0,0,-2.7777777,0,2338.5833)" d="M 0 0 L 595.275 0 L 595.275 841.89 L 0 841.89 Z " fill="#f8ed37"/>
<path transform="matrix(2.7777777,0,0,-2.7777777,0,2338.5833)" d="M 192.767 621.83 L 185.231 621.83 L 185.231 618.31607 L 192.767 618.31607 Z M 185.23 624.637 L 192.76599 624.637 L 192.76599 627.90408 L 185.23 627.90408 Z M 192.767 615.403 L 185.23 615.403 L 185.23 614.767 L 182.24 614.767 L 182.24 630.799 L 195.827 630.799 L 195.827 614.767 L 192.767 614.767 Z " fill="#2c292a"/>
<clipPath id="cp0">
<path transform="matrix(2.7777777,0,0,-2.7777777,0,2338.5833)" d="M 0 841.89 L 595.276 841.89 L 595.276 0 L 0 0 Z "/>
</clipPath>
<g clip-path="url(#cp0)">
<path transform="matrix(2.7777777,0,0,-2.7777777,534.35806,665.13449)" d="M 0 0 C -1.175 1.553 -1.676 2.525 -1.987 3.125 L -1.987 0 Z M -4.805 0 L -4.805 3.125 C -5.099 2.525 -5.548 1.589 -6.793 0 Z M -7.727 -1.13 C -9.058 -2.56 -9.801 -3.108 -10.181 -3.39 L -11.841 -.424 C -8.539 1.766 -7.018 4.185 -6.015 6.162 L -11.53 6.162 L -11.53 8.987 L -4.805 8.987 L -4.805 11.388 L -1.918 11.388 L -1.918 8.987 L 4.858 8.987 L 4.858 6.162 L -.76 6.162 C .07 4.149 2.282 1.466 5.169 -.406 L 3.474 -3.39 C 2.974 -3.037 2.109 -2.437 .951 -1.147 L .951 -2.719 L -1.987 -2.719 L -1.987 -5.527 L -4.805 -5.527 L -4.805 -2.719 L -7.727 -2.719 Z " fill="#2c292a"/>
<path transform="matrix(2.7777777,0,0,-2.7777777,503.86775,721.3933)" d="M 0 0 C 4.512 1.801 5.532 4.308 5.411 8.899 L 8.557 8.899 C 8.539 8.21 8.522 7.592 8.436 6.745 C 10.579 7.804 11.271 9.358 11.513 9.905 L .035 9.905 L .035 12.889 L 15.333 12.889 C 14.797 8.387 13.103 6.109 10.181 4.308 L 8.366 6.162 C 7.71 .565 4.114 -1.501 1.988 -2.454 Z " fill="#2c292a"/>
<path transform="matrix(2.7777777,0,0,-2.7777777,544.77859,739.10147)" d="M 0 0 C -1.002 -7.557 -3.734 -12.219 -12.636 -13.649 L -13.846 -10.771 C -7.07 -9.888 -4.909 -7.434 -3.768 -2.861 L -8.833 -2.861 C -10.7 -5.262 -12.238 -6.198 -12.982 -6.639 L -14.901 -4.362 C -12.653 -3.073 -10.545 -1.077 -9.3 2.331 L -6.085 1.942 C -6.292 1.377 -6.534 .812 -6.966 0 Z " fill="#2c292a"/>
<path transform="matrix(2.7777777,0,0,-2.7777777,545.8347,790.0141)" d="M 0 0 C -.225 -3.832 -1.486 -6.551 -5.238 -8.511 L -7.053 -6.162 C -5.618 -5.562 -4.563 -4.821 -3.751 -3.249 L -8.626 -3.761 L -8.626 -8.564 C -8.626 -9.499 -8.504 -9.588 -7.295 -9.588 L -3.128 -9.588 C -2.264 -9.588 -1.417 -9.482 -.553 -9.358 L -.553 -12.43 C -1.158 -12.501 -2.42 -12.572 -3.059 -12.572 L -7.986 -12.572 C -11.72 -12.572 -11.72 -10.047 -11.72 -8.917 L -11.72 -4.097 L -14.918 -4.432 L -15.142 -1.378 L -11.72 -1.077 L -11.72 2.683 L -8.626 2.683 L -8.626 -.794 Z " fill="#2c292a"/>
<path transform="matrix(2.7777777,0,0,-2.7777777,503.10029,867.7556)" d="M 0 0 C 4.287 1.801 7.571 5.032 9.248 9.358 L 1.054 9.358 L 1.054 12.289 L 13.276 12.289 C 12.774 9.287 11.91 7.133 10.25 4.644 C 13.293 2.401 14.866 .812 15.817 -.177 L 13.241 -2.737 C 11.581 -.76 9.335 1.483 8.384 2.331 C 5.065 -1.147 2.904 -2.084 1.694 -2.596 Z " fill="#2c292a"/>
<path transform="matrix(2.7777777,0,0,-2.7777777,539.11306,908.81008)" d="M 0 0 C -.052 3.902 -.83 5.756 -1.971 7.486 L .64 8.74 C 2.316 6.286 2.973 3.832 3.146 .565 Z M -6.413 10.258 C -6.517 9.252 -6.62 8.246 -6.776 7.363 L -5.411 7.363 C -2.403 7.363 -1.556 5.368 -1.556 1.818 C -1.556 .053 -1.884 -2.984 -2.783 -4.114 C -3.769 -5.385 -4.961 -5.403 -5.947 -5.403 C -6.88 -5.403 -7.606 -5.333 -8.177 -5.297 L -8.401 -2.207 C -7.571 -2.313 -6.915 -2.402 -6.379 -2.402 C -6.154 -2.402 -5.445 -2.383 -5.203 -1.907 C -4.892 -1.342 -4.478 .476 -4.478 2.26 C -4.478 3.813 -4.667 4.467 -5.878 4.467 L -7.26 4.467 C -7.416 3.655 -8.557 -2.684 -10.251 -5.438 L -13.155 -3.867 C -11.685 -1.466 -10.821 1.377 -10.285 4.432 L -12.619 4.414 L -12.619 7.363 L -9.819 7.363 C -9.646 8.899 -9.611 9.693 -9.577 10.435 Z " fill="#2c292a"/>
<path transform="matrix(2.7777777,0,0,-2.7777777,536.8072,940.5464)" d="M 0 0 C -2.057 .954 -6.516 1.466 -7.831 1.536 L -7.312 4.361 C -6.102 4.344 -2.852 4.273 .726 3.249 Z M -6.793 .688 C -7.07 -.495 -7.156 -1.712 -7.208 -2.913 C -5.687 -1.978 -3.82 -1.483 -2.04 -1.483 C 1.539 -1.483 2.818 -4.043 2.818 -6.145 C 2.818 -11.353 -2.558 -11.618 -6.586 -11.618 C -7.104 -11.618 -8.626 -11.618 -10.13 -11.512 L -10.492 -8.528 C -8.297 -8.74 -6.759 -8.74 -6.378 -8.74 C -1.902 -8.74 -.345 -7.875 -.345 -6.021 C -.345 -4.45 -1.798 -4.185 -2.61 -4.185 C -4.356 -4.185 -6.274 -4.943 -7.294 -6.109 L -7.294 -6.639 L -10.302 -6.515 C -10.25 -1.995 -10.008 -.035 -9.888 .883 Z " fill="#2c292a"/>
<path transform="matrix(2.7777777,0,0,-2.7777777,510.975,1002.593)" d="M 0 0 C 0 -.441 .104 -2.065 1.037 -2.065 C 2.213 -2.065 3.198 1.095 3.561 5.28 C 0 4.097 0 .512 0 0 M 4.356 -3.973 C 5.86 -3.849 9.888 -3.496 9.888 1.236 C 9.888 3.691 8.626 5.209 6.447 5.439 C 6.431 5.138 5.981 -5.456 .916 -5.456 C -1.988 -5.456 -2.921 -2.154 -2.921 .071 C -2.921 5.544 1.158 8.405 5.532 8.405 C 10.527 8.405 13.103 5.209 13.103 1.042 C 13.103 -.423 12.757 -3.108 10.614 -5.014 C 8.954 -6.515 6.258 -6.851 5.428 -6.957 Z " fill="#2c292a"/>
<path transform="matrix(2.7777777,0,0,-2.7777777,477.8861,901.693)" d="M 0 0 C -.156 .318 -.881 1.784 -1.642 2.737 L -.138 3.514 C .519 2.772 1.245 1.501 1.521 .883 Z M -2.385 -1.359 C -2.593 -.901 -3.163 .353 -3.975 1.519 L -2.489 2.313 C -2.264 2.031 -1.435 .954 -.829 -.442 Z M -.691 3.92 C -2.593 3.708 -5.03 2.719 -6.845 1.395 L -9.092 3.09 C -8.487 3.479 -7.969 3.743 -7.329 4.026 C -8.124 3.991 -11.703 3.902 -12.428 3.867 L -12.428 6.939 C -10.562 6.886 -2.368 6.939 -.691 6.939 Z M -8.989 -.529 C -9.351 -.918 -10.06 -1.695 -10.06 -2.736 C -10.06 -4.325 -8.073 -4.502 -5.808 -4.502 C -3.82 -4.502 -1.815 -4.467 .156 -4.238 L .173 -7.398 C -.916 -7.539 -2.229 -7.557 -4.304 -7.557 C -8.038 -7.557 -9.731 -7.416 -11.392 -6.462 C -12.134 -6.039 -13.241 -5.085 -13.241 -3.214 C -13.241 -1.218 -12.134 .106 -11.253 1.06 Z " fill="#2c292a"/>
<path transform="matrix(2.7777777,0,0,-2.7777777,0,2338.5833)" d="M 166.196 502.642 L 170.552 502.642 L 170.552 503.33 L 166.196 503.33 Z M 166.196 504.778 L 170.552 504.778 L 170.552 505.432 L 166.196 505.432 Z M 173.214 500.965 L 163.483 500.965 L 163.483 507.339 L 173.214 507.339 Z M 166.196 497.275 C 166.145 496.763 166.093 496.339 165.989 495.809 C 166.3 495.35 166.629 494.962 167.044 494.644 L 167.044 497.946 L 163.016 497.946 L 163.016 497.84 C 162.67 497.698 162.324 497.575 161.858 497.416 L 161.858 493.108 C 163.275 494.732 163.465 496.833 163.535 497.645 Z M 161.806 492.631 C 161.737 492.048 161.598 491.024 160.458 491.024 L 157.899 491.024 L 157.485 494.043 L 158.747 494.043 C 159.161 494.043 159.161 494.273 159.161 494.556 L 159.161 496.604 C 158.47 496.409 158.072 496.303 157.623 496.198 L 157.363 499.111 C 157.813 499.199 158.279 499.287 159.161 499.499 L 159.161 502.254 L 157.45 502.254 L 157.45 505.043 L 159.161 505.043 L 159.161 507.781 L 161.858 507.781 L 161.858 505.043 L 163.016 505.043 L 163.016 502.254 L 161.858 502.254 L 161.858 500.223 C 162.393 500.382 162.566 500.435 162.981 500.576 L 162.981 500.382 L 173.854 500.382 L 173.854 497.946 L 169.671 497.946 L 169.671 497.045 L 173.232 497.045 L 173.232 495.015 L 169.671 495.015 L 169.671 493.955 L 174.113 493.955 L 173.491 491.166 L 169.412 491.166 C 167.683 491.166 166.265 491.801 165.229 493.231 C 164.71 492.066 164.192 491.395 163.759 490.848 Z " fill="#2c292a"/>
<path transform="matrix(2.7777777,0,0,-2.7777777,474.0458,987.2819)" d="M 0 0 L 0 .688 L -4.028 .688 C -4.097 .548 -4.183 .423 -4.46 0 Z M -5.998 -2.013 C -6.189 -2.225 -6.327 -2.366 -6.586 -2.649 C -5.843 -2.684 -5.393 -2.719 -4.823 -2.79 C -3.993 -2.455 -3.734 -2.26 -3.354 -2.013 Z M -7.727 0 C -7.537 .3 -7.416 .459 -7.277 .688 L -9.853 .688 L -9.853 0 Z M -11.288 -2.013 L -11.288 -1.166 L -12.705 -1.166 L -12.705 2.86 L -6.396 2.86 L -6.396 3.743 L -3.544 3.743 L -3.544 2.86 L 2.87 2.86 L 2.87 -1.166 L 1.4 -1.166 L 1.4 -2.013 L .034 -2.013 C -.294 -2.366 -.657 -2.772 -1.366 -3.337 C .882 -3.761 2.091 -4.15 2.714 -4.344 L .847 -6.427 L 3.232 -6.427 L 3.232 -8.846 L -1.21 -8.846 C 1.02 -9.888 2.8 -10.153 3.544 -10.259 L 2.16 -13.031 C -.484 -12.254 -2.506 -11.088 -3.63 -10.17 L -3.63 -13.084 L -6.396 -13.084 L -6.396 -10.206 C -8.661 -11.83 -10.804 -12.554 -12.083 -12.925 L -13.362 -10.206 C -12.671 -10.1 -10.977 -9.852 -8.695 -8.846 L -13.138 -8.846 L -13.138 -6.427 L -6.396 -6.427 L -6.396 -5.58 L -3.63 -5.58 L -3.63 -6.427 L .329 -6.427 C -1.037 -5.668 -2.766 -5.032 -3.647 -4.715 C -5.791 -5.668 -9.681 -5.897 -11.841 -5.915 L -12.602 -3.69 C -12.256 -3.708 -11.824 -3.726 -11.167 -3.726 C -9.577 -3.726 -8.419 -3.585 -7.831 -3.514 C -9.023 -3.267 -9.594 -3.196 -10.216 -3.125 C -9.905 -2.808 -9.646 -2.543 -9.196 -2.013 Z " fill="#2c292a"/>
<path transform="matrix(2.7777777,0,0,-2.7777777,563.65609,586.3439)" stroke-width="1.429" stroke-linecap="butt" stroke-miterlimit="4" stroke-linejoin="miter" fill="none" stroke="#2c292a" d="M 0 0 L 0 -157.323 "/>
<path transform="matrix(2.7777777,0,0,-2.7777777,665.2819,673.81149)" d="M 0 0 L -2.602 0 L -2.602 -2.071 L -10.534 -2.071 L -10.534 -4.571 L -6.601 -4.571 C -6.975 -8.789 -9.245 -13.415 -11.076 -14.801 L -11.152 -14.857 L -11.152 -17.895 L -10.895 -17.794 C -7.547 -16.438 -4.176 -10.174 -3.778 -4.571 L -2.602 -4.571 L -2.602 -14.284 L -6.58 -14.284 L -6.58 -16.751 L -2.602 -16.751 L -2.602 -19.148 L .186 -19.148 L .186 -16.751 L 4.172 -16.751 L 4.172 -14.284 L .186 -14.284 L .186 -4.571 L 1.352 -4.571 C 1.767 -10.172 5.137 -16.43 8.478 -17.781 L 8.735 -17.883 L 8.735 -14.857 L 8.658 -14.801 C 6.827 -13.413 4.559 -8.784 4.189 -4.571 L 8.118 -4.571 L 8.118 -2.071 L .186 -2.071 L .186 0 Z " fill="#2c292a"/>
<path transform="matrix(2.7777777,0,0,-2.7777777,0,2338.5833)" d="M 222.884 590.441 L 211.70801 590.441 L 211.70801 594.747 L 222.884 594.747 Z M 222.884 583.096 L 211.70801 583.096 L 211.70801 587.985 L 222.884 587.985 Z M 225.535 597.247 L 208.859 597.247 L 208.859 580.639 L 225.721 580.639 L 225.721 597.247 Z " fill="#2c292a"/>
<path transform="matrix(2.7777777,0,0,-2.7777777,744.717,679.4628)" d="M 0 0 L -17.061 0 L -17.061 -2.618 C -17.061 -2.618 -3.136 -2.616 -2.652 -2.616 C -2.744 -5.735 -4.57 -7.692 -7.818 -8.181 C -7.815 -8.074 -7.81 -7.948 -7.81 -7.948 L -7.81 -4.718 L -10.672 -4.718 L -10.672 -7.948 C -10.672 -12.547 -13.513 -13.849 -15.894 -14.139 L -16.114 -14.166 L -16.114 -16.757 L -15.845 -16.737 C -11.597 -16.397 -9.011 -14.404 -8.143 -10.814 C -2.66 -10.272 .252 -7.121 .252 -1.689 L .252 0 Z " fill="#2c292a"/>
<path transform="matrix(2.7777777,0,0,-2.7777777,800.1592,679.4628)" d="M 0 0 L -14.865 0 L -14.865 -1.221 C -14.865 -3.696 -16.068 -5.833 -17.942 -6.661 L -18.091 -6.727 L -18.091 -9.223 L -17.795 -9.164 C -15.342 -8.677 -12.531 -6.422 -12.035 -2.618 C -11.636 -2.618 -3.129 -2.616 -2.651 -2.616 C -2.74 -10.24 -6.766 -14.106 -14.616 -14.106 L -14.865 -14.106 L -14.865 -16.687 L -14.616 -16.687 C -9.052 -16.687 -4.988 -15.168 -2.565 -12.161 C -.667 -9.811 .245 -6.603 .245 -2.364 L .245 0 Z " fill="#2c292a"/>
<path transform="matrix(2.7777777,0,0,-2.7777777,822.01858,673.72079)" d="M 0 0 L -2.616 0 L -2.616 -2.067 L -4.993 -2.067 L -4.993 -4.685 L -2.616 -4.685 L -2.616 -10.337 C -2.616 -13.145 -1.785 -15.298 -.162 -16.738 C 1.354 -18.07 3.538 -18.754 6.317 -18.754 L 11.788 -18.754 L 11.788 -16.173 L 6.625 -16.173 C 2.214 -16.173 .249 -14.315 .249 -10.145 L .249 -4.685 L 9.842 -4.685 C 9.604 -7.489 7.222 -9.205 5.039 -9.63 L 4.836 -9.669 L 4.836 -12.239 L 5.115 -12.205 C 7.43 -11.919 12.802 -10.442 12.802 -2.823 L 12.802 -2.067 L .249 -2.067 L .249 0 Z " fill="#2c292a"/>
<path transform="matrix(2.7777777,0,0,-2.7777777,908.86477,679.4628)" d="M 0 0 L -15.481 0 L -15.481 -2.618 C -15.481 -2.618 -3.41 -2.617 -2.829 -2.617 C -3.36 -5.538 -5.025 -8.431 -7.433 -10.589 C -9.965 -12.861 -12.992 -14.106 -15.959 -14.106 L -16.21 -14.106 L -16.191 -16.687 L -15.943 -16.687 C -11.852 -16.687 -7.605 -14.872 -4.534 -11.818 C -3.219 -13.243 -2.19 -14.873 -1.536 -16.532 L -1.473 -16.693 L 1.719 -16.693 L 1.609 -16.355 C .81 -13.939 -.693 -11.657 -2.742 -9.733 C -.786 -7 .249 -3.74 .249 -.256 L .249 0 Z " fill="#2c292a"/>
<path transform="matrix(2.7777777,0,0,-2.7777777,666.18887,637.8048)" d="M 0 0 C -1.096 -.159 -.943 -1.325 -.83 -1.546 C -.477 -2.25 .325 -2.15 .964 -2.37 C 1.412 -2.524 1.855 -2.753 2.218 -3.08 C 2.647 -3.471 2.982 -3.953 3.284 -4.426 C 3.693 -5.056 3.968 -5.877 4.813 -6.035 C 5.253 -6.131 5.861 -5.907 6.001 -5.309 C 6.342 -3.995 5.02 -3.957 4.378 -3.738 C 3.94 -3.592 3.534 -3.462 3.169 -3.192 C 2.583 -2.751 2.112 -2.172 1.751 -1.545 C 1.505 -1.119 1.558 -1.03 1.241 -.599 C .975 -.252 .671 .031 0 0 M .009 1.792 C .949 1.792 1.871 1.454 2.344 .656 C 2.404 .557 2.474 .465 2.499 .402 C 2.523 .34 2.591 .28 2.652 .383 C 3.074 1.063 3.703 1.791 5.13 1.791 C 6.842 1.791 7.866 .268 7.8 -1.156 C 7.306 -1.156 6.142 -1.154 6.135 -1.154 C 5.987 .602 3.706 .126 4.022 -1.365 C 4.204 -2.233 5.107 -2.214 5.825 -2.393 C 6.759 -2.617 8.168 -3.493 7.712 -5.622 C 7.23 -7.899 4.511 -8.491 2.995 -6.908 C 2.874 -6.778 2.677 -6.518 2.64 -6.428 C 2.622 -6.386 2.557 -6.357 2.53 -6.418 C 1.596 -8.461 -1.776 -8.203 -2.497 -5.822 C -2.601 -5.479 -2.608 -4.942 -2.602 -4.93 C -2.258 -4.93 -.855 -4.929 -.852 -4.933 C -.848 -5.182 -.764 -5.489 -.694 -5.593 C -.461 -5.967 -.203 -6.04 .281 -6.04 C .773 -5.997 1.155 -5.69 1.168 -5.045 C 1.184 -4.263 .599 -3.97 .227 -3.871 C -.646 -3.648 -1.331 -3.604 -1.958 -2.908 C -3.137 -1.641 -2.744 .541 -1.284 1.399 C -.688 1.748 -.232 1.792 .009 1.792 " fill="#006eb8"/>
<path transform="matrix(2.7777777,0,0,-2.7777777,589.8375,649.0578)" d="M 0 0 L .902 1.982 L 1.878 0 Z M 3.492 -3.451 L 5.303 -3.451 L .904 5.92 L -3.487 -3.454 L -1.631 -3.454 L -.834 -1.759 L 2.704 -1.759 Z " fill="#006eb8"/>
<path transform="matrix(2.7777777,0,0,-2.7777777,623.4833,658.2048)" d="M 0 0 C -.704 -.436 -1.592 -.619 -2.472 -.619 C -5.106 -.619 -7.24 1.225 -7.282 4.274 C -7.317 7.084 -5.106 9.16 -2.472 9.135 C -1.288 9.123 -.577 8.857 .158 8.365 C .161 8.364 .17 8.357 .17 8.357 L -.802 6.825 C -.802 6.825 -.839 6.845 -.844 6.848 C -1.308 7.131 -1.901 7.306 -2.472 7.285 C -4.12 7.226 -5.433 5.958 -5.433 4.274 C -5.433 2.572 -4.138 1.196 -2.472 1.196 C -1.911 1.196 -1.362 1.324 -.904 1.609 C -.902 1.611 -.896 1.615 -.896 1.615 C -.896 1.615 .003 .002 0 0 " fill="#006eb8"/>
<path transform="matrix(2.7777777,0,0,-2.7777777,656.82608,638.77359)" d="M 0 0 L 0 1.748 L -5.54 1.748 L -5.54 1.747 L -5.541 1.747 L -5.541 -7.109 L -3.856 -7.109 L -3.856 -7.108 L -.009 -7.108 L -.009 -5.385 L -3.759 -5.385 L -3.759 -3.559 L -.322 -3.559 L -.322 -1.819 L -3.761 -1.819 L -3.761 0 Z " fill="#006eb8"/>
<path transform="matrix(2.7777777,0,0,-2.7777777,639.1875,649.4407)" d="M 0 0 C 0 0 -.691 -.981 -2.404 -.983 C -4.318 -.986 -5.746 .626 -5.746 2.505 C -5.746 4.384 -4.223 6.006 -2.385 5.977 C -1.331 5.961 -.579 5.596 -.027 5.013 C -.025 5.012 -1.108 3.806 -1.112 3.809 C -1.407 4.076 -1.886 4.242 -2.414 4.242 C -3.216 4.242 -4.075 3.47 -4.056 2.482 C -4.035 1.569 -3.289 .742 -2.44 .723 C -1.612 .7 -1.07 1.216 -1.07 1.216 Z " fill="#00a754"/>
<path transform="matrix(2.7777777,0,0,-2.7777777,638.15029,657.8086)" d="M 0 0 C 0 -.182 -1.01 -.586 -2.274 -.586 C -3.521 -.586 -4.547 -.182 -4.547 0 C -4.547 .257 -3.521 .602 -2.274 .602 C -1.01 .602 0 .257 0 0 " fill="#00a754"/>
<path transform="matrix(2.7777777,0,0,-2.7777777,634.603,801.72726)" d="M 0 0 L 9.677 17.874 L 18.614 17.874 L 18.614 -24.654 L 8.999 -24.654 L 8.999 -2.466 L 2.651 -15.163 L -2.897 -15.163 L -9.06 -2.651 L -9.06 -24.654 L -18.675 -24.654 L -18.675 17.874 L -9.738 17.874 Z " fill="#2c292a"/>
<path transform="matrix(2.7777777,0,0,-2.7777777,736.3264,836.1394)" d="M 0 0 L -2.959 0 C -4.438 0 -5.486 -.802 -5.486 -2.836 C -5.486 -4.623 -4.5 -5.609 -2.774 -5.609 C -.432 -5.609 0 -3.76 0 -.925 Z M -4.315 6.533 L 0 6.533 L 0 7.457 C 0 10.478 -.186 11.648 -3.76 11.648 C -6.287 11.648 -6.965 11.094 -7.889 9.553 L -14.115 13.929 C -12.019 17.75 -8.814 19.168 -2.712 19.168 C 4.623 19.168 8.998 16.888 8.998 7.396 L 8.998 -12.266 L 0 -12.266 L 0 -9.738 C -.801 -11.403 -2.281 -12.882 -5.363 -12.882 C -10.047 -12.882 -14.485 -9.677 -14.485 -3.082 C -14.485 3.389 -10.047 6.533 -4.315 6.533 " fill="#2c292a"/>
<path transform="matrix(2.7777777,0,0,-2.7777777,812.1108,811.14419)" d="M 0 0 C -.616 1.109 -1.233 2.28 -2.526 2.28 C -4.252 2.28 -5.054 .431 -5.054 -3.698 L -5.054 -21.264 L -14.299 -21.264 L -14.299 9.554 L -5.301 9.554 L -5.301 7.211 C -4.499 8.567 -3.143 10.169 -.185 10.169 C 2.651 10.169 5.178 8.567 6.657 5.116 Z " fill="#2c292a"/>
<path transform="matrix(2.7777777,0,0,-2.7777777,901.64639,784.6064)" d="M 0 0 L -6.102 -11.403 L 1.479 -30.818 L -8.506 -30.818 L -12.204 -20.093 L -14.484 -24.284 L -14.484 -30.818 L -23.729 -30.818 L -23.729 11.71 L -14.484 11.71 L -14.484 -9.862 L -10.047 0 Z " fill="#2c292a"/>
<path transform="matrix(2.7777777,0,0,-2.7777777,931.54977,816.7941)" d="M 0 0 L 4.376 0 C 4.376 3.267 3.575 4.438 2.219 4.438 C .617 4.438 0 2.712 0 0 M 12.882 -14.546 C 10.848 -18.367 7.828 -19.847 2.958 -19.847 C -5.732 -19.847 -9.307 -13.56 -9.307 -5.917 L -9.307 -1.602 C -9.307 7.951 -4.745 12.203 2.158 12.203 C 10.108 12.203 13.56 7.088 13.56 -2.527 L 13.56 -6.164 L -.061 -6.164 C -.061 -9.615 .185 -12.08 3.144 -12.08 C 5.177 -12.08 5.67 -11.217 6.41 -9.985 Z " fill="#2c292a"/>
<path transform="matrix(2.7777777,0,0,-2.7777777,974.3791,784.6064)" d="M 0 0 L 3.329 0 L 3.329 6.779 L 12.574 6.779 L 12.574 0 L 16.703 0 L 16.703 -7.766 L 12.574 -7.766 L 12.574 -19.292 C 12.574 -21.757 12.944 -22.805 14.916 -22.805 L 16.703 -22.805 L 16.703 -30.818 L 13.437 -30.818 C 6.965 -30.818 3.329 -29.153 3.329 -20.463 L 3.329 -7.766 L 0 -7.766 Z " fill="#2c292a"/>
<path transform="matrix(2.7777777,0,0,-2.7777777,0,2338.5833)" d="M 371.103 559.432 L 380.348 559.432 L 380.348 528.614 L 371.103 528.614 Z M 371.103 571.142 L 380.348 571.142 L 380.348 562.513 L 371.103 562.513 Z " fill="#2c292a"/>
<path transform="matrix(2.7777777,0,0,-2.7777777,1068.6057,784.6064)" d="M 0 0 L 8.937 0 L 8.937 -2.158 C 9.985 -.863 11.895 .616 15.039 .616 C 19.415 .616 23.914 -2.096 23.914 -11.464 L 23.914 -30.818 L 14.669 -30.818 L 14.669 -13.252 C 14.669 -9.122 14.546 -7.273 12.204 -7.273 C 9.738 -7.273 9.245 -9.245 9.245 -13.19 L 9.245 -30.818 L 0 -30.818 Z " fill="#2c292a"/>
<path transform="matrix(2.7777777,0,0,-2.7777777,1169.6972,831.34579)" d="M 0 0 C 0 -4.561 .37 -6.841 2.773 -6.841 C 5.177 -6.841 5.548 -4.561 5.548 0 L 5.548 2.835 C 5.548 7.396 5.177 9.676 2.773 9.676 C .37 9.676 0 7.396 0 2.835 Z M -9.245 3.636 C -9.245 12.635 -5.054 17.442 .74 17.442 C 3.144 17.442 4.623 16.518 5.548 15.285 L 5.548 16.826 L 14.792 16.826 L 14.792 -13.375 C 14.792 -24.469 8.937 -26.071 2.651 -26.071 C -2.465 -26.071 -6.04 -24.962 -8.813 -20.586 L -2.773 -15.902 C -1.664 -17.566 -.37 -18.429 1.295 -18.429 C 4.623 -18.429 5.548 -17.566 5.548 -13.745 L 5.548 -13.252 C 4.438 -14.176 3.082 -14.608 1.11 -14.608 C -5.423 -14.608 -9.245 -9.554 -9.245 -.678 Z " fill="#2c292a"/>
<path transform="matrix(2.7777777,0,0,-2.7777777,648.8136,1022.6455)" d="M 0 0 L -23.544 0 L -23.544 6.04 L -11.772 22.373 C -9.861 25.024 -9.245 27.736 -9.245 30.386 C -9.245 33.344 -10.539 34.762 -12.388 34.762 C -14.299 34.762 -15.224 33.221 -15.47 30.386 L -24.284 30.386 C -24.284 37.782 -18.675 43.145 -11.71 43.145 C -4.438 43.145 .924 37.412 .924 30.448 C .924 24.715 -2.65 19.969 -4.869 16.641 L -10.17 8.506 L 0 8.506 Z " fill="#2c292a"/>
<path transform="matrix(2.7777777,0,0,-2.7777777,690.17227,943.2047)" d="M 0 0 L 0 -14.669 C 0 -18.429 .431 -20.709 3.636 -20.709 C 6.842 -20.709 7.273 -18.429 7.273 -14.669 L 7.273 0 C 7.273 3.76 6.842 6.04 3.636 6.04 C .431 6.04 0 3.76 0 0 M -10.232 -15.039 L -10.232 .37 C -10.232 11.341 -3.76 14.546 3.636 14.546 C 11.032 14.546 17.504 11.341 17.504 .37 L 17.504 -15.039 C 17.504 -26.01 11.032 -29.215 3.636 -29.215 C -3.76 -29.215 -10.232 -26.01 -10.232 -15.039 " fill="#2c292a"/>
<path transform="matrix(2.7777777,0,0,-2.7777777,816.2435,1022.6455)" d="M 0 0 L -23.544 0 L -23.544 6.04 L -11.772 22.373 C -9.861 25.024 -9.245 27.736 -9.245 30.386 C -9.245 33.344 -10.539 34.762 -12.388 34.762 C -14.299 34.762 -15.224 33.221 -15.47 30.386 L -24.284 30.386 C -24.284 37.782 -18.675 43.145 -11.71 43.145 C -4.438 43.145 .924 37.412 .924 30.448 C .924 24.715 -2.65 19.969 -4.869 16.641 L -10.17 8.506 L 0 8.506 Z " fill="#2c292a"/>
<path transform="matrix(2.7777777,0,0,-2.7777777,857.8775,972.8233)" d="M 0 0 L -9.184 0 L -9.184 24.592 L 13.683 24.592 L 13.683 15.593 L .863 15.593 L .863 10.169 C 1.787 11.032 2.897 12.141 5.609 12.141 C 10.601 12.141 15.162 7.581 15.162 -2.897 C 15.162 -13.683 11.094 -18.553 2.835 -18.553 C -3.883 -18.553 -9.738 -14.793 -10.478 -6.534 L -.37 -6.534 C .061 -8.752 .616 -10.047 2.527 -10.047 C 4.191 -10.047 4.931 -7.766 4.931 -3.514 C 4.931 .986 4.314 3.143 2.527 3.143 C 1.109 3.143 .555 2.033 0 0 " fill="#2c292a"/>
<path transform="matrix(2.7777777,0,0,-2.7777777,1653.5432,1291.5499)" d="M 0 0 L -288.652 0 L -595.276 0 L -595.276 88.026 L -288.652 88.026 L 0 88.026 L 0 44.013 Z " fill="#ffffff"/>
<path transform="matrix(2.7777777,0,0,-2.7777777,847.1358,1126.9751)" stroke-width="3.571" stroke-linecap="round" stroke-linejoin="round" fill="none" stroke="#2c292a" d="M 0 0 C 2.375 -1.636 3.589 -2.586 4.539 -3.325 C 8.129 -1.636 9.237 -.845 10.398 0 L 0 0 Z M -1.689 -9.185 C -2.164 -8.763 -5.121 -6.281 -9.976 -3.273 L -4.962 0 L -17.947 0 L -17.947 8.023 L 24.808 8.023 L 24.808 -.053 C 20.48 -3.59 15.413 -6.018 10.293 -8.288 C 10.61 -8.604 10.873 -8.868 11.19 -9.185 L 28.451 -9.185 L 28.451 -17.366 C 24.491 -23.225 22.222 -25.284 16.31 -30.668 L 9.712 -24.07 C 14.146 -21.167 16.152 -18.739 17.208 -17.366 L 8.182 -17.366 L 8.182 -35.313 C 8.182 -37.583 7.759 -40.75 1.952 -40.75 L -9.607 -40.75 L -11.771 -31.724 L -3.22 -31.724 C -1.109 -31.724 -1.109 -31.565 -1.109 -29.876 L -1.109 -17.366 L -21.695 -17.366 L -21.695 -9.185 L -1.689 -9.185 Z "/>
<path transform="matrix(2.7777777,0,0,-2.7777777,1054.6303,1100.5825)" stroke-width="3.571" stroke-linecap="round" stroke-linejoin="round" fill="none" stroke="#2c292a" d="M 0 0 L 7.601 0 L 7.601 -45.87 C 7.601 -49.09 5.437 -50.145 2.85 -50.145 L -6.123 -50.145 L -7.759 -41.489 L -1.478 -41.489 C -.792 -41.489 0 -41.33 0 -40.222 L 0 0 Z M -8.815 -2.798 L -1.8469997 -2.798 L -1.8469997 -38.797 L -8.815 -38.797 Z M -21.641 -30.14 L -17.999 -30.14 L -17.999 -26.973 L -21.641 -26.973 Z M -21.641 -20.85 L -17.999 -20.85 L -17.999 -17.788 L -21.641 -17.788 Z M -21.641 -11.982 L -17.999 -11.982 L -17.999 -8.973001 L -21.641 -8.973001 Z M -37.266 -13.091 C -35.894 -13.829 -31.724 -16.205 -28.926 -18.739 L -33.782 -25.337 C -36.949 -22.434 -41.014 -19.9 -41.911 -19.319 L -37.266 -13.091 Z M -32.409 -45.131 C -30.034 -42.914 -27.554 -38.427 -27.131 -37.583 L -28.767 -37.583 L -28.767 -31.143 C -29.506 -33.993 -32.937 -44.233 -36.316 -49.723 L -42.386 -42.861 C -38.374 -36.527 -35.629 -27.765 -35.26 -26.657 L -28.767 -30.774 L -28.767 -6.387 L -32.884 -11.982 C -34.204 -10.874 -36.791 -8.763 -41.383 -6.387 L -36.791 -.106 C -33.729 -1.636 -31.249 -2.903 -28.767 -4.645 L -28.767 -1.108 L -10.715 -1.108 L -10.715 -37.583 L -13.46 -37.583 C -13.354 -37.741 -9.976 -42.122 -8.181 -45.975 L -15.043 -50.04 C -15.571 -48.298 -16.68 -45.025 -19.372 -40.486 L -14.674 -37.583 L -24.967 -37.583 L -20.48 -40.328 C -21.114 -41.911 -22.644 -45.87 -26.392 -50.409 L -32.409 -45.131 Z "/>
<path transform="matrix(2.7777777,0,0,-2.7777777,847.1358,1126.9751)" d="M 0 0 C 2.375 -1.636 3.589 -2.586 4.539 -3.325 C 8.129 -1.636 9.237 -.845 10.398 0 Z M -1.689 -9.185 C -2.164 -8.763 -5.121 -6.281 -9.976 -3.273 L -4.962 0 L -17.947 0 L -17.947 8.023 L 24.808 8.023 L 24.808 -.053 C 20.48 -3.59 15.413 -6.018 10.293 -8.288 C 10.61 -8.604 10.873 -8.868 11.19 -9.185 L 28.451 -9.185 L 28.451 -17.366 C 24.491 -23.225 22.222 -25.284 16.31 -30.668 L 9.712 -24.07 C 14.146 -21.167 16.152 -18.739 17.208 -17.366 L 8.182 -17.366 L 8.182 -35.313 C 8.182 -37.583 7.759 -40.75 1.952 -40.75 L -9.607 -40.75 L -11.771 -31.724 L -3.22 -31.724 C -1.109 -31.724 -1.109 -31.565 -1.109 -29.876 L -1.109 -17.366 L -21.695 -17.366 L -21.695 -9.185 Z " fill="#2c292a"/>
<path transform="matrix(2.7777777,0,0,-2.7777777,1054.6303,1100.5825)" d="M 0 0 L 7.601 0 L 7.601 -45.87 C 7.601 -49.09 5.437 -50.145 2.85 -50.145 L -6.123 -50.145 L -7.759 -41.489 L -1.478 -41.489 C -.792 -41.489 0 -41.33 0 -40.222 Z M -8.815 -2.798 L -1.8469997 -2.798 L -1.8469997 -38.797 L -8.815 -38.797 Z M -21.641 -30.14 L -17.999 -30.14 L -17.999 -26.973 L -21.641 -26.973 Z M -21.641 -20.85 L -17.999 -20.85 L -17.999 -17.788 L -21.641 -17.788 Z M -21.641 -11.982 L -17.999 -11.982 L -17.999 -8.973001 L -21.641 -8.973001 Z M -37.266 -13.091 C -35.894 -13.829 -31.724 -16.205 -28.926 -18.739 L -33.782 -25.337 C -36.949 -22.434 -41.014 -19.9 -41.911 -19.319 Z M -32.409 -45.131 C -30.034 -42.914 -27.554 -38.427 -27.131 -37.583 L -28.767 -37.583 L -28.767 -31.143 C -29.506 -33.993 -32.937 -44.233 -36.316 -49.723 L -42.386 -42.861 C -38.374 -36.527 -35.629 -27.765 -35.26 -26.657 L -28.767 -30.774 L -28.767 -6.387 L -32.884 -11.982 C -34.204 -10.874 -36.791 -8.763 -41.383 -6.387 L -36.791 -.106 C -33.729 -1.636 -31.249 -2.903 -28.767 -4.645 L -28.767 -1.108 L -10.715 -1.108 L -10.715 -37.583 L -13.46 -37.583 C -13.354 -37.741 -9.976 -42.122 -8.181 -45.975 L -15.043 -50.04 C -15.571 -48.298 -16.68 -45.025 -19.372 -40.486 L -14.674 -37.583 L -24.967 -37.583 L -20.48 -40.328 C -21.114 -41.911 -22.644 -45.87 -26.392 -50.409 Z " fill="#2c292a"/>
<path transform="matrix(2.7777777,0,0,-2.7777777,847.1358,1126.9751)" d="M 0 0 C 2.375 -1.636 3.589 -2.586 4.539 -3.325 C 8.129 -1.636 9.237 -.845 10.398 0 Z M -1.689 -9.185 C -2.164 -8.763 -5.121 -6.281 -9.976 -3.273 L -4.962 0 L -17.947 0 L -17.947 8.023 L 24.808 8.023 L 24.808 -.053 C 20.48 -3.59 15.413 -6.018 10.293 -8.288 C 10.61 -8.604 10.873 -8.868 11.19 -9.185 L 28.451 -9.185 L 28.451 -17.366 C 24.491 -23.225 22.222 -25.284 16.31 -30.668 L 9.712 -24.07 C 14.146 -21.167 16.152 -18.739 17.208 -17.366 L 8.182 -17.366 L 8.182 -35.313 C 8.182 -37.583 7.759 -40.75 1.952 -40.75 L -9.607 -40.75 L -11.771 -31.724 L -3.22 -31.724 C -1.109 -31.724 -1.109 -31.565 -1.109 -29.876 L -1.109 -17.366 L -21.695 -17.366 L -21.695 -9.185 Z " fill="#ffffff"/>
<path transform="matrix(2.7777777,0,0,-2.7777777,1054.6303,1100.5825)" d="M 0 0 L 7.601 0 L 7.601 -45.87 C 7.601 -49.09 5.437 -50.145 2.85 -50.145 L -6.123 -50.145 L -7.759 -41.489 L -1.478 -41.489 C -.792 -41.489 0 -41.33 0 -40.222 Z M -8.815 -2.798 L -1.8469997 -2.798 L -1.8469997 -38.797 L -8.815 -38.797 Z M -21.641 -30.14 L -17.999 -30.14 L -17.999 -26.973 L -21.641 -26.973 Z M -21.641 -20.85 L -17.999 -20.85 L -17.999 -17.788 L -21.641 -17.788 Z M -21.641 -11.982 L -17.999 -11.982 L -17.999 -8.973001 L -21.641 -8.973001 Z M -37.266 -13.091 C -35.894 -13.829 -31.724 -16.205 -28.926 -18.739 L -33.782 -25.337 C -36.949 -22.434 -41.014 -19.9 -41.911 -19.319 Z M -32.409 -45.131 C -30.034 -42.914 -27.554 -38.427 -27.131 -37.583 L -28.767 -37.583 L -28.767 -31.143 C -29.506 -33.993 -32.937 -44.233 -36.316 -49.723 L -42.386 -42.861 C -38.374 -36.527 -35.629 -27.765 -35.26 -26.657 L -28.767 -30.774 L -28.767 -6.387 L -32.884 -11.982 C -34.204 -10.874 -36.791 -8.763 -41.383 -6.387 L -36.791 -.106 C -33.729 -1.636 -31.249 -2.903 -28.767 -4.645 L -28.767 -1.108 L -10.715 -1.108 L -10.715 -37.583 L -13.46 -37.583 C -13.354 -37.741 -9.976 -42.122 -8.181 -45.975 L -15.043 -50.04 C -15.571 -48.298 -16.68 -45.025 -19.372 -40.486 L -14.674 -37.583 L -24.967 -37.583 L -20.48 -40.328 C -21.114 -41.911 -22.644 -45.87 -26.392 -50.409 Z " fill="#ffffff"/>
<path transform="matrix(2.7777777,0,0,-2.7777777,847.1358,1126.9751)" stroke-width=".714" stroke-linecap="round" stroke-linejoin="round" fill="none" stroke="#2c292a" d="M 0 0 C 2.375 -1.636 3.589 -2.586 4.539 -3.325 C 8.129 -1.636 9.237 -.845 10.398 0 L 0 0 Z M -1.689 -9.185 C -2.164 -8.763 -5.121 -6.281 -9.976 -3.273 L -4.962 0 L -17.947 0 L -17.947 8.023 L 24.808 8.023 L 24.808 -.053 C 20.48 -3.59 15.413 -6.018 10.293 -8.288 C 10.61 -8.604 10.873 -8.868 11.19 -9.185 L 28.451 -9.185 L 28.451 -17.366 C 24.491 -23.225 22.222 -25.284 16.31 -30.668 L 9.712 -24.07 C 14.146 -21.167 16.152 -18.739 17.208 -17.366 L 8.182 -17.366 L 8.182 -35.313 C 8.182 -37.583 7.759 -40.75 1.952 -40.75 L -9.607 -40.75 L -11.771 -31.724 L -3.22 -31.724 C -1.109 -31.724 -1.109 -31.565 -1.109 -29.876 L -1.109 -17.366 L -21.695 -17.366 L -21.695 -9.185 L -1.689 -9.185 Z "/>
<path transform="matrix(2.7777777,0,0,-2.7777777,1054.6303,1100.5825)" stroke-width=".714" stroke-linecap="round" stroke-linejoin="round" fill="none" stroke="#2c292a" d="M 0 0 L 7.601 0 L 7.601 -45.87 C 7.601 -49.09 5.437 -50.145 2.85 -50.145 L -6.123 -50.145 L -7.759 -41.489 L -1.478 -41.489 C -.792 -41.489 0 -41.33 0 -40.222 L 0 0 Z M -8.815 -2.798 L -1.8469997 -2.798 L -1.8469997 -38.797 L -8.815 -38.797 Z M -21.641 -30.14 L -17.999 -30.14 L -17.999 -26.973 L -21.641 -26.973 Z M -21.641 -20.85 L -17.999 -20.85 L -17.999 -17.788 L -21.641 -17.788 Z M -21.641 -11.982 L -17.999 -11.982 L -17.999 -8.973001 L -21.641 -8.973001 Z M -37.266 -13.091 C -35.894 -13.829 -31.724 -16.205 -28.926 -18.739 L -33.782 -25.337 C -36.949 -22.434 -41.014 -19.9 -41.911 -19.319 L -37.266 -13.091 Z M -32.409 -45.131 C -30.034 -42.914 -27.554 -38.427 -27.131 -37.583 L -28.767 -37.583 L -28.767 -31.143 C -29.506 -33.993 -32.937 -44.233 -36.316 -49.723 L -42.386 -42.861 C -38.374 -36.527 -35.629 -27.765 -35.26 -26.657 L -28.767 -30.774 L -28.767 -6.387 L -32.884 -11.982 C -34.204 -10.874 -36.791 -8.763 -41.383 -6.387 L -36.791 -.106 C -33.729 -1.636 -31.249 -2.903 -28.767 -4.645 L -28.767 -1.108 L -10.715 -1.108 L -10.715 -37.583 L -13.46 -37.583 C -13.354 -37.741 -9.976 -42.122 -8.181 -45.975 L -15.043 -50.04 C -15.571 -48.298 -16.68 -45.025 -19.372 -40.486 L -14.674 -37.583 L -24.967 -37.583 L -20.48 -40.328 C -21.114 -41.911 -22.644 -45.87 -26.392 -50.409 L -32.409 -45.131 Z "/>
<path transform="matrix(2.7777777,0,0,-2.7777777,433.2111,1096.6317)" d="M 0 0 L 0 -9.262 L -11.674 -9.262 L -11.674 -53.703 L -22.57 -53.703 L -22.57 -9.262 L -34.245 -9.262 L -34.245 0 Z " fill="#2c292a"/>
<path transform="matrix(2.7777777,0,0,-2.7777777,477.6775,1167.76)" d="M 0 0 C -.778 1.479 -1.712 2.958 -3.735 2.958 C -6.46 2.958 -7.939 .233 -7.939 -5.215 L -7.939 -28.097 L -17.901 -28.097 L -17.901 10.818 L -8.172 10.818 L -8.172 7.783 C -7.005 9.573 -5.059 11.519 -1.401 11.519 C 2.257 11.519 5.449 9.495 7.472 5.37 Z " fill="#2c292a"/>
<path transform="matrix(2.7777777,0,0,-2.7777777,528.48196,1179.002)" d="M 0 0 L 7.783 0 C 7.55 4.981 6.46 7.16 3.97 7.16 C 1.245 7.16 .312 4.436 0 0 M 17.201 -17.979 C 14.943 -22.727 11.441 -24.75 4.904 -24.75 C -5.215 -24.75 -9.962 -17.201 -9.962 -7.161 L -9.962 -1.868 C -9.962 9.884 -4.514 15.566 3.892 15.566 C 13.309 15.566 17.824 9.184 17.824 -2.646 L 17.824 -7.083 L 0 -7.083 C .156 -12.298 .7 -16.345 4.981 -16.345 C 8.094 -16.345 8.873 -15.255 10.04 -13.075 Z " fill="#2c292a"/>
<path transform="matrix(2.7777777,0,0,-2.7777777,590.09469,1137.7092)" d="M 0 0 L 9.729 0 L 9.729 -3.035 C 10.896 -1.168 13.154 .7 17.356 .7 C 22.96 .7 28.72 -3.035 28.72 -14.554 L 28.72 -38.915 L 18.758 -38.915 L 18.758 -16.111 C 18.758 -10.04 17.824 -7.861 14.711 -7.861 C 11.208 -7.861 9.962 -10.896 9.962 -16.033 L 9.962 -38.915 L 0 -38.915 Z " fill="#2c292a"/>
<path transform="matrix(2.7777777,0,0,-2.7777777,734.5736,1197.5955)" d="M 0 0 L 0 4.747 C 0 10.429 -1.09 13.854 -4.592 13.854 C -8.172 13.854 -9.106 10.429 -9.106 4.203 L -9.106 .156 C -9.106 -5.449 -8.639 -9.651 -4.592 -9.651 C -.389 -9.651 0 -5.449 0 0 M 0 36.347 L 9.962 36.347 L 9.962 -17.356 L 0 -17.356 L 0 -15.255 C -1.557 -17.201 -3.347 -18.057 -6.383 -18.057 C -14.321 -18.057 -19.069 -11.13 -19.069 -.467 L -19.069 4.826 C -19.069 16.5 -13.543 22.259 -6.383 22.259 C -3.736 22.259 -1.479 21.248 0 19.457 Z " fill="#2c292a"/>
<path transform="matrix(2.7777777,0,0,-2.7777777,1105.6632,1138.7383)" d="M 0 0 C 2.337 .581 5.769 1.687 6.669 8.014 L 8.14 7.718 C 7.125 3.283 5.734 .239 .707 -1.129 Z M .958 3.979 C .809 4.298 .045 5.871 -.992 7.056 L .126 7.718 C 1.049 6.703 1.505 6.065 2.212 4.708 Z " fill="#2c292a"/>
<path transform="matrix(2.7777777,0,0,-2.7777777,1154.1155,1127.6239)" d="M 0 0 C 0 -4.56 -2.713 -5.084 -6.053 -5.438 L -6.475 -4.184 C -4.822 -4.081 -3.728 -3.887 -2.736 -3.386 C -1.413 -2.713 -1.345 -1.037 -1.345 -.604 L -1.345 4.332 L 0 4.332 Z M -5.757 -2.063 L -7.08 -2.063 L -7.08 4.1280004 L -5.757 4.1280004 Z " fill="#2c292a"/>
<path transform="matrix(2.7777777,0,0,-2.7777777,1178.0764,1122.8419)" d="M 0 0 C -.16 -2.622 -.285 -3.808 -.49 -5.255 L 1.505 -5.255 L 1.505 -6.373 L -6.521 -6.373 L -6.521 -5.255 L -1.745 -5.255 C -1.47 -3.774 -1.334 -1.391 -1.323 -1.242 L -5.529 -1.242 L -5.529 0 Z " fill="#2c292a"/>
<path transform="matrix(2.7777777,0,0,-2.7777777,0,2338.5833)" d="M 436.748 434.976 L 426.625 434.976 L 426.625 436.35603 L 436.748 436.35603 Z " fill="#2c292a"/>
<path transform="matrix(2.7777777,0,0,-2.7777777,1228.7044,1122.5573)" d="M 0 0 C -1.391 .776 -2.942 1.209 -3.306 1.311 L -2.713 2.44 C -2.326 2.337 -.866 1.984 .581 1.175 Z M -3.546 -5.381 C .752 -5.164 2.759 -3.625 4.207 .81 L 5.449 .262 C 4.058 -3.636 2.109 -6.327 -3.227 -6.749 Z M -.969 -2.542 C -2.463 -1.801 -2.497 -1.778 -4.162 -1.242 L -3.569 -.091 C -3.021 -.228 -1.608 -.627 -.377 -1.345 Z " fill="#2c292a"/>
<path transform="matrix(2.7777777,0,0,-2.7777777,1267.4491,1122.2722)" d="M 0 0 L 0 -6.795 L -6.418 -6.795 L -6.418 -5.654 L -1.219 -5.654 L -1.219 -3.864 L -6.19 -3.864 L -6.19 -2.736 L -1.219 -2.736 L -1.219 -1.117 L -6.281 -1.117 L -6.281 0 Z " fill="#2c292a"/>
<path transform="matrix(2.7777777,0,0,-2.7777777,1274.473,1137.6298)" d="M 0 0 C 4.264 .308 6.738 1.949 8.322 6.795 L 9.611 6.213 C 7.935 1.345 5.472 -.81 .422 -1.437 Z M 3.329 4.708 C 2.474 5.336 1.06 6.03 -.114 6.384 L .502 7.501 C 1.505 7.216 2.496 6.885 4.036 5.94 Z " fill="#2c292a"/>
<path transform="matrix(2.7777777,0,0,-2.7777777,1133.9295,1198.4209)" d="M 0 0 L .855 4.786 L -3.105 4.786 L -3.96 0 Z M -4.872 8.661 L -3.989 13.618 L -1.538 13.618 L -2.422 8.661 L 1.539 8.661 L 2.422 13.618 L 4.872 13.618 L 3.989 8.661 L 7.863 8.661 L 7.863 4.786 L 3.305 4.786 L 2.45 0 L 6.04 0 L 6.04 -3.875 L 1.766 -3.875 L .883 -8.832 L -1.567 -8.832 L -.684 -3.875 L -4.644 -3.875 L -5.527 -8.832 L -7.977 -8.832 L -7.094 -3.875 L -10.969 -3.875 L -10.969 0 L -6.41 0 L -5.555 4.786 L -9.117 4.786 L -9.117 8.661 Z " fill="#2c292a"/>
<path transform="matrix(2.7777777,0,0,-2.7777777,1193.4183,1160.5925)" d="M 0 0 L 0 -22.45 L -4.701 -22.45 L -4.701 -4.274 L -9.259 -4.274 L -9.259 0 Z " fill="#2c292a"/>
<path transform="matrix(2.7777777,0,0,-2.7777777,1099.5769,1097.742)" stroke-width="1.429" stroke-linecap="butt" stroke-miterlimit="10" stroke-linejoin="miter" fill="none" stroke="#2c292a" d="M 0 0 L 77.717 0 "/>
<path transform="matrix(2.7777777,0,0,-2.7777777,1099.5769,1240.8417)" stroke-width="1.429" stroke-linecap="butt" stroke-miterlimit="10" stroke-linejoin="miter" fill="none" stroke="#2c292a" d="M 0 0 L 77.717 0 "/>
</g>
</g>
</svg>
