<?xml version="1.0" encoding="UTF-8" standalone="no"?>
<!DOCTYPE svg PUBLIC "-//W3C//DTD SVG 1.1//EN" "http://www.w3.org/Graphics/SVG/1.1/DTD/svg11.dtd">
<svg xmlns="http://www.w3.org/2000/svg" xmlns:xlink="http://www.w3.org/1999/xlink" version="1.1" width="1653.5444pt" height="2338.5833pt" viewBox="0 0 1653.5444 2338.5833">
<g enable-background="new">
<path transform="matrix(2.7777777,0,0,-2.7777777,0,2338.5833)" d="M 0 0 L 595.275 0 L 595.275 841.89 L 0 841.89 Z " fill="#f8ed37"/>
<clipPath id="cp0">
<path transform="matrix(2.7777777,0,0,-2.7777777,0,2338.5833)" d="M 0 841.89 L 595.276 841.89 L 595.276 0 L 0 0 Z "/>
</clipPath>
<g clip-path="url(#cp0)">
<path transform="matrix(2.7777777,0,0,-2.7777777,659.89639,979.31448)" d="M 0 0 L 2.399 0 C 3.252 -11.322 10.187 -23.971 17.062 -26.702 L 17.59 -26.909 L 17.59 -20.791 L 17.433 -20.679 C 13.664 -17.873 8.999 -8.515 8.237 0 L 16.32 0 L 16.32 5.054 L 0 5.054 L 0 9.241 L -5.738 9.241 L -5.738 5.054 L -22.06 5.054 L -22.06 0 L -13.967 0 C -14.737 -8.526 -19.408 -17.877 -23.175 -20.679 L -23.333 -20.791 L -23.333 -26.932 L -22.803 -26.728 C -15.913 -23.987 -8.977 -11.325 -8.158 0 L -5.738 0 L -5.738 -19.632 L -13.923 -19.632 L -13.923 -24.62 L -5.738 -24.62 L -5.738 -29.466 L 0 -29.466 L 0 -24.62 L 8.2 -24.62 L 8.2 -19.632 L 0 -19.632 Z " fill="#2c292a"/>
<path transform="matrix(2.7777777,0,0,-2.7777777,0,2338.5833)" d="M 202.984 480.633 L 179.987 480.633 L 179.987 489.337 L 202.984 489.337 Z M 202.984 465.786 L 179.987 465.786 L 179.987 475.668 L 202.984 475.668 Z M 174.123 460.82 L 208.822 460.82 L 208.822 494.39 L 174.123 494.39 Z " fill="#2c292a"/>
<path transform="matrix(2.7777777,0,0,-2.7777777,807.12808,979.7575)" d="M 0 0 C -.189 -6.304 -3.946 -10.261 -10.63 -11.249 C -10.623 -11.033 -10.614 -10.779 -10.614 -10.779 L -10.614 -4.249 L -16.503 -4.249 L -16.503 -10.779 C -16.503 -20.076 -22.348 -22.708 -27.248 -23.294 L -27.701 -23.348 L -27.701 -28.585 L -27.147 -28.544 C -18.407 -27.858 -13.085 -23.83 -11.3 -16.571 C -.016 -15.477 5.976 -9.108 5.976 1.873 L 5.976 5.288 L -29.651 5.288 L -29.651 -.004 Z " fill="#2c292a"/>
<path transform="matrix(2.7777777,0,0,-2.7777777,921.2205,979.7575)" d="M 0 0 C -.182 -15.411 -8.468 -23.226 -24.621 -23.226 L -25.133 -23.226 L -25.133 -28.444 L -24.621 -28.444 C -13.172 -28.444 -4.808 -25.374 .177 -19.294 C 4.083 -14.545 5.96 -8.059 5.96 .509 L 5.96 5.288 L -25.133 5.288 L -25.133 2.82 C -25.133 -2.183 -27.609 -6.503 -31.465 -8.176 L -31.771 -8.311 L -31.771 -13.355 L -31.163 -13.237 C -26.115 -12.253 -20.331 -7.693 -19.31 -.004 Z " fill="#2c292a"/>
<path transform="matrix(2.7777777,0,0,-2.7777777,1037.6119,979.7694)" d="M 0 0 C -.491 -5.667 -5.391 -9.138 -9.884 -9.997 L -10.302 -10.074 L -10.302 -15.27 L -9.728 -15.202 C -4.963 -14.622 6.09 -11.637 6.09 3.764 L 6.09 5.292 L -19.74 5.292 L -19.74 9.471 L -25.636 9.471 L -25.636 5.292 L -30.527 5.292 L -30.527 0 L -25.636 0 L -25.636 -11.425 C -25.636 -17.101 -23.926 -21.453 -20.586 -24.365 C -17.467 -27.058 -12.973 -28.44 -7.253 -28.44 L 4.004 -28.44 L 4.004 -23.221 L -6.62 -23.221 C -15.696 -23.221 -19.74 -19.466 -19.74 -11.037 L -19.74 0 Z " fill="#2c292a"/>
<path transform="matrix(2.7777777,0,0,-2.7777777,1143.8908,979.7633)" d="M 0 0 C -1.093 -5.906 -4.517 -11.753 -9.473 -16.114 C -14.683 -20.707 -20.913 -23.224 -27.018 -23.224 L -27.533 -23.224 L -27.495 -28.442 L -26.985 -28.442 C -18.567 -28.442 -9.827 -24.773 -3.508 -18.598 C -.802 -21.481 1.315 -24.775 2.661 -28.127 L 2.791 -28.453 L 9.359 -28.453 L 9.132 -27.771 C 7.488 -22.888 4.396 -18.273 .179 -14.385 C 4.205 -8.861 6.335 -2.271 6.335 4.773 L 6.335 5.29 L -26.033 5.29 L -26.033 -.002 Z " fill="#2c292a"/>
<path transform="matrix(2.7777777,0,0,-2.7777777,660.6972,880.86056)" d="M 0 0 C -2.254 -.322 -1.94 -2.678 -1.709 -3.126 C -.982 -4.549 .669 -4.345 1.984 -4.791 C 2.905 -5.103 3.817 -5.565 4.564 -6.226 C 5.447 -7.017 6.137 -7.99 6.757 -8.947 C 7.598 -10.22 8.166 -11.879 9.905 -12.198 C 10.81 -12.393 12.061 -11.941 12.348 -10.731 C 13.051 -8.075 10.33 -8 9.009 -7.555 C 8.107 -7.261 7.272 -6.998 6.52 -6.452 C 5.315 -5.561 4.346 -4.39 3.603 -3.123 C 3.097 -2.261 3.205 -2.081 2.554 -1.21 C 2.006 -.508 1.38 .062 0 0 M .019 3.622 C 1.953 3.622 3.85 2.938 4.824 1.325 C 4.947 1.125 5.091 .94 5.143 .814 C 5.192 .688 5.331 .566 5.458 .774 C 6.327 2.149 7.62 3.621 10.557 3.621 C 14.08 3.621 16.186 .542 16.051 -2.338 C 15.034 -2.338 12.639 -2.333 12.623 -2.333 C 12.319 1.217 7.626 .255 8.277 -2.759 C 8.65 -4.515 10.509 -4.476 11.986 -4.838 C 13.909 -5.291 16.807 -7.062 15.869 -11.365 C 14.877 -15.966 9.282 -17.164 6.162 -13.965 C 5.913 -13.702 5.508 -13.175 5.432 -12.994 C 5.395 -12.909 5.262 -12.849 5.206 -12.974 C 3.284 -17.102 -3.656 -16.582 -5.137 -11.769 C -5.352 -11.075 -5.367 -9.989 -5.355 -9.966 C -4.645 -9.966 -1.758 -9.964 -1.753 -9.972 C -1.745 -10.475 -1.572 -11.095 -1.429 -11.306 C -.949 -12.061 -.419 -12.209 .578 -12.209 C 1.59 -12.122 2.377 -11.502 2.404 -10.198 C 2.436 -8.618 1.232 -8.025 .466 -7.825 C -1.33 -7.374 -2.74 -7.285 -4.029 -5.878 C -6.455 -3.317 -5.646 1.093 -2.641 2.829 C -1.415 3.534 -.478 3.622 .019 3.622 " fill="#006eb8"/>
<path transform="matrix(2.7777777,0,0,-2.7777777,503.585,903.60787)" d="M 0 0 L 1.857 4.007 L 3.864 0 Z M 7.185 -6.976 L 10.912 -6.976 L 1.86 11.968 L -7.175 -6.982 L -3.356 -6.982 L -1.716 -3.555 L 5.564 -3.555 Z " fill="#006eb8"/>
<path transform="matrix(2.7777777,0,0,-2.7777777,567.6528,913.06387)" d="M 0 0 C -.942 -.575 -2.073 -.835 -3.226 -.835 C -6.654 -.835 -9.319 1.947 -9.319 5.388 C -9.319 8.791 -6.618 11.355 -3.226 11.473 C -2.052 11.516 -.831 11.162 .123 10.59 C .135 10.584 .209 10.545 .209 10.545 L 2.211 13.64 C 2.211 13.64 2.191 13.654 2.184 13.657 C .673 14.651 -.79 15.189 -3.226 15.213 C -8.648 15.263 -13.197 11.067 -13.125 5.388 C -13.039 -.775 -8.648 -4.503 -3.226 -4.503 C -1.415 -4.503 .412 -4.133 1.86 -3.252 C 1.865 -3.248 .017 .012 .017 .012 C .017 .012 .004 .004 0 0 " fill="#006eb8"/>
<path transform="matrix(2.7777777,0,0,-2.7777777,641.43057,882.8193)" d="M 0 0 L 0 3.534 L -11.4 3.534 L -11.4 3.532 L -11.401 3.532 L -11.401 -14.37 L -.019 -14.368 L -.019 -10.886 L -7.734 -10.886 L -7.734 -7.194 L -.663 -7.194 L -.663 -3.677 L -7.738 -3.677 L -7.738 0 Z " fill="#006eb8"/>
<path transform="matrix(2.7777777,0,0,-2.7777777,599.0172,897.5547)" d="M 0 0 C 0 0 -1.114 -1.042 -2.818 -.997 C -4.565 -.958 -6.101 .715 -6.144 2.56 C -6.184 4.557 -4.416 6.116 -2.765 6.116 C -1.679 6.116 -.692 5.781 -.086 5.241 C -.078 5.236 2.15 7.673 2.147 7.675 C 1.01 8.855 -.537 9.592 -2.705 9.625 C -6.488 9.683 -9.621 6.404 -9.621 2.607 C -9.621 -1.192 -6.683 -4.452 -2.744 -4.444 C .78 -4.44 2.202 -2.458 2.202 -2.458 Z " fill="#00a754"/>
<path transform="matrix(2.7777777,0,0,-2.7777777,590.0019,917.9178)" d="M 0 0 C -2.566 0 -4.676 -.697 -4.676 -1.217 C -4.676 -1.585 -2.566 -2.401 0 -2.401 C 2.602 -2.401 4.679 -1.585 4.679 -1.217 C 4.679 -.697 2.602 0 0 0 " fill="#00a754"/>
<path transform="matrix(2.7777777,0,0,-2.7777777,642.92947,1219.0397)" d="M 0 0 C .422 -.309 1.516 -1.117 2.937 -2.465 C 5.316 -.328 6.469 1.098 7.313 2.253 L -4.818 2.253 L -4.818 4.679 L 8.887 4.679 C 9.041 4.679 9.636 4.737 10.173 4.948 L 11.767 3.023 C 11.498 2.792 11.171 2.522 10.999 2.311 C 7.812 -1.367 7.467 -1.791 4.664 -4.371 C 5.662 -5.411 6.046 -5.893 6.699 -6.952 C 6.487 -7.145 5.509 -7.992 5.316 -8.165 C 4.972 -8.474 4.76 -8.685 4.549 -8.896 C 3.973 -7.818 2.591 -5.258 -1.767 -1.868 Z " fill="#2c292a"/>
<path transform="matrix(2.7777777,0,0,-2.7777777,0,2338.5833)" d="M 260.499 400.32 L 243.933 400.32 L 243.933 403.05403 L 260.499 403.05403 Z " fill="#2c292a"/>
<path transform="matrix(2.7777777,0,0,-2.7777777,744.3291,1217.3281)" d="M 0 0 C -.077 -.116 -1.67 -2.619 -3.302 -4.256 C -3.936 -3.679 -4.588 -3.178 -5.548 -2.639 C -2.266 .539 -.576 3.985 .422 7.105 L 3.071 6.085 C 3.205 6.027 3.378 5.95 3.378 5.796 C 3.378 5.604 2.994 5.546 2.803 5.507 C 2.38 4.467 1.938 3.505 1.459 2.522 L 11.345 2.522 L 11.345 0 L 6.546 0 C 6.392 -3.717 5.26 -7.857 .364 -10.88 C -.403 -10.014 -1.421 -9.301 -1.747 -9.09 C .883 -7.606 3.59 -5.469 3.819 0 Z " fill="#2c292a"/>
<path transform="matrix(2.7777777,0,0,-2.7777777,0,2338.5833)" d="M 295.182 407.175 L 284.221 407.175 L 284.221 409.54399 L 295.182 409.54399 Z M 281.496 402.15 L 281.496 404.499 L 297.812 404.499 L 297.812 402.15 L 291.363 402.15 C 291.305 398.799 290.192 396.989 289.193 395.911 C 288.463 395.121 287.178 393.908 284.932 393.176 C 284.318 394.1 283.549 394.794 282.993 395.217 C 288.176 396.662 288.713 399.838 288.771 402.15 Z " fill="#2c292a"/>
<path transform="matrix(2.7777777,0,0,-2.7777777,856.17947,1245.5722)" d="M 0 0 L -2.399 0 L -2.399 7.048 C -2.668 6.895 -5.202 5.45 -6.796 4.892 C -7.18 5.546 -7.755 6.259 -8.427 6.817 C -5.183 7.876 -1.479 9.532 2.111 13.942 L 4.05 12.421 C 4.127 12.363 4.185 12.286 4.185 12.189 C 4.185 12.017 4.05 11.997 3.935 11.997 C 3.819 11.997 3.762 12.017 3.666 12.035 C 2.438 10.745 1.324 9.687 0 8.685 Z " fill="#2c292a"/>
<path transform="matrix(2.7777777,0,0,-2.7777777,877.1158,1237.7625)" d="M 0 0 C 4.606 .982 10.48 4.044 14.416 10.456 C 15.106 9.358 15.337 8.993 16.086 8.203 C 14.838 6.277 11.229 .828 2.169 -2.445 C 2.131 -2.638 2.111 -2.869 1.843 -2.869 C 1.708 -2.869 1.593 -2.715 1.497 -2.542 Z M 1.362 13.537 C 4.185 12.112 5.489 11.034 6.392 10.226 C 5.989 9.764 5.701 9.378 4.799 7.991 C 2.533 9.975 .672 10.861 -.25 11.266 Z " fill="#2c292a"/>
<path transform="matrix(2.7777777,0,0,-2.7777777,966.87,1196.3075)" d="M 0 0 C .633 -.559 1.458 -1.521 1.843 -1.983 C 1.746 -2.041 .901 -2.619 .422 -2.927 C .269 -2.695 -.461 -1.637 -1.268 -.943 Z M -2.995 -.212 C -2.727 -.442 -1.747 -1.31 -1.172 -2.021 C -1.383 -2.156 -2.016 -2.503 -2.572 -2.984 C -3.341 -2.079 -3.801 -1.656 -4.339 -1.213 Z M -2.246 -3.735 C -1.613 -3.735 -1.268 -3.601 -.922 -3.446 L .46 -4.66 C .134 -5.219 -.884 -7.49 -1.517 -8.916 C -4.512 -15.598 -9.233 -17.812 -10.712 -18.506 C -11.057 -18.062 -11.422 -17.639 -12.766 -16.618 C -5.913 -13.769 -4.089 -8.627 -3.187 -6.104 L -8.523 -6.104 C -9.81 -7.991 -11.114 -9.493 -13.034 -11.227 C -13.898 -10.321 -14.167 -10.032 -15.03 -9.455 C -12.996 -7.779 -10.059 -4.853 -8.6 -.789 L -6.239 -1.926 C -6.143 -1.964 -5.971 -2.041 -5.971 -2.214 C -5.971 -2.407 -6.315 -2.465 -6.431 -2.465 C -6.661 -2.927 -6.814 -3.216 -7.084 -3.735 Z " fill="#2c292a"/>
<path transform="matrix(2.7777777,0,0,-2.7777777,1009.3613,1205.8805)" d="M 0 0 L 0 -10.592 C .441 -10.63 .845 -10.669 1.095 -10.669 C 2.668 -10.669 2.938 -10.033 2.938 -9.282 C 2.938 -7.029 .614 -4.969 .192 -4.642 C .998 -3.409 1.881 -1.329 2.227 0 Z M 5.24 .981 C 4.703 -.463 4.319 -1.214 2.822 -4.237 C 3.647 -5.084 5.279 -6.778 5.279 -9.359 C 5.279 -11.458 4.396 -12.999 1.095 -13.152 C .845 -11.997 .576 -11.612 0 -10.996 L 0 -14.809 L -2.246 -14.809 L -2.246 2.021 L 4.204 2.021 Z M -9.214 -11.939 L -6.1229999 -11.939 L -6.1229999 -9.05 L -9.214 -9.05 Z M -9.54 -.925 C -8.945 -1.965 -8.695 -2.465 -8.254 -3.679 L -9.732 -4.237 L -7.141 -4.237 C -6.431 -2.716 -6.085 -1.387 -6.027 -.925 Z M -3.743 -14.809 L -6.123 -14.809 L -6.123 -13.942 L -9.214 -13.942 L -9.214 -14.866 L -11.556 -14.866 L -11.556 -7.049 L -3.743 -7.049 Z M -3.187 .924 L -3.187 -.925 L -5.682 -.925 L -3.819 -1.733 C -3.646 -1.811 -3.59 -1.888 -3.59 -1.983 C -3.59 -2.177 -3.858 -2.234 -4.069 -2.254 C -4.376 -3.12 -4.799 -4.006 -4.914 -4.237 L -2.803 -4.237 L -2.803 -6.124 L -12.592 -6.124 L -12.592 -4.237 L -10.385 -4.237 C -10.711 -3.216 -11.075 -2.484 -11.536 -1.638 L -9.847 -.925 L -12.035 -.925 L -12.035 .924 L -8.83 .924 L -8.83 2.888 L -6.334 2.811 C -6.143 2.811 -5.95 2.695 -5.95 2.541 C -5.95 2.349 -6.123 2.253 -6.392 2.118 L -6.392 .924 Z " fill="#2c292a"/>
<path transform="matrix(2.7777777,0,0,-2.7777777,654.7133,1360.7252)" d="M 0 0 L 2.074 0 L 2.074 -1.197 L 0 -1.197 L 0 -3.217 L -1.267 -3.217 L -1.267 -1.197 L -3.254 -1.197 L -3.254 0 L -1.267 0 L -1.267 3.341 C -2.596 .61 -4.272 -1.01 -5.365 -1.958 C -5.502 -1.771 -5.738 -1.459 -6.57 -1.022 C -3.552 1.146 -2.049 4.001 -1.751 4.625 L -6.31 4.625 L -6.31 5.747 L -1.267 5.747 L -1.267 8.24 L -.05 8.152 C .1 8.141 .273 8.128 .273 7.979 C .273 7.866 .162 7.804 0 7.741 L 0 5.747 L 5.08 5.747 L 5.08 4.625 L .46 4.625 C 1.441 2.742 3.019 .772 5.316 -.86 C 4.819 -1.222 4.608 -1.409 4.311 -1.87 C 2.472 -.486 1.007 1.333 0 3.403 Z " fill="#2c292a"/>
<path transform="matrix(2.7777777,0,0,-2.7777777,694.70608,1349.9558)" d="M 0 0 C -.869 .448 -1.154 .673 -1.825 1.259 C -2.459 .461 -3.067 .124 -3.304 0 Z M .273 -3.429 L -5.179 -3.429 L -5.179 -4.002 L .273 -4.002 Z M .273 -2.157 L -5.179 -2.157 L -5.179 -2.705 L .273 -2.705 Z M -5.179 -1.422 L .27300025 -1.422 L .27300025 -.873 L -5.179 -.873 Z M -7.639 4.163 C -6.57 3.839 -6.408 3.777 -5.452 3.354 C -5.626 3.042 -5.701 2.88 -5.937 2.344 C -6.632 2.655 -7.353 2.967 -8.048 3.129 Z M 1.565 -4.887 L -.608 -4.887 C -.074 -5.174 1.192 -5.785 2.895 -6.159 C 2.621 -6.358 2.174 -6.932 2.05 -7.193 C .447 -6.645 -.472 -6.209 -1.651 -5.511 L -1.13 -4.887 L -3.751 -4.887 L -3.191 -5.398 C -3.117 -5.473 -3.08 -5.522 -3.08 -5.598 C -3.08 -5.673 -3.142 -5.735 -3.229 -5.735 C -3.316 -5.735 -3.378 -5.723 -3.515 -5.685 C -4.409 -6.246 -6.036 -6.895 -7.092 -7.193 C -7.291 -6.645 -7.489 -6.433 -7.899 -6.071 C -6.719 -5.909 -5.129 -5.323 -4.322 -4.887 L -6.483 -4.887 L -6.483 0 L -4.247 0 C -4.558 .374 -4.707 .461 -4.906 .586 C -3.626 .96 -2.794 1.458 -2.396 2.617 L -3.515 2.617 C -3.949 2.069 -4.198 1.819 -4.409 1.607 C -4.62 1.782 -4.794 1.907 -5.067 2.02 C -5.104 1.683 -5.042 1.172 -4.943 .947 C -5.663 .586 -6.421 .262 -7.576 -.225 C -7.601 -.387 -7.639 -.562 -7.8 -.562 C -7.937 -.562 -7.986 -.374 -8.011 -.287 L -8.321 .748 C -7.291 .947 -5.775 1.62 -5.08 2.02 C -5.191 2.057 -5.278 2.106 -5.452 2.156 C -4.856 2.668 -4.136 3.428 -3.651 4.525 L -2.583 4.238 C -2.483 4.213 -2.359 4.163 -2.359 4.076 C -2.359 3.989 -2.509 3.951 -2.695 3.914 C -2.77 3.752 -2.831 3.64 -2.894 3.54 L 2.112 3.54 L 2.795 3.054 C 2.187 2.119 1.702 1.607 1.279 1.209 C .795 1.583 .597 1.695 .262 1.808 C .584 2.132 .845 2.394 .994 2.617 L -.856 2.617 C -.795 2.431 -1.03 2.394 -1.204 2.381 C -1.229 2.318 -1.241 2.269 -1.291 2.144 C .013 .86 1.876 .324 3.168 .112 C 2.907 -.187 2.708 -.611 2.547 -.948 C 2.261 -.886 2.037 -.823 1.565 -.661 Z " fill="#2c292a"/>
<path transform="matrix(2.7777777,0,0,-2.7777777,725.53829,1340.5728)" d="M 0 0 C .522 -.424 1.255 -1.109 1.689 -1.646 C 1.429 -1.832 1.057 -2.269 .87 -2.48 C .423 -1.907 -.335 -1.196 -.757 -.848 Z M -.161 -2.954 C .447 -3.516 1.031 -4.151 1.528 -4.787 C 1.292 -4.999 1.031 -5.298 .746 -5.622 C .36 -5.099 -.396 -4.251 -.919 -3.802 Z M 4.36 -5.423 L 4.608 -6.52 L 3.192 -6.894 L 3.192 -10.472 L 1.938 -10.472 L 1.938 -7.218 L -1.204 -8.041 L -1.54 -6.906 L 1.938 -6.033 L 1.938 1.01 L 3.279 .886 C 3.366 .873 3.49 .835 3.49 .748 C 3.49 .674 3.379 .611 3.192 .512 L 3.192 -5.722 Z M -1.117 -.199 C -1.043 -.225 -.931 -.286 -.931 -.361 C -.931 -.437 -1.018 -.474 -1.229 -.561 C -1.453 -1.309 -1.614 -1.67 -2.012 -2.556 C -2.396 -2.344 -2.596 -2.256 -3.005 -2.145 C -2.607 -1.284 -2.396 -.636 -2.223 .138 Z M -5.676 .013 C -5.539 -.274 -5.042 -1.296 -4.807 -2.132 C -5.092 -2.269 -5.576 -2.456 -5.862 -2.605 C -6.036 -1.882 -6.396 -.973 -6.694 -.374 Z M -3.365 -10.484 L -4.521 -10.484 L -4.521 -6.283 C -5.241 -7.866 -5.787 -8.552 -6.123 -8.951 C -6.632 -8.489 -6.881 -8.34 -7.191 -8.19 C -6.023 -7.081 -5.079 -5.56 -4.633 -4.238 L -6.818 -4.238 L -6.818 -3.204 L -4.521 -3.204 L -4.521 1.01 L -3.278 .923 C -3.191 .923 -3.043 .835 -3.043 .748 C -3.043 .611 -3.229 .549 -3.365 .512 L -3.365 -3.204 L -1.378 -3.204 L -1.378 -4.238 L -3.328 -4.238 C -3.217 -4.487 -2.683 -5.659 -1.688 -6.657 C -2.111 -7.068 -2.148 -7.118 -2.483 -7.567 C -2.794 -7.144 -3.018 -6.707 -3.365 -5.934 Z " fill="#2c292a"/>
<path transform="matrix(2.7777777,0,0,-2.7777777,757.4911,1338.392)" d="M 0 0 C .075 -.012 .261 -.05 .261 -.212 C .261 -.249 .249 -.386 -.062 -.398 C -.161 -.623 -.261 -.835 -.521 -1.371 C -.148 -1.321 1.366 -1.146 2.571 -.71 L 2.608 -1.981 C 1.056 -2.293 -.348 -2.468 -1.143 -2.543 C -1.552 -3.241 -1.726 -3.527 -1.999 -3.939 C -1.366 -3.603 -.819 -3.603 -.683 -3.603 C -.459 -3.603 .758 -3.603 1.268 -4.887 C 2.199 -4.475 3.677 -3.839 4.05 -3.652 L 4.546 -4.986 C 3.192 -5.373 2.472 -5.659 1.491 -6.046 C 1.541 -6.507 1.541 -6.993 1.541 -7.38 C 1.541 -7.966 1.528 -8.29 1.503 -8.626 C 1.292 -8.614 .671 -8.602 .212 -8.626 C .311 -7.555 .273 -6.807 .261 -6.619 C -1.764 -7.679 -2.024 -8.252 -2.024 -8.751 C -2.024 -9.138 -1.937 -9.711 .311 -9.711 C 1.603 -9.711 2.895 -9.524 4.148 -9.188 C 4.05 -9.611 4 -9.948 4 -10.546 C 2.472 -10.87 .932 -10.87 .571 -10.87 C -2.26 -10.87 -3.267 -9.923 -3.267 -8.826 C -3.267 -7.181 -.919 -5.908 .112 -5.435 C .013 -5.086 -.136 -4.55 -1.056 -4.55 C -1.975 -4.55 -3.018 -5.136 -4.434 -7.442 L -5.589 -6.731 C -5.005 -6.121 -3.602 -4.375 -2.596 -2.643 C -3.602 -2.692 -3.912 -2.705 -4.894 -2.692 L -4.894 -1.445 C -4.496 -1.483 -4.012 -1.533 -3.154 -1.533 C -2.657 -1.533 -2.248 -1.521 -1.999 -1.508 C -1.577 -.647 -1.428 -.312 -1.254 .274 Z " fill="#2c292a"/>
<path transform="matrix(2.7777777,0,0,-2.7777777,802.6544,1340.711)" d="M 0 0 C .087 -.037 .162 -.112 .162 -.199 C .162 -.274 .1 -.337 .025 -.361 C -.062 -.387 -.137 -.398 -.211 -.411 C -.795 -1.695 -1.391 -2.63 -1.862 -3.316 C -2.248 -3.116 -2.633 -2.917 -3.055 -2.78 C -2.459 -1.97 -1.651 -.549 -1.316 .474 Z M -8.482 .573 C -7.837 -.274 -7.067 -1.67 -6.707 -2.605 C -7.055 -2.78 -7.676 -3.092 -7.937 -3.266 C -8.247 -2.394 -9.055 -.822 -9.688 -.037 Z M .1 -3.516 L .1 -10.409 L -1.267 -10.409 L -1.267 -9.823 L -10.122 -9.823 L -10.122 -8.677 L -1.267 -8.677 L -1.267 -7.193 L -9.29 -7.193 L -9.29 -6.096 L -1.267 -6.096 L -1.267 -4.625 L -10.061 -4.625 L -10.061 -3.516 L -5.515 -3.516 L -5.515 1.047 L -4.136 .96 C -3.986 .947 -3.838 .936 -3.838 .798 C -3.838 .661 -3.962 .636 -4.136 .586 L -4.136 -3.516 Z " fill="#2c292a"/>
<path transform="matrix(2.7777777,0,0,-2.7777777,821.56716,1351.9985)" d="M 0 0 L 0 1.271 L 2.285 1.271 L 2.285 5.049 L 3.702 4.974 C 3.801 4.974 3.901 4.937 3.901 4.837 C 3.901 4.725 3.814 4.687 3.627 4.637 L 3.627 1.271 L 6 1.271 L 6 0 L 3.627 0 L 3.627 -4.638 L 6.273 -4.638 L 6.273 -5.848 L -.571 -5.848 L -.571 -4.638 L 2.285 -4.638 L 2.285 0 Z M -1.863 -6.333 L -3.154 -6.333 L -3.154 -2.444 C -3.775 -3.03 -4.235 -3.366 -4.583 -3.628 C -4.844 -3.092 -5.117 -2.83 -5.44 -2.568 C -3.999 -1.696 -2.335 -.038 -1.727 1.333 L -5.006 1.333 L -5.006 2.53 L -3.154 2.53 L -3.154 5.036 L -1.9 4.986 C -1.738 4.974 -1.627 4.898 -1.627 4.799 C -1.627 4.699 -1.764 4.637 -1.863 4.587 L -1.863 2.53 L -.509 2.53 L .05 1.981 C -.683 .498 -.906 .137 -1.354 -.437 C -.621 -1.223 .199 -1.758 .671 -2.058 C .385 -2.307 .037 -2.73 -.137 -3.055 C -.41 -2.855 -1.093 -2.369 -1.863 -1.546 Z " fill="#2c292a"/>
<path transform="matrix(2.7777777,0,0,-2.7777777,845.3614,1355.3949)" d="M 0 0 C 0 -1.246 .659 -2.169 1.144 -2.169 C 1.615 -2.169 1.976 -1.222 2.298 -.411 C 2.882 1.098 3.192 2.506 3.242 4.114 C 1.28 3.616 0 1.584 0 0 M 4.211 -3.465 C 7.912 -2.692 8.161 .088 8.161 .811 C 8.161 2.681 6.795 4.313 4.608 4.326 C 4.472 2.893 4.198 .836 3.242 -1.371 C 2.571 -2.904 1.926 -3.689 1.218 -3.689 C .286 -3.689 -1.229 -2.193 -1.229 -.087 C -1.229 2.531 1.105 5.498 4.521 5.498 C 7.143 5.498 9.44 3.74 9.44 .823 C 9.44 -.798 8.732 -2.057 7.987 -2.867 C 7.006 -3.927 5.813 -4.351 5.056 -4.612 C 4.708 -4.026 4.46 -3.739 4.211 -3.465 " fill="#2c292a"/>
<path transform="matrix(2.7777777,0,0,-2.7777777,898.5241,1353.6261)" d="M 0 0 L 2.683 0 L 2.683 -1.197 L 0 -1.197 L 0 -5.747 L -1.316 -5.747 L -1.316 -1.197 L -3.987 -1.197 L -3.987 0 L -1.316 0 L -1.316 2.768 L -2.161 2.768 C -2.546 1.869 -2.844 1.259 -3.378 .523 C -3.664 .798 -4.161 1.109 -4.546 1.196 C -3.44 2.431 -2.757 4.375 -2.533 5.746 L -1.13 5.397 C -1.056 5.373 -.993 5.322 -.993 5.248 C -.993 5.099 -1.242 5.086 -1.341 5.086 C -1.403 4.898 -1.664 4.063 -1.714 3.901 L 2.273 3.901 L 2.273 2.768 L 0 2.768 Z M -5.378 -2.581 L -7.1419999 -2.581 L -7.1419999 -4.0150005 L -5.378 -4.0150005 Z M -4.559 .872 L -8.086 .872 L -8.086 1.832 L -4.559 1.832 Z M -4.559 -.823 L -8.098 -.823 L -8.098 .13699997 L -4.559 .13699997 Z M -4.546 4.251 L -8.098 4.251 L -8.098 5.186 L -4.546 5.186 Z M -7.142 -5.074 L -7.142 -5.76 L -8.31 -5.76 L -8.31 -1.496 L -4.235 -1.496 L -4.235 -5.598 L -5.378 -5.598 L -5.378 -5.074 Z M -3.888 2.555 L -8.62 2.555 L -8.62 3.528 L -3.888 3.528 Z " fill="#2c292a"/>
<path transform="matrix(2.7777777,0,0,-2.7777777,0,2338.5833)" d="M 329.817 353.212 L 332.02799 353.212 L 332.02799 355.756 L 329.817 355.756 Z M 333.32 356.94 L 333.32 352.016 L 329.817 352.016 L 329.817 350.969 L 328.514 350.969 L 328.514 356.94 Z M 336.798 350.533 C 336.798 349.011 335.904 348.837 333.991 348.849 C 333.967 349.136 333.917 349.623 333.52 350.358 C 333.941 350.283 334.189 350.233 334.525 350.233 C 335.444 350.233 335.444 350.458 335.444 350.894 L 335.444 358.574 L 327.048 358.574 L 327.048 359.77 L 338.45 359.77 L 338.45 358.574 L 336.798 358.574 Z " fill="#2c292a"/>
<path transform="matrix(2.7777777,0,0,-2.7777777,963.39779,1344.2783)" d="M 0 0 C 1.913 -.636 2.634 -1.134 3.218 -1.608 C 2.795 -2.206 2.671 -2.381 2.484 -2.68 C 1.367 -1.708 -.024 -1.271 -.695 -1.072 Z M -2.335 -6.184 C -2.943 -6.184 -3.502 -6.445 -3.502 -6.98 C -3.502 -7.816 -2.26 -7.816 -2.186 -7.816 C -.943 -7.816 -.956 -7.043 -.969 -6.532 C -1.639 -6.184 -2.211 -6.184 -2.335 -6.184 M .634 -2.992 C .05 -3.54 .025 -4.002 .025 -4.288 C .025 -4.899 .112 -5.385 .187 -5.734 C 1.131 -6.171 2.162 -6.807 2.932 -7.43 C 2.671 -7.729 2.559 -7.879 2.174 -8.415 C .882 -7.393 .621 -7.255 .224 -7.043 C .174 -8.851 -1.651 -8.851 -2.086 -8.851 C -3.502 -8.851 -4.683 -8.203 -4.683 -6.98 C -4.683 -6.071 -3.999 -5.198 -2.396 -5.198 C -1.851 -5.198 -1.416 -5.298 -1.143 -5.36 C -1.192 -4.937 -1.267 -4.45 -1.267 -4.063 C -1.267 -3.266 -.695 -2.543 -.397 -2.331 Z M -7.203 .075 C -6.831 .038 -6.521 0 -5.887 0 C -5.191 0 -4.67 .05 -4.446 .075 C -4.123 1.271 -4.023 1.857 -3.937 2.294 L -2.596 1.907 C -2.483 1.87 -2.422 1.846 -2.422 1.745 C -2.422 1.608 -2.533 1.596 -2.67 1.583 C -2.732 1.384 -3.006 .462 -3.055 .274 C -2.744 .324 -2.074 .462 -1.18 .785 C -1.204 .424 -1.204 -.087 -1.143 -.486 C -2.285 -.811 -3.241 -.947 -3.428 -.972 C -3.862 -2.269 -5.092 -5.348 -6.297 -7.043 C -6.818 -6.769 -6.855 -6.757 -7.502 -6.507 C -6.284 -4.762 -5.303 -2.618 -4.818 -1.134 C -5.167 -1.172 -6.11 -1.234 -7.055 -1.222 Z " fill="#2c292a"/>
<path transform="matrix(2.7777777,0,0,-2.7777777,996.60916,1339.74)" d="M 0 0 C .087 -.062 .174 -.15 .174 -.212 C .174 -.25 .149 -.337 .025 -.337 C -.037 -.337 -.124 -.312 -.174 -.3 C -.559 -.661 -3.18 -2.93 -4.906 -4.313 C -5.13 -4.488 -5.465 -4.763 -5.465 -4.937 C -5.465 -5.137 -5.402 -5.174 -4.819 -5.548 C -3.888 -6.146 -1.043 -8.029 .46 -9.874 C .075 -10.223 .013 -10.298 -.546 -10.983 C -1.564 -9.487 -4.347 -7.306 -5.937 -6.271 C -7.042 -5.561 -7.154 -5.474 -7.154 -4.987 C -7.154 -4.7 -7.154 -4.563 -6.136 -3.777 C -5.142 -3.005 -2.906 -1.26 -1.18 .859 Z " fill="#2c292a"/>
<path transform="matrix(2.7777777,0,0,-2.7777777,1010.0638,1359.7217)" d="M 0 0 C 1.229 -.761 2.186 -1.671 2.707 -2.182 L 1.664 -3.241 C .869 -2.22 .012 -1.521 -.857 -.936 Z " fill="#2c292a"/>
<path transform="matrix(2.7777777,0,0,-2.7777777,0,2338.5833)" d="M 195.583 336.719 L 198.32799 336.719 L 198.32799 337.567 L 195.583 337.567 Z M 194.353 335.71 L 191.869 335.71 C 191.782 335.111 191.769 335.011 191.745 334.837 L 194.353 334.837 Z M 194.353 333.266 C 193.657 332.618 192.03 331.334 190.092 330.672 C 190.018 330.797 189.658 331.383 189.161 331.645 C 190.416 331.969 192.005 332.629 193.334 333.752 L 191.534 333.752 C 191.471 333.49 191.447 333.378 191.397 333.178 C 190.826 333.316 190.527 333.328 190.092 333.328 C 190.453 334.811 190.639 335.609 190.763 336.906 L 191.956 336.719 L 194.353 336.719 L 194.353 337.567 L 190.031 337.567 L 190.031 338.627 L 199.582 338.627 L 199.582 335.71 L 195.583 335.71 L 195.583 334.837 L 200.302 334.837 C 200.203 333.515 199.88 332.331 199.557 331.844 C 199.284 331.421 199.01 331.122 197.333 331.184 C 197.309 331.396 197.235 331.92 196.886 332.493 C 197.296 332.406 197.806 332.368 197.93 332.368 C 198.365 332.368 198.65 332.368 198.874 333.752 L 195.583 333.752 L 195.583 330.672 L 194.353 330.672 Z M 196.141 340.097 C 195.707 339.449 195.545 339.225 195.061 338.726 C 194.75 338.975 194.229 339.212 193.869 339.337 C 194.204 339.624 194.427 339.873 194.638 340.097 L 192.974 340.097 C 193.048 339.972 193.359 339.325 193.483 339.063 C 192.961 339.025 192.403 338.876 192.266 338.826 C 192.129 339.225 191.906 339.723 191.719 340.097 L 191.161 340.097 C 191.024 339.861 190.639 339.275 190.179 338.689 C 189.633 339.025 189.248 339.137 188.987 339.212 C 189.534 339.81 190.39 340.746 190.875 342.179 L 192.067 341.93 C 192.216 341.892 192.266 341.818 192.266 341.755 C 192.266 341.643 192.155 341.593 191.943 341.581 C 191.844 341.356 191.794 341.269 191.719 341.107 L 194.713 341.107 L 194.713 340.184 C 194.924 340.447 195.545 341.182 195.955 342.254 L 197.185 341.967 C 197.235 341.955 197.359 341.93 197.359 341.805 C 197.359 341.669 197.235 341.656 197.011 341.606 C 196.836 341.269 196.799 341.219 196.738 341.107 L 200.501 341.107 L 200.501 340.097 L 198.278 340.097 C 198.563 339.524 198.588 339.449 198.688 339.174 C 198.241 339.125 197.768 339.05 197.346 338.951 C 197.272 339.262 197.185 339.499 196.936 340.097 Z " fill="#2c292a"/>
<path transform="matrix(2.7777777,0,0,-2.7777777,0,2338.5833)" d="M 211.302 335.983 L 202.856 335.983 L 202.856 337.23 L 211.302 337.23 Z M 212.184 340.184 L 201.99901 340.184 L 201.99901 341.444 L 212.184 341.444 Z M 212.706 331.421 L 201.366 331.421 L 201.366 332.705 L 212.706 332.705 Z " fill="#2c292a"/>
<path transform="matrix(2.7777777,0,0,-2.7777777,609.8294,1398.0922)" d="M 0 0 C .634 .623 .932 .96 1.131 1.196 L -.496 1.196 L -.496 0 Z M 2.273 -5.236 L -2.497 -5.236 L -2.497 -6.258 L 2.273 -6.258 Z M 2.273 -3.329 L -2.497 -3.329 L -2.497 -4.276 L 2.273 -4.276 Z M 3.838 2.867 C 3.925 2.817 4.013 2.768 4.013 2.668 C 4.013 2.593 3.95 2.53 3.838 2.53 C 3.789 2.53 3.689 2.53 3.614 2.556 C 3.316 2.094 2.646 1.072 1.702 0 L 4.956 0 L 4.956 -1.109 L .609 -1.109 C .112 -1.584 -.472 -2.032 -.845 -2.27 L 3.54 -2.27 L 3.54 -7.854 L 2.273 -7.854 L 2.273 -7.293 L -2.496 -7.293 L -2.496 -7.854 L -3.763 -7.854 L -3.763 -3.89 C -4.98 -4.426 -5.589 -4.601 -5.962 -4.713 C -6.049 -4.513 -6.247 -3.989 -6.682 -3.491 C -4.521 -3.018 -2.583 -2.008 -1.329 -1.109 L -6.384 -1.109 L -6.384 0 L -1.775 0 L -1.775 1.196 L -5.266 1.196 L -5.266 2.294 L -1.775 2.294 L -1.775 3.54 L -.447 3.49 C -.285 3.49 -.198 3.415 -.198 3.341 C -.198 3.241 -.285 3.191 -.496 3.142 L -.496 2.294 L 1.366 2.294 L 1.366 1.483 C 2.174 2.493 2.521 3.166 2.684 3.478 Z " fill="#2c292a"/>
<path transform="matrix(2.7777777,0,0,-2.7777777,624.1714,1407.0631)" d="M 0 0 C 1.242 .936 2.224 2.231 3.466 3.853 C 4.012 4.563 4.446 4.687 4.795 4.687 C 5.602 4.687 6.036 4.151 6.794 3.204 C 8.856 .636 10.682 -1.01 11.937 -1.882 C 11.551 -2.318 11.39 -2.567 11.018 -3.104 C 8.905 -1.396 7.328 .524 5.775 2.406 C 5.241 3.055 5.056 3.217 4.795 3.217 C 4.608 3.217 4.385 3.13 4.024 2.631 C 2.298 .274 2 -.124 1.093 -1.06 Z " fill="#2c292a"/>
<path transform="matrix(2.7777777,0,0,-2.7777777,0,2338.5833)" d="M 243.253 338.539 L 246.595 338.539 L 246.595 339.312 L 243.253 339.312 Z M 246.595 340.895 L 243.253 340.895 L 243.253 340.184 L 246.595 340.184 Z M 247.799 337.617 L 241.987 337.617 L 241.987 341.805 L 247.799 341.805 Z M 243.129 335.086 C 243.229 335.061 243.329 335.036 243.329 334.923 C 243.329 334.774 243.167 334.737 243.018 334.7 C 242.98 334.538 242.856 333.902 242.832 333.814 C 243.142 333.215 243.614 332.705 244.172 332.38 L 244.172 335.921 L 241.589 335.921 L 241.589 337.055 L 248.433 337.055 L 248.433 335.921 L 245.365 335.921 L 245.365 334.886 L 247.788 334.886 L 247.788 333.79 L 245.365 333.79 L 245.365 332.019 C 245.725 331.982 246.061 331.969 246.433 331.969 C 247.39 331.969 248.16 332.106 248.507 332.169 C 248.296 331.671 248.234 331.421 248.197 330.884 C 247.849 330.86 247.415 330.822 246.557 330.822 C 245.104 330.822 243.601 330.822 242.421 332.605 C 241.837 331.234 241.39 330.81 241.205 330.623 C 240.981 330.86 240.745 331.059 240.173 331.221 C 240.534 331.645 241.701 332.979 241.9 335.373 Z M 241.341 339.961 L 241.341 338.8 L 240.012 338.8 L 240.012 336.869 C 240.062 336.881 240.732 337.13 241.279 337.367 C 241.242 337.068 241.205 336.769 241.205 336.569 C 241.205 336.407 241.216 336.333 241.242 336.22 C 240.968 336.071 240.844 336.008 240.012 335.684 L 240.012 332.169 C 240.012 331.196 240.012 330.648 238.186 330.648 C 238.075 330.648 238.012 330.661 237.888 330.672 C 237.826 331.284 237.665 331.658 237.552 331.92 C 237.726 331.882 237.962 331.844 238.323 331.844 C 238.844 331.844 238.844 331.932 238.844 332.568 L 238.844 335.235 C 238.583 335.148 238.497 335.124 237.677 334.849 C 237.639 334.7 237.59 334.512 237.416 334.512 C 237.317 334.512 237.28 334.587 237.267 334.687 L 237.056 336.021 C 237.341 336.071 237.639 336.133 238.844 336.482 L 238.844 338.8 L 237.167 338.8 L 237.167 339.961 L 238.844 339.961 L 238.844 342.167 L 240.124 342.08 C 240.223 342.067 240.323 342.054 240.323 341.93 C 240.323 341.78 240.161 341.73 240.012 341.68 L 240.012 339.961 Z " fill="#2c292a"/>
<path transform="matrix(2.7777777,0,0,-2.7777777,718.0786,1409.5886)" d="M 0 0 C .957 -1.435 2.074 -2.344 2.634 -2.756 C 2.261 -3.005 1.888 -3.316 1.603 -3.716 C .845 -3.03 -.062 -2.194 -1.03 -.661 Z M -2.484 1.383 L -.584 1.383 L -.584 4.064 L -2.484 4.064 Z M -.584 5.285 L -.584 7.629 L .684 7.579 C .869 7.566 1.019 7.542 1.019 7.417 C 1.019 7.367 .981 7.292 .919 7.268 C .845 7.23 .782 7.192 .684 7.155 L .684 5.285 L 2.285 5.285 L 2.285 4.063 L .684 4.063 L .684 1.383 L 2.634 1.383 L 2.634 .161 L -5.49 .161 L -5.49 1.383 L -3.764 1.383 L -3.764 4.063 L -5.241 4.063 L -5.241 5.285 L -3.764 5.285 L -3.764 7.629 L -2.472 7.529 C -2.385 7.517 -2.174 7.504 -2.174 7.367 C -2.174 7.305 -2.235 7.268 -2.272 7.242 C -2.348 7.192 -2.409 7.168 -2.484 7.143 L -2.484 5.285 Z M -2.186 -.698 C -2.049 -.773 -1.975 -.836 -1.975 -.898 C -1.975 -1.035 -2.161 -1.072 -2.335 -1.061 C -3.192 -2.444 -4.21 -3.366 -4.695 -3.753 C -4.918 -3.479 -5.402 -3.092 -5.812 -2.968 C -4.695 -2.294 -3.677 -1.147 -3.229 -.125 Z M -5.975 -3.74 L -7.278 -3.74 L -7.278 2.767 C -7.713 2.119 -8.036 1.745 -8.26 1.471 C -8.483 1.845 -8.769 2.156 -9.179 2.368 C -7.576 4.014 -6.496 6.569 -6.186 7.754 L -5.005 7.367 C -4.881 7.33 -4.794 7.242 -4.794 7.155 C -4.794 7.03 -4.906 6.993 -5.117 6.98 C -5.552 5.908 -5.8 5.36 -6.197 4.587 C -5.875 4.5 -5.688 4.425 -5.688 4.338 C -5.688 4.288 -5.713 4.238 -5.763 4.213 C -5.825 4.176 -5.899 4.139 -5.975 4.101 Z " fill="#2c292a"/>
<path transform="matrix(2.7777777,0,0,-2.7777777,738.24996,1406.2302)" d="M 0 0 C 0 -.175 0 -1.321 .931 -1.321 C 1.577 -1.321 2.024 -.661 2.024 .162 C 2.024 .548 1.851 1.384 1.006 1.384 C .298 1.384 0 .698 0 0 M 2.943 6.283 C 3.241 6.245 3.241 6.195 3.241 6.133 C 3.241 6.046 3.154 5.996 3.03 5.934 C 2.993 5.585 2.993 5.497 2.968 4.762 C 3.651 4.787 6.657 4.924 7.278 4.949 C 7.266 4.712 7.253 4.039 7.29 3.615 C 6.881 3.628 5.812 3.652 4.707 3.652 C 4.421 3.652 3.738 3.652 2.993 3.628 C 2.98 2.281 2.98 2.132 3.018 1.695 C 3.552 .822 3.552 -.262 3.552 -.424 C 3.552 -1.222 3.278 -2.519 2.434 -3.591 C 1.701 -4.525 .919 -4.937 .446 -5.187 C .111 -4.85 .024 -4.787 -.696 -4.289 C .993 -3.615 1.701 -2.805 2.049 -1.733 C 1.664 -2.119 1.204 -2.344 .67 -2.344 C -.497 -2.344 -1.094 -1.31 -1.094 -.025 C -1.094 1.496 -.212 2.431 .931 2.431 C 1.341 2.431 1.564 2.331 1.726 2.256 L 1.726 3.565 C .546 3.503 -1.603 3.365 -3.516 3.029 L -3.627 4.437 C -3.143 4.426 -2.658 4.463 1.688 4.699 C 1.677 4.8 1.651 5.659 1.503 6.445 Z " fill="#2c292a"/>
<path transform="matrix(2.7777777,0,0,-2.7777777,776.5338,1413.0175)" d="M 0 0 C -.261 .236 -.708 .448 -1.143 .448 C -1.503 .448 -1.912 .286 -1.912 -.237 C -1.912 -1.01 -.894 -1.222 -.397 -1.222 C 0 -1.222 .323 -1.147 .497 -1.098 C .46 -.773 .41 -.374 0 0 M 2.509 7.654 C 2.063 7.293 -.683 4.749 -1.08 4.338 C -.695 4.476 -.074 4.699 .845 4.699 C 2.621 4.699 4.335 3.652 4.335 1.546 C 4.335 -1.098 1.714 -2.231 -.224 -2.231 C -1.825 -2.231 -3.08 -1.509 -3.08 -.237 C -3.08 .772 -2.223 1.508 -1.006 1.508 C -.856 1.508 1.242 1.508 1.603 -.636 C 1.9 -.499 3.056 0 3.056 1.434 C 3.056 2.655 2.174 3.615 .521 3.615 C -1.564 3.615 -2.856 2.431 -4.819 .374 L -5.825 1.358 C -4.596 2.219 -.472 6.295 .062 7.019 C -1.204 6.744 -3.391 6.569 -4.272 6.507 L -4.483 7.816 C -3.316 7.767 .075 7.929 1.826 8.552 Z " fill="#2c292a"/>
<path transform="matrix(2.7777777,0,0,-2.7777777,818.45559,1393.4861)" d="M 0 0 C -1.217 -.475 -2.869 -1.571 -4.049 -2.668 C -4.173 -2.531 -4.707 -1.92 -4.819 -1.809 C -4.646 -1.684 -3.13 -.524 -2.968 -.387 C -3.54 -.425 -4.657 -.524 -6.147 -.524 C -7.018 -.524 -7.477 -.486 -7.775 -.462 L -7.874 .897 C -7.253 .772 -6.247 .71 -4.596 .71 C -4.235 .71 -2.248 .71 -.683 1.01 Z M -5.899 -4.476 C -6.11 -4.65 -7.39 -5.71 -7.39 -6.495 C -7.39 -6.932 -7.117 -7.131 -7.018 -7.181 C -6.186 -7.655 -4.483 -7.655 -4.123 -7.655 C -1.577 -7.655 -.062 -7.219 .521 -7.057 C .646 -7.717 .684 -7.967 .82 -8.415 C -1.056 -8.877 -3.714 -8.901 -4.073 -8.901 C -6.955 -8.901 -8.707 -8.315 -8.707 -6.607 C -8.707 -6.121 -8.607 -5.236 -6.818 -3.728 Z " fill="#2c292a"/>
<path transform="matrix(2.7777777,0,0,-2.7777777,851.28579,1398.8195)" d="M 0 0 C -1.739 -.25 -3.49 -.948 -4.819 -1.584 C -6.123 -2.207 -7.713 -3.217 -7.713 -4.401 C -7.713 -5.909 -5.067 -5.909 -4.235 -5.909 C -3.416 -5.909 -1.466 -5.785 -.062 -5.273 C -.112 -5.485 -.187 -5.835 -.149 -6.757 C -1.379 -6.994 -3.08 -7.131 -4.198 -7.131 C -6.396 -7.131 -7.267 -6.77 -7.8 -6.495 C -8.571 -6.084 -9.092 -5.336 -9.092 -4.438 C -9.092 -3.13 -8.173 -2.058 -6.347 -1.035 C -7.043 -.3 -7.13 .511 -7.304 2.206 C -7.328 2.468 -7.378 2.904 -7.552 3.365 L -5.875 3.728 C -5.925 3.191 -5.949 2.879 -5.949 2.518 C -5.949 1.62 -5.875 .336 -5.279 -.486 C -4.67 -.187 -3.813 .174 -3.279 .386 C -2.845 .561 -.684 1.396 -.534 1.458 Z " fill="#2c292a"/>
<path transform="matrix(2.7777777,0,0,-2.7777777,872.99,1410.8012)" d="M 0 0 C -.161 0 -1.292 0 -1.292 -.823 C -1.292 -1.396 -.621 -1.634 -.161 -1.634 C .385 -1.634 1.006 -1.334 1.006 -.599 C 1.006 -.486 .994 -.387 .956 -.187 C .782 -.112 .497 0 0 0 M 2.198 7.479 C 2.322 7.455 2.348 7.404 2.348 7.354 C 2.348 7.192 2.174 7.168 2.062 7.143 C 2.012 6.744 1.963 6.295 1.937 5.348 C 3.043 5.535 3.553 5.697 4.024 5.847 L 4.037 4.587 C 3.651 4.5 3.006 4.338 1.913 4.163 C 1.913 2.805 2.012 1.259 2.099 .71 C 2.534 .548 3.764 .1 4.707 -.711 C 4.533 -.973 4.261 -1.509 4.099 -1.846 C 3.267 -1.072 2.546 -.761 2.224 -.636 C 2.285 -2.207 .819 -2.668 -.199 -2.668 C -1.516 -2.668 -2.385 -1.783 -2.385 -.836 C -2.385 .486 -1.031 1.01 .024 1.01 C .348 1.01 .596 .972 .819 .935 C .745 1.77 .732 1.994 .684 4.001 C -.087 3.927 -.795 3.89 -1.354 3.89 C -1.751 3.89 -2.012 3.901 -2.285 3.914 L -2.285 5.211 C -1.913 5.173 -1.453 5.136 -.782 5.136 C -.087 5.136 .385 5.173 .658 5.198 C .658 5.871 .671 6.894 .684 7.717 Z M -3.851 7.23 C -3.714 7.181 -3.688 7.155 -3.688 7.056 C -3.688 6.969 -3.788 6.881 -4.024 6.856 C -4.707 4.388 -4.707 2.219 -4.707 1.732 C -4.707 .86 -4.658 .361 -4.608 -.062 C -4.472 .199 -3.962 1.408 -3.838 1.658 C -3.627 1.321 -3.44 1.084 -3.167 .81 C -3.403 .374 -4.211 -1.109 -4.186 -2.655 L -5.304 -2.88 C -5.465 -2.294 -5.912 -.674 -5.912 1.882 C -5.912 3.378 -5.751 5.485 -5.217 7.691 Z " fill="#2c292a"/>
<path transform="matrix(2.7777777,0,0,-2.7777777,917.01388,1387.5319)" d="M 0 0 C .484 -.424 .907 -.91 1.218 -1.271 C .969 -1.446 .758 -1.633 .571 -1.895 C .137 -1.309 -.062 -1.047 -.571 -.561 Z M -.919 -.997 C -.658 -1.234 -.099 -1.808 .261 -2.306 C -.024 -2.543 -.111 -2.63 -.335 -2.917 C -.807 -2.294 -1.155 -1.932 -1.54 -1.57 Z M -1.564 -2.318 C -2.472 -2.768 -4.136 -3.964 -4.918 -4.8 C -5.08 -4.625 -5.614 -4.126 -5.775 -3.989 C -5.191 -3.478 -4.62 -2.979 -3.999 -2.518 C -4.496 -2.556 -5.825 -2.655 -7.154 -2.655 C -8.011 -2.655 -8.358 -2.618 -8.657 -2.58 L -8.756 -1.234 C -8.334 -1.296 -7.39 -1.446 -5.962 -1.446 C -5.639 -1.446 -4.024 -1.446 -2.248 -1.146 Z M -6.694 -6.619 C -6.905 -6.794 -8.185 -7.854 -8.185 -8.639 C -8.185 -9.075 -7.912 -9.274 -7.812 -9.324 C -6.98 -9.799 -5.278 -9.799 -4.918 -9.799 C -2.372 -9.799 -.856 -9.362 -.273 -9.2 C -.148 -9.86 -.111 -10.11 .025 -10.559 C -1.851 -11.021 -4.509 -11.045 -4.868 -11.045 C -7.75 -11.045 -9.502 -10.459 -9.502 -8.751 C -9.502 -8.265 -9.402 -7.38 -7.613 -5.871 Z " fill="#2c292a"/>
<path transform="matrix(2.7777777,0,0,-2.7777777,944.98416,1405.9183)" d="M 0 0 C .198 -.2 .422 -.437 1.006 -.86 C 1.304 -.586 1.603 -.3 1.863 0 Z M -2.708 .872 L .7450001 .872 L .7450001 1.832 L -2.708 1.832 Z M 2.919 -.35 C 2.993 -.399 3.056 -.499 3.056 -.562 C 3.056 -.748 2.782 -.698 2.708 -.698 C 2.571 -.836 2.484 -.923 1.838 -1.434 C 2.447 -1.796 2.819 -1.97 3.13 -2.107 C 2.757 -2.332 2.559 -2.544 2.261 -3.018 C .944 -2.281 -.037 -1.26 -.373 -.886 L -.373 -3.279 L -1.503 -3.279 L -1.503 -.773 C -1.863 -1.197 -2.721 -2.082 -3.95 -2.73 C -4.099 -2.443 -4.472 -1.995 -4.919 -1.783 C -4.459 -1.608 -3.267 -1.172 -2.062 0 L -3.938 0 L -3.938 2.705 L 1.975 2.705 L 1.975 .137 C 2.037 .199 2.049 .224 2.099 .299 Z M 2.621 5.646 L 2.621 4.725 L -.261 4.725 L -.261 4.089 L 3.378 4.089 L 3.378 3.179 L -5.006 3.179 L -5.006 4.089 L -1.49 4.089 L -1.49 4.725 L -4.359 4.725 L -4.359 5.646 L -1.49 5.646 L -1.49 6.444 L -.174 6.407 C -.087 6.407 .013 6.37 .013 6.258 C .013 6.133 -.149 6.083 -.261 6.046 L -.261 5.646 Z M -7.104 6.407 C -6.533 6.009 -5.49 5.011 -5.067 4.425 C -5.527 4.001 -5.577 3.964 -5.987 3.516 C -6.633 4.351 -7.402 5.036 -7.999 5.497 Z M -5.204 1.67 L -5.204 -1.933 C -5.204 -2.281 -5.192 -2.867 -4.633 -3.254 C -4.012 -3.678 -3.627 -3.678 -1.031 -3.678 C .187 -3.678 2.322 -3.678 3.564 -3.441 C 3.478 -3.628 3.242 -4.114 3.105 -4.763 L -2.895 -4.763 C -4.174 -4.763 -5.167 -4.463 -5.764 -3.528 C -6.136 -3.853 -6.931 -4.438 -7.267 -4.663 C -7.278 -4.862 -7.291 -4.962 -7.452 -4.962 C -7.552 -4.962 -7.614 -4.875 -7.639 -4.812 L -8.197 -3.665 C -7.751 -3.491 -6.67 -2.793 -6.483 -2.655 L -6.483 .486 L -7.999 .486 L -7.999 1.67 Z " fill="#2c292a"/>
<path transform="matrix(2.7777777,0,0,-2.7777777,0,2338.5833)" d="M 351.847 334.213 L 353.723 334.213 L 353.723 334.724 L 351.847 334.724 Z M 353.723 335.834 L 351.847 335.834 L 351.847 335.37303 L 353.723 335.37303 Z M 350.232 333.241 C 350.345 333.228 350.493 333.228 350.493 333.104 C 350.493 333.016 350.394 332.942 350.307 332.929 L 350.307 332.069 C 350.307 331.807 350.356 331.695 350.68 331.695 L 352.07 331.695 C 352.518 331.695 352.68 331.77 352.841 332.692 C 353.089 332.468 353.263 332.393 353.834 332.231 C 353.66 331.52 353.499 330.797 352.331 330.797 L 350.295 330.797 C 349.363 330.797 349.151 331.234 349.151 331.92 L 349.151 333.316 Z M 348.804 334.213 L 350.655 334.213 L 350.655 334.724 L 348.804 334.724 Z M 350.654 335.834 L 348.80299 335.834 L 348.80299 335.37303 L 350.654 335.37303 Z M 354.133 333.503 L 351.673 333.503 C 352.344 333.004 352.468 332.854 352.593 332.705 C 352.53 332.668 352.133 332.368 351.872 331.994 C 351.574 332.343 351.04 332.804 350.741 332.992 L 351.288 333.503 L 347.649 333.503 L 347.649 336.545 L 354.878 336.545 L 354.878 333.503 L 354.244 333.503 C 354.741 333.129 355.462 332.356 355.946 331.757 C 355.586 331.483 355.337 331.296 355.089 331.022 C 354.394 331.957 354.157 332.244 353.325 332.966 Z M 348.804 333.091 C 348.903 333.054 349.003 333.016 349.003 332.929 C 349.003 332.83 348.966 332.83 348.705 332.767 C 348.456 332.144 347.96 331.271 347.537 330.772 C 347.239 331.109 346.755 331.258 346.556 331.321 C 347.264 332.144 347.637 332.979 347.748 333.49 Z M 355.176 341.518 L 355.176 340.72 L 350.978 340.72 L 350.978 340.285 L 355.847 340.285 L 355.847 338.527 L 354.555 338.527 L 354.555 339.449 L 351.301 339.449 C 351.325 339.287 351.064 339.262 350.978 339.25 L 350.978 338.913 L 353.648 339.137 L 353.723 338.452 L 350.978 338.19 C 350.978 337.853 350.978 337.617 351.412 337.617 L 353.288 337.617 C 353.686 337.617 354.021 337.729 354.157 338.577 C 354.406 338.365 354.815 338.165 355.176 338.078 C 354.902 337.081 354.493 336.906 353.562 336.906 L 351.114 336.906 C 350.034 336.906 349.785 337.255 349.772 338.078 L 347.437 337.853 L 347.363 338.588 L 349.772 338.8 L 349.772 339.449 L 346.755 339.449 L 346.755 336.37 C 346.755 335.286 346.755 332.58 345.637 330.648 C 345.302 330.897 344.805 331.072 344.47 331.134 C 345.5 332.804 345.562 334.712 345.562 336.545 L 345.562 340.285 L 349.686 340.285 L 349.686 342.192 L 350.99 342.117 C 351.188 342.104 351.288 342.08 351.288 341.967 C 351.288 341.831 351.114 341.78 350.978 341.743 L 350.978 341.518 Z " fill="#2c292a"/>
<path transform="matrix(2.7777777,0,0,-2.7777777,1012.5108,1390.0928)" d="M 0 0 C .087 -.062 .174 -.15 .174 -.212 C .174 -.25 .149 -.337 .025 -.337 C -.037 -.337 -.124 -.312 -.174 -.3 C -.559 -.661 -3.18 -2.93 -4.906 -4.313 C -5.13 -4.488 -5.465 -4.763 -5.465 -4.937 C -5.465 -5.137 -5.402 -5.174 -4.819 -5.548 C -3.888 -6.146 -1.043 -8.029 .46 -9.874 C .075 -10.223 .013 -10.298 -.546 -10.983 C -1.564 -9.487 -4.347 -7.306 -5.937 -6.271 C -7.042 -5.561 -7.154 -5.474 -7.154 -4.987 C -7.154 -4.7 -7.154 -4.563 -6.136 -3.777 C -5.142 -3.005 -2.906 -1.26 -1.18 .859 Z " fill="#2c292a"/>
<path transform="matrix(2.7777777,0,0,-2.7777777,1048.3071,1389.1947)" d="M 0 0 C .385 -.312 .932 -.935 1.205 -1.321 C .907 -1.521 .845 -1.57 .547 -1.832 C .423 -1.657 -.037 -.997 -.633 -.461 Z M -1.205 -.835 C -.832 -1.172 -.36 -1.683 0 -2.169 C -.285 -2.318 -.422 -2.418 -.695 -2.68 C -.782 -2.555 -1.329 -1.845 -1.851 -1.333 Z M -4.26 -4.312 C -3.03 -4.126 -1.987 -4.101 -1.416 -4.101 C -.397 -4.101 .037 -4.176 .397 -4.226 C .311 -4.749 .298 -5.298 .298 -5.497 C -.1 -5.423 -.596 -5.322 -1.553 -5.322 C -2.67 -5.322 -3.801 -5.473 -4.26 -5.534 Z M -3.801 -7.442 C -4.235 -7.903 -4.335 -8.452 -4.335 -8.614 C -4.335 -9.112 -3.751 -9.424 -1.987 -9.424 C -1.478 -9.424 -.435 -9.35 .658 -9.013 C .634 -9.2 .608 -9.424 .608 -9.698 C .608 -10.035 .646 -10.197 .684 -10.384 C -.584 -10.621 -1.689 -10.621 -1.962 -10.621 C -2.77 -10.621 -5.515 -10.621 -5.515 -8.714 C -5.515 -8.165 -5.328 -7.716 -4.881 -7.019 Z M -4.894 -.062 C -4.732 -.1 -4.657 -.162 -4.657 -.236 C -4.657 -.386 -4.831 -.411 -4.894 -.424 C -4.956 -.673 -5.229 -1.819 -5.278 -2.057 C -3.875 -1.845 -3.154 -1.558 -2.745 -1.384 L -2.533 -2.667 C -2.956 -2.792 -3.764 -3.041 -5.614 -3.303 C -6.396 -5.983 -7.278 -8.228 -8.942 -10.883 C -9.377 -10.621 -9.427 -10.596 -10.197 -10.234 C -9.452 -9.324 -7.974 -6.969 -6.98 -3.49 C -7.899 -3.59 -8.396 -3.603 -9.613 -3.615 L -9.726 -2.256 C -9.427 -2.281 -9.104 -2.306 -8.62 -2.306 C -7.787 -2.306 -7.067 -2.243 -6.67 -2.219 C -6.421 -.997 -6.372 -.349 -6.31 .287 Z " fill="#2c292a"/>
<path transform="matrix(2.7777777,0,0,-2.7777777,1067.9633,1388.5003)" d="M 0 0 C .148 -.848 .335 -1.347 .671 -2.207 C 1.825 -1.758 2.819 -1.371 3.775 -.661 C 4.223 -1.197 4.272 -1.247 4.62 -1.646 C 3.801 -2.207 2.67 -2.743 1.192 -3.304 C 2.037 -4.875 3.366 -6.396 4.173 -7.019 L 3.328 -7.816 C 2.261 -7.144 .906 -6.795 -.36 -6.795 C -2.422 -6.795 -2.856 -7.717 -2.856 -8.253 C -2.856 -9.25 -1.553 -9.849 .323 -9.849 C 1.9 -9.849 2.732 -9.5 3.328 -9.25 C 3.366 -9.687 3.49 -10.173 3.651 -10.571 C 2.124 -11.033 .732 -11.033 .385 -11.033 C -2.795 -11.033 -4.211 -9.736 -4.211 -8.303 C -4.211 -7.193 -3.242 -5.723 -.646 -5.723 C .36 -5.723 1.13 -5.922 1.466 -6.009 C 1.093 -5.522 .658 -4.949 .013 -3.703 C -1.851 -4.251 -3.553 -4.426 -4.683 -4.538 L -5.093 -3.241 C -2.795 -3.204 -1.292 -2.805 -.521 -2.593 C -.994 -1.509 -1.218 -.897 -1.429 -.312 Z " fill="#2c292a"/>
<path transform="matrix(2.7777777,0,0,-2.7777777,1108.2792,1392.5884)" d="M 0 0 C 1.751 -2.355 2.31 -4.687 2.472 -6.383 C 2.272 -6.444 1.44 -6.818 1.105 -6.969 C .993 -4.999 .509 -2.755 -1.094 -.686 Z M -6.359 .25 C -6.186 .2 -6.099 .175 -6.099 .05 C -6.099 -.1 -6.261 -.124 -6.372 -.124 C -6.969 -1.845 -6.969 -3.565 -6.969 -3.864 C -6.969 -5.896 -6.198 -7.442 -5.614 -7.442 C -5.08 -7.442 -4.435 -5.847 -4.148 -5.123 C -3.801 -5.535 -3.59 -5.734 -3.242 -5.971 C -3.466 -6.52 -4.497 -9.1 -5.689 -9.1 C -6.708 -9.1 -8.248 -7.205 -8.248 -3.665 C -8.248 -2.156 -7.975 -.66 -7.714 .661 Z " fill="#2c292a"/>
<path transform="matrix(2.7777777,0,0,-2.7777777,1121.213,1414.5419)" d="M 0 0 C 0 -.549 .436 -.997 .994 -.997 C 1.541 -.997 1.987 -.561 1.987 0 C 1.987 .549 1.541 .997 .994 .997 C .436 .997 0 .536 0 0 M 2.646 0 C 2.646 -.923 1.889 -1.658 .994 -1.658 C .1 -1.658 -.658 -.923 -.658 0 C -.658 .923 .087 1.646 .994 1.646 C 1.9 1.646 2.646 .91 2.646 0 " fill="#2c292a"/>
<path transform="matrix(2.7777777,0,0,-2.7777777,0,2338.5833)" stroke-width="1.131" stroke-linecap="butt" stroke-miterlimit="10" stroke-linejoin="miter" fill="none" stroke="#2c292a" d="M 443.326 313.897 L 151.94898 313.897 L 151.94898 377.00703 L 443.326 377.00703 Z "/>
<path transform="matrix(2.7777777,0,0,-2.7777777,489.97526,1159.1058)" d="M 0 0 L 0 14.818 L 8.502 14.818 L 8.502 13.241 L 1.854 13.241 L 1.854 8.228 L 7.494 8.228 L 7.494 6.65 L 1.854 6.65 L 1.854 0 Z " fill="#2c292a"/>
<path transform="matrix(2.7777777,0,0,-2.7777777,535.4125,1155.2864)" d="M 0 0 C .887 0 1.658 .249 2.316 .748 C 2.975 1.246 3.485 1.953 3.848 2.87 C 4.211 3.786 4.392 4.858 4.392 6.085 C 4.392 7.324 4.211 8.393 3.848 9.289 C 3.485 10.185 2.975 10.872 2.316 11.351 C 1.658 11.829 .887 12.068 0 12.068 C -.873 12.068 -1.642 11.829 -2.307 11.351 C -2.972 10.872 -3.485 10.185 -3.849 9.289 C -4.211 8.393 -4.393 7.324 -4.393 6.085 C -4.393 4.858 -4.211 3.786 -3.849 2.87 C -3.485 1.953 -2.972 1.246 -2.307 .748 C -1.642 .249 -.873 0 0 0 M 0 -1.638 C -1.236 -1.638 -2.327 -1.324 -3.274 -.698 C -4.221 -.071 -4.963 .821 -5.5 1.98 C -6.037 3.14 -6.306 4.508 -6.306 6.085 C -6.306 7.675 -6.037 9.039 -5.5 10.178 C -4.963 11.316 -4.221 12.189 -3.274 12.796 C -2.327 13.402 -1.236 13.706 0 13.706 C 1.235 13.706 2.327 13.399 3.273 12.786 C 4.221 12.173 4.963 11.3 5.5 10.168 C 6.037 9.036 6.306 7.675 6.306 6.085 C 6.306 4.508 6.037 3.14 5.5 1.98 C 4.963 .821 4.221 -.071 3.273 -.698 C 2.327 -1.324 1.235 -1.638 0 -1.638 " fill="#2c292a"/>
<path transform="matrix(2.7777777,0,0,-2.7777777,576.9383,1155.2864)" d="M 0 0 C .887 0 1.658 .249 2.316 .748 C 2.975 1.246 3.485 1.953 3.848 2.87 C 4.211 3.786 4.392 4.858 4.392 6.085 C 4.392 7.324 4.211 8.393 3.848 9.289 C 3.485 10.185 2.975 10.872 2.316 11.351 C 1.658 11.829 .887 12.068 0 12.068 C -.873 12.068 -1.642 11.829 -2.307 11.351 C -2.972 10.872 -3.485 10.185 -3.849 9.289 C -4.211 8.393 -4.393 7.324 -4.393 6.085 C -4.393 4.858 -4.211 3.786 -3.849 2.87 C -3.485 1.953 -2.972 1.246 -2.307 .748 C -1.642 .249 -.873 0 0 0 M 0 -1.638 C -1.236 -1.638 -2.327 -1.324 -3.274 -.698 C -4.221 -.071 -4.963 .821 -5.5 1.98 C -6.037 3.14 -6.306 4.508 -6.306 6.085 C -6.306 7.675 -6.037 9.039 -5.5 10.178 C -4.963 11.316 -4.221 12.189 -3.274 12.796 C -2.327 13.402 -1.236 13.706 0 13.706 C 1.235 13.706 2.327 13.399 3.273 12.786 C 4.221 12.173 4.963 11.3 5.5 10.168 C 6.037 9.036 6.306 7.675 6.306 6.085 C 6.306 4.508 6.037 3.14 5.5 1.98 C 4.963 .821 4.221 -.071 3.273 -.698 C 2.327 -1.324 1.235 -1.638 0 -1.638 " fill="#2c292a"/>
<path transform="matrix(2.7777777,0,0,-2.7777777,608.0933,1154.8389)" d="M 0 0 L 1.672 0 C 2.827 0 3.79 .232 4.562 .697 C 5.335 1.163 5.913 1.84 6.296 2.729 C 6.679 3.619 6.87 4.684 6.87 5.924 C 6.87 7.19 6.679 8.255 6.296 9.117 C 5.913 9.979 5.335 10.637 4.562 11.089 C 3.79 11.54 2.827 11.766 1.672 11.766 L 0 11.766 Z M -1.854 -1.536 L -1.854 13.282 L 1.833 13.282 C 3.351 13.282 4.627 12.995 5.661 12.423 C 6.695 11.85 7.475 11.018 7.998 9.926 C 8.521 8.834 8.784 7.5 8.784 5.924 C 8.784 4.359 8.521 3.019 7.998 1.9 C 7.475 .781 6.702 -.07 5.681 -.657 C 4.66 -1.243 3.404 -1.536 1.914 -1.536 Z " fill="#2c292a"/>
<path transform="matrix(2.7777777,0,0,-2.7777777,669.7658,1159.8356)" d="M 0 0 C -.914 0 -1.763 .172 -2.549 .516 C -3.335 .859 -4.017 1.361 -4.594 2.021 C -5.172 2.682 -5.621 3.487 -5.943 4.437 C -6.266 5.388 -6.427 6.462 -6.427 7.661 C -6.427 8.861 -6.263 9.936 -5.934 10.886 C -5.604 11.836 -5.145 12.642 -4.554 13.302 C -3.963 13.962 -3.271 14.467 -2.479 14.817 C -1.687 15.168 -.819 15.344 .12 15.344 C 1.021 15.344 1.812 15.158 2.498 14.787 C 3.183 14.417 3.74 13.995 4.17 13.524 L 3.163 12.312 C 2.773 12.729 2.33 13.065 1.833 13.322 C 1.336 13.578 .771 13.706 .141 13.706 C -.786 13.706 -1.599 13.463 -2.297 12.979 C -2.995 12.493 -3.54 11.802 -3.929 10.906 C -4.318 10.01 -4.514 8.948 -4.514 7.723 C -4.514 6.469 -4.325 5.388 -3.949 4.478 C -3.573 3.568 -3.043 2.867 -2.357 2.375 C -1.673 1.883 -.86 1.638 .08 1.638 C .778 1.638 1.406 1.785 1.964 2.082 C 2.521 2.378 3.035 2.79 3.505 3.315 L 4.533 2.122 C 3.955 1.448 3.297 .927 2.559 .556 C 1.819 .186 .967 0 0 0 " fill="#2c292a"/>
<path transform="matrix(2.7777777,0,0,-2.7777777,703.73947,1155.2864)" d="M 0 0 C .887 0 1.658 .249 2.316 .748 C 2.975 1.246 3.485 1.953 3.848 2.87 C 4.211 3.786 4.392 4.858 4.392 6.085 C 4.392 7.324 4.211 8.393 3.848 9.289 C 3.485 10.185 2.975 10.872 2.316 11.351 C 1.658 11.829 .887 12.068 0 12.068 C -.873 12.068 -1.642 11.829 -2.307 11.351 C -2.972 10.872 -3.485 10.185 -3.849 9.289 C -4.211 8.393 -4.393 7.324 -4.393 6.085 C -4.393 4.858 -4.211 3.786 -3.849 2.87 C -3.485 1.953 -2.972 1.246 -2.307 .748 C -1.642 .249 -.873 0 0 0 M 0 -1.638 C -1.236 -1.638 -2.327 -1.324 -3.274 -.698 C -4.221 -.071 -4.963 .821 -5.5 1.98 C -6.037 3.14 -6.306 4.508 -6.306 6.085 C -6.306 7.675 -6.037 9.039 -5.5 10.178 C -4.963 11.316 -4.221 12.189 -3.274 12.796 C -2.327 13.402 -1.236 13.706 0 13.706 C 1.235 13.706 2.327 13.399 3.273 12.786 C 4.221 12.173 4.963 11.3 5.5 10.168 C 6.037 9.036 6.306 7.675 6.306 6.085 C 6.306 4.508 6.037 3.14 5.5 1.98 C 4.963 .821 4.221 -.071 3.273 -.698 C 2.327 -1.324 1.235 -1.638 0 -1.638 " fill="#2c292a"/>
<path transform="matrix(2.7777777,0,0,-2.7777777,729.7486,1159.1058)" d="M 0 0 L 0 14.818 L 1.894 14.818 L 7.293 5.479 L 8.885 2.426 L 8.985 2.426 C 8.918 3.167 8.857 3.942 8.804 4.751 C 8.75 5.56 8.724 6.348 8.724 7.116 L 8.724 14.818 L 10.496 14.818 L 10.496 0 L 8.582 0 L 3.203 9.359 L 1.611 12.392 L 1.531 12.392 C 1.571 11.65 1.618 10.893 1.672 10.118 C 1.726 9.343 1.753 8.564 1.753 7.783 L 1.753 0 Z " fill="#2c292a"/>
<path transform="matrix(2.7777777,0,0,-2.7777777,777.93637,1159.1058)" d="M 0 0 L -4.714 14.818 L -2.76 14.818 L -.362 6.792 C -.107 5.93 .124 5.117 .333 4.356 C .541 3.595 .786 2.776 1.068 1.9 L 1.148 1.9 C 1.431 2.776 1.676 3.595 1.884 4.356 C 2.092 5.117 2.323 5.93 2.579 6.792 L 4.956 14.818 L 6.85 14.818 L 2.156 0 Z " fill="#2c292a"/>
<path transform="matrix(2.7777777,0,0,-2.7777777,802.8469,1159.1058)" d="M 0 0 L 0 14.818 L 8.502 14.818 L 8.502 13.241 L 1.854 13.241 L 1.854 8.592 L 7.454 8.592 L 7.454 6.994 L 1.854 6.994 L 1.854 1.597 L 8.724 1.597 L 8.724 0 Z " fill="#2c292a"/>
<path transform="matrix(2.7777777,0,0,-2.7777777,834.7005,1159.1058)" d="M 0 0 L 0 14.818 L 1.894 14.818 L 7.293 5.479 L 8.885 2.426 L 8.985 2.426 C 8.918 3.167 8.857 3.942 8.804 4.751 C 8.75 5.56 8.724 6.348 8.724 7.116 L 8.724 14.818 L 10.496 14.818 L 10.496 0 L 8.582 0 L 3.203 9.359 L 1.611 12.392 L 1.531 12.392 C 1.571 11.65 1.618 10.893 1.672 10.118 C 1.726 9.343 1.753 8.564 1.753 7.783 L 1.753 0 Z " fill="#2c292a"/>
<path transform="matrix(2.7777777,0,0,-2.7777777,883.2411,1159.1058)" d="M 0 0 L 0 13.241 L -4.472 13.241 L -4.472 14.818 L 6.347 14.818 L 6.347 13.241 L 1.874 13.241 L 1.874 0 Z " fill="#2c292a"/>
<path transform="matrix(2.7777777,0,0,-2.7777777,0,2338.5833)" d="M 326.811 439.43 L 328.665 439.43 L 328.665 424.612 L 326.811 424.612 Z " fill="#2c292a"/>
<path transform="matrix(2.7777777,0,0,-2.7777777,939.0027,1155.2864)" d="M 0 0 C .887 0 1.658 .249 2.316 .748 C 2.975 1.246 3.485 1.953 3.848 2.87 C 4.211 3.786 4.392 4.858 4.392 6.085 C 4.392 7.324 4.211 8.393 3.848 9.289 C 3.485 10.185 2.975 10.872 2.316 11.351 C 1.658 11.829 .887 12.068 0 12.068 C -.873 12.068 -1.642 11.829 -2.307 11.351 C -2.972 10.872 -3.485 10.185 -3.849 9.289 C -4.211 8.393 -4.393 7.324 -4.393 6.085 C -4.393 4.858 -4.211 3.786 -3.849 2.87 C -3.485 1.953 -2.972 1.246 -2.307 .748 C -1.642 .249 -.873 0 0 0 M 0 -1.638 C -1.236 -1.638 -2.327 -1.324 -3.274 -.698 C -4.221 -.071 -4.963 .821 -5.5 1.98 C -6.037 3.14 -6.306 4.508 -6.306 6.085 C -6.306 7.675 -6.037 9.039 -5.5 10.178 C -4.963 11.316 -4.221 12.189 -3.274 12.796 C -2.327 13.402 -1.236 13.706 0 13.706 C 1.235 13.706 2.327 13.399 3.273 12.786 C 4.221 12.173 4.963 11.3 5.5 10.168 C 6.037 9.036 6.306 7.675 6.306 6.085 C 6.306 4.508 6.037 3.14 5.5 1.98 C 4.963 .821 4.221 -.071 3.273 -.698 C 2.327 -1.324 1.235 -1.638 0 -1.638 " fill="#2c292a"/>
<path transform="matrix(2.7777777,0,0,-2.7777777,965.0091,1159.1058)" d="M 0 0 L 0 14.818 L 1.894 14.818 L 7.293 5.479 L 8.885 2.426 L 8.985 2.426 C 8.918 3.167 8.857 3.942 8.804 4.751 C 8.75 5.56 8.724 6.348 8.724 7.116 L 8.724 14.818 L 10.496 14.818 L 10.496 0 L 8.582 0 L 3.203 9.359 L 1.611 12.392 L 1.531 12.392 C 1.571 11.65 1.618 10.893 1.672 10.118 C 1.726 9.343 1.753 8.564 1.753 7.783 L 1.753 0 Z " fill="#2c292a"/>
<path transform="matrix(2.7777777,0,0,-2.7777777,1015.153,1159.1058)" d="M 0 0 L 0 1.092 C 1.45 2.533 2.68 3.804 3.687 4.902 C 4.694 6.001 5.46 6.991 5.983 7.874 C 6.507 8.757 6.77 9.589 6.77 10.37 C 6.77 10.923 6.672 11.411 6.477 11.836 C 6.282 12.261 5.983 12.591 5.58 12.827 C 5.178 13.063 4.667 13.181 4.049 13.181 C 3.445 13.181 2.884 13.012 2.367 12.675 C 1.85 12.338 1.39 11.934 .987 11.462 L -.081 12.493 C .51 13.167 1.148 13.699 1.833 14.09 C 2.519 14.48 3.331 14.677 4.271 14.677 C 5.157 14.677 5.92 14.501 6.558 14.15 C 7.195 13.8 7.692 13.309 8.049 12.675 C 8.404 12.041 8.582 11.301 8.582 10.451 C 8.582 9.548 8.327 8.632 7.816 7.702 C 7.306 6.772 6.608 5.799 5.722 4.781 C 4.835 3.764 3.828 2.655 2.699 1.455 C 3.075 1.482 3.479 1.513 3.908 1.547 C 4.338 1.58 4.741 1.597 5.117 1.597 L 9.287 1.597 L 9.287 0 Z " fill="#2c292a"/>
<path transform="matrix(2.7777777,0,0,-2.7777777,1058.5693,1155.6797)" d="M 0 0 C .564 0 1.058 .209 1.481 .626 C 1.904 1.044 2.233 1.698 2.468 2.587 C 2.703 3.477 2.821 4.622 2.821 6.024 C 2.821 7.426 2.703 8.564 2.468 9.44 C 2.233 10.316 1.904 10.956 1.481 11.36 C 1.058 11.765 .564 11.967 0 11.967 C -.551 11.967 -1.041 11.765 -1.471 11.36 C -1.9 10.956 -2.232 10.316 -2.468 9.44 C -2.703 8.564 -2.82 7.426 -2.82 6.024 C -2.82 4.622 -2.703 3.477 -2.468 2.587 C -2.232 1.698 -1.9 1.044 -1.471 .626 C -1.041 .209 -.551 0 0 0 M 0 -1.496 C -.953 -1.496 -1.772 -1.207 -2.458 -.627 C -3.143 -.048 -3.67 .802 -4.039 1.92 C -4.409 3.039 -4.593 4.406 -4.593 6.024 C -4.593 7.628 -4.409 8.982 -4.039 10.087 C -3.67 11.192 -3.143 12.028 -2.458 12.594 C -1.772 13.16 -.953 13.443 0 13.443 C .954 13.443 1.773 13.16 2.458 12.594 C 3.144 12.028 3.67 11.192 4.04 10.087 C 4.409 8.982 4.594 7.628 4.594 6.024 C 4.594 4.406 4.409 3.039 4.04 1.92 C 3.67 .802 3.144 -.048 2.458 -.627 C 1.773 -1.207 .954 -1.496 0 -1.496 " fill="#2c292a"/>
<path transform="matrix(2.7777777,0,0,-2.7777777,1076.0822,1159.1058)" d="M 0 0 L 0 1.092 C 1.45 2.533 2.68 3.804 3.687 4.902 C 4.694 6.001 5.46 6.991 5.983 7.874 C 6.507 8.757 6.77 9.589 6.77 10.37 C 6.77 10.923 6.672 11.411 6.477 11.836 C 6.282 12.261 5.983 12.591 5.58 12.827 C 5.178 13.063 4.667 13.181 4.049 13.181 C 3.445 13.181 2.884 13.012 2.367 12.675 C 1.85 12.338 1.39 11.934 .987 11.462 L -.081 12.493 C .51 13.167 1.148 13.699 1.833 14.09 C 2.519 14.48 3.331 14.677 4.271 14.677 C 5.157 14.677 5.92 14.501 6.558 14.15 C 7.195 13.8 7.692 13.309 8.049 12.675 C 8.404 12.041 8.582 11.301 8.582 10.451 C 8.582 9.548 8.327 8.632 7.816 7.702 C 7.306 6.772 6.608 5.799 5.722 4.781 C 4.835 3.764 3.828 2.655 2.699 1.455 C 3.075 1.482 3.479 1.513 3.908 1.547 C 4.338 1.58 4.741 1.597 5.117 1.597 L 9.287 1.597 L 9.287 0 Z " fill="#2c292a"/>
<path transform="matrix(2.7777777,0,0,-2.7777777,1120.4428,1159.8356)" d="M 0 0 C -.766 0 -1.44 .095 -2.024 .283 C -2.608 .472 -3.119 .714 -3.556 1.011 C -3.992 1.307 -4.385 1.624 -4.734 1.961 L -3.808 3.174 C -3.525 2.891 -3.213 2.624 -2.871 2.375 C -2.528 2.126 -2.136 1.924 -1.692 1.769 C -1.249 1.613 -.745 1.536 -.182 1.536 C .396 1.536 .924 1.671 1.4 1.94 C 1.877 2.21 2.257 2.588 2.539 3.072 C 2.82 3.558 2.962 4.137 2.962 4.812 C 2.962 5.822 2.683 6.606 2.126 7.166 C 1.568 7.726 .826 8.005 -.101 8.005 C -.584 8.005 -1.007 7.928 -1.37 7.772 C -1.732 7.617 -2.129 7.398 -2.559 7.115 L -3.546 7.742 L -3.063 14.677 L 4.11 14.677 L 4.11 13.079 L -1.45 13.079 L -1.833 8.794 C -1.511 8.982 -1.172 9.127 -.815 9.229 C -.46 9.329 -.061 9.38 .383 9.38 C 1.202 9.38 1.947 9.222 2.619 8.904 C 3.291 8.588 3.828 8.096 4.231 7.429 C 4.634 6.762 4.835 5.909 4.835 4.872 C 4.835 3.834 4.604 2.951 4.141 2.224 C 3.677 1.496 3.076 .943 2.337 .566 C 1.599 .188 .819 0 0 0 " fill="#2c292a"/>
</g>
</g>
</svg>
