<?xml version="1.0" encoding="utf-8"?>
<!-- Generator: Adobe Illustrator 24.3.0, SVG Export Plug-In . SVG Version: 6.00 Build 0)  -->
<svg version="1.1" id="レイヤー_1" xmlns="http://www.w3.org/2000/svg" xmlns:xlink="http://www.w3.org/1999/xlink" x="0px"
	 y="0px" viewBox="0 0 123.7 43" enable-background="new 0 0 123.7 43" xml:space="preserve">
<g>
	<g>
		<defs>
			<path id="SVGID_1_" d="M123.1,25c-18.6,11.7-39.9,16.8-60.8,16.9c-21.2,0.2-42.8-5-61.6-16.9c-0.5-0.3-1,0.6-0.5,0.9
				C19,37.8,40.4,42.9,61.5,43c21.3,0.1,43.1-5.1,62-17c0.4-0.3,0.2-1-0.2-1C123.2,25,123.1,25,123.1,25"/>
		</defs>
		<clipPath id="SVGID_2_">
			<use xlink:href="#SVGID_1_"  overflow="visible"/>
		</clipPath>
		
			<linearGradient id="SVGID_3_" gradientUnits="userSpaceOnUse" x1="-602.1724" y1="-223.3311" x2="-601.1724" y2="-223.3311" gradientTransform="matrix(123.7417 0 0 123.7417 74513.8359 27669.2773)">
			<stop  offset="0" style="stop-color:#C23560"/>
			<stop  offset="0.2" style="stop-color:#DB5360"/>
			<stop  offset="0.4" style="stop-color:#D3A26A"/>
			<stop  offset="0.6" style="stop-color:#A2C768"/>
			<stop  offset="0.8" style="stop-color:#339CD0"/>
			<stop  offset="1" style="stop-color:#4E7DB8"/>
		</linearGradient>
		<rect x="-0.3" y="24.7" clip-path="url(#SVGID_2_)" fill="url(#SVGID_3_)" width="124.2" height="18.4"/>
	</g>
</g>
<polygon fill="#221815" points="0.5,6.5 7.3,6.5 7.3,8.1 2.3,8.1 2.3,11.7 7.3,11.7 7.3,13.3 2.3,13.3 2.3,19.2 0.5,19.2 "/>
<path fill="#221815" d="M12.9,10.8c1.3,0,2.3,0.4,3.2,1.2c0.8,0.8,1.3,1.9,1.3,3.1s-0.4,2.2-1.3,3s-1.9,1.2-3.2,1.2
	s-2.3-0.4-3.2-1.2c-0.8-0.8-1.3-1.8-1.3-3s0.4-2.3,1.3-3.1C10.5,11.2,11.6,10.8,12.9,10.8 M12.8,12.3c-0.8,0-1.5,0.3-2,0.8
	s-0.8,1.2-0.8,2s0.3,1.5,0.8,2s1.2,0.8,2,0.8s1.5-0.3,2-0.8s0.8-1.2,0.8-2s-0.3-1.5-0.8-2S13.6,12.3,12.8,12.3"/>
<path fill="#221815" d="M23,10.8c1.3,0,2.3,0.4,3.2,1.2c0.8,0.8,1.3,1.9,1.3,3.1s-0.4,2.2-1.3,3s-1.9,1.2-3.2,1.2
	c-1.3,0-2.3-0.4-3.2-1.2c-0.8-0.8-1.3-1.8-1.3-3s0.4-2.3,1.3-3.1C20.6,11.2,21.7,10.8,23,10.8 M22.9,12.3c-0.8,0-1.5,0.3-2,0.8
	s-0.8,1.2-0.8,2s0.3,1.5,0.8,2s1.2,0.8,2,0.8s1.5-0.3,2-0.8s0.8-1.2,0.8-2s-0.3-1.5-0.8-2S23.7,12.3,22.9,12.3"/>
<path fill="#221815" d="M34.6,6.5h1.7v12.8h-3.6c-1.2,0-2.2-0.4-3-1.2c-0.7-0.8-1.1-1.8-1.1-3.2c0-1.2,0.4-2.3,1.2-3.1
	c0.8-0.8,1.8-1.2,3-1.2c0.6,0,1.2,0.1,1.8,0.4C34.6,11,34.6,6.5,34.6,6.5z M34.6,17.8v-5.3c-0.5-0.3-1-0.4-1.6-0.4
	c-0.8,0-1.5,0.3-2,0.8s-0.7,1.3-0.7,2.2s0.2,1.5,0.6,2c0.3,0.3,0.5,0.5,0.8,0.6s0.8,0.1,1.5,0.1H34.6z"/>
<path fill="#221815" d="M50.1,17.3v1.6c-0.8,0.3-1.6,0.5-2.4,0.5c-1.3,0-2.4-0.4-3.1-1.2c-0.8-0.8-1.2-1.8-1.2-3.1s0.4-2.4,1.1-3.2
	c0.8-0.8,1.8-1.2,3-1.2c0.4,0,0.8,0,1.2,0.1c0.3,0.1,0.8,0.2,1.3,0.5V13c-0.8-0.5-1.6-0.8-2.3-0.8c-0.8,0-1.4,0.3-1.8,0.8
	c-0.5,0.5-0.7,1.2-0.7,2c0,0.9,0.3,1.5,0.8,2s1.2,0.8,2.1,0.8C48.5,17.8,49.2,17.7,50.1,17.3"/>
<path fill="#221815" d="M55.6,10.8c1.3,0,2.3,0.4,3.2,1.2c0.8,0.8,1.3,1.9,1.3,3.1s-0.4,2.2-1.3,3c-0.9,0.8-1.9,1.2-3.2,1.2
	s-2.3-0.4-3.2-1.2c-0.8-0.8-1.3-1.8-1.3-3s0.4-2.3,1.3-3.1C53.3,11.2,54.3,10.8,55.6,10.8 M55.5,12.3c-0.8,0-1.5,0.3-2,0.8
	s-0.8,1.2-0.8,2s0.3,1.5,0.8,2s1.2,0.8,2,0.8s1.5-0.3,2-0.8s0.8-1.2,0.8-2s-0.3-1.5-0.8-2S56.3,12.3,55.5,12.3"/>
<path fill="#221815" d="M63.4,10.8v1.1c0.7-0.8,1.6-1.2,2.5-1.2c0.5,0,1,0.1,1.5,0.4c0.5,0.3,0.8,0.6,1,1.1s0.4,1.2,0.4,2.2v4.8
	h-1.7v-4.8c0-0.9-0.1-1.5-0.4-1.8C66.4,12.2,66,12,65.4,12c-0.8,0-1.5,0.4-2,1.2v6h-1.7v-8.4C61.7,10.8,63.4,10.8,63.4,10.8z"/>
<polygon fill="#221815" points="75.7,10.8 77.5,10.8 73.8,19.4 73.2,19.4 69.4,10.8 71.3,10.8 73.5,16 "/>
<path fill="#221815" d="M85.4,15.2h-5.9c0,0.8,0.3,1.4,0.8,1.9s1.1,0.7,1.9,0.7c1.1,0,2.1-0.3,3-1v1.6c-0.5,0.3-1,0.6-1.5,0.7
	s-1.1,0.2-1.8,0.2c-0.9,0-1.7-0.2-2.2-0.6c-0.6-0.4-1-0.9-1.4-1.5c-0.3-0.7-0.5-1.4-0.5-2.2c0-1.3,0.4-2.3,1.1-3.1
	c0.7-0.8,1.7-1.2,2.8-1.2c1.1,0,2,0.4,2.7,1.2s1,1.8,1,3.1V15.2z M79.5,14.2h4.2c0-0.7-0.2-1.2-0.6-1.5c-0.4-0.4-0.8-0.5-1.4-0.5
	s-1.1,0.2-1.5,0.5C79.9,13,79.6,13.5,79.5,14.2"/>
<path fill="#221815" d="M88.8,10.8v1.1c0.7-0.8,1.6-1.2,2.5-1.2c0.5,0,1,0.1,1.5,0.4c0.4,0.3,0.8,0.6,1,1.1s0.4,1.2,0.4,2.2v4.8
	h-1.7v-4.8c0-0.9-0.1-1.5-0.4-1.8c-0.3-0.4-0.7-0.6-1.3-0.6c-0.8,0-1.5,0.4-2,1.2v6h-1.7v-8.4C87.1,10.8,88.8,10.8,88.8,10.8z"/>
<path fill="#221815" d="M95.2,12.2l3.1-3.1v1.7h2.7v1.5h-2.7v4.1c0,1,0.4,1.4,1.2,1.4c0.6,0,1.2-0.2,1.9-0.6v1.6
	c-0.6,0.4-1.3,0.5-2.1,0.5c-0.8,0-1.4-0.2-1.9-0.7c-0.2-0.1-0.3-0.3-0.4-0.4c-0.1-0.2-0.2-0.4-0.3-0.7c-0.1-0.3-0.1-0.8-0.1-1.5
	v-3.7h-1.5v-0.1H95.2z"/>
<path fill="#221815" d="M103.4,7.3c0.3,0,0.5,0.1,0.7,0.3c0.2,0.2,0.3,0.4,0.3,0.7s-0.1,0.5-0.3,0.7c-0.2,0.2-0.4,0.3-0.7,0.3
	c-0.3,0-0.5-0.1-0.7-0.3s-0.3-0.4-0.3-0.7s0.1-0.5,0.3-0.7C102.9,7.4,103.1,7.3,103.4,7.3 M102.6,10.8h1.7v8.4h-1.7V10.8z"/>
<path fill="#221815" d="M110.4,10.8c1.3,0,2.3,0.4,3.2,1.2c0.8,0.8,1.3,1.9,1.3,3.1s-0.4,2.2-1.3,3s-1.9,1.2-3.2,1.2
	c-1.3,0-2.3-0.4-3.2-1.2c-0.8-0.8-1.3-1.8-1.3-3s0.4-2.3,1.3-3.1C108,11.2,109.1,10.8,110.4,10.8 M110.3,12.3c-0.8,0-1.5,0.3-2,0.8
	s-0.8,1.2-0.8,2s0.3,1.5,0.8,2s1.2,0.8,2,0.8s1.5-0.3,2-0.8s0.8-1.2,0.8-2s-0.3-1.5-0.8-2S111.1,12.3,110.3,12.3"/>
<path fill="#221815" d="M118.2,10.8v1.1c0.7-0.8,1.6-1.2,2.5-1.2c0.5,0,1,0.1,1.5,0.4c0.5,0.3,0.8,0.6,1,1.1s0.4,1.2,0.4,2.2v4.8
	h-1.7v-4.8c0-0.9-0.1-1.5-0.4-1.8c-0.3-0.4-0.7-0.6-1.3-0.6c-0.8,0-1.5,0.4-2,1.2v6h-1.7v-8.4C116.5,10.8,118.2,10.8,118.2,10.8z"/>
<path fill="#221815" d="M50.6,2.3V2H52l0,0c0.1-0.1,0.2-0.3,0.3-0.4H51V1.2h1.4c0.1-0.2,0.1-0.3,0.1-0.4h-1.8V0.4h1.9
	c0-0.1,0-0.3,0.1-0.4h0.4c0,0.2,0,0.3-0.1,0.4h2.1v0.3H53c0,0.2-0.1,0.3-0.1,0.4H55v0.3h-1.3c0.1,0.2,0.2,0.3,0.3,0.5h1.4v0.3h-1.2
	c0.3,0.4,0.7,0.7,1.2,1l-0.1,0.4c-0.2-0.1-0.5-0.3-0.7-0.5v1.7h-0.4V4.6h-2.4v0.2h-0.4V3.2c-0.2,0.2-0.5,0.3-0.7,0.5l-0.1-0.4
	c0.5-0.2,0.9-0.6,1.2-1H50.6z M51.8,3.5h2.4V3.1h-2.4V3.5z M51.8,4.3h2.4V3.8h-2.4V4.3z M52.3,2.3c-0.1,0.1-0.2,0.3-0.4,0.5h2.2
	c-0.2-0.2-0.3-0.3-0.4-0.5H52.3z M52.5,2h1c-0.1-0.1-0.2-0.3-0.2-0.5h-0.6c0,0.1-0.1,0.2-0.1,0.2C52.6,1.8,52.5,1.9,52.5,2"/>
<path fill="#221815" d="M58.1,4.2V3.7h-2.2V3.4h2.2V3.1h0.2c0.3-0.1,0.6-0.2,0.9-0.3h-2.6V2.5c-0.2,0.1-0.4,0.2-0.6,0.3l-0.1-0.3
	c0.8-0.3,1.4-0.6,1.9-0.9h-1.7V1.2H58V0.7c-0.6,0-1.2,0-1.8,0V0.3c1.5,0,2.8-0.1,3.9-0.2l0.1,0.3c-0.5,0.1-1.1,0.1-1.8,0.2v0.5h2.1
	v0.3h-1.7c0.4,0.3,1.1,0.6,1.9,0.9l-0.1,0.3c-0.2-0.1-0.5-0.2-0.7-0.3v0.3C59.5,3,59,3.2,58.5,3.4h2v0.4h-2v0.5c0,0.1,0,0.2,0,0.2
	c0,0.1,0,0.1,0,0.2s0,0.1-0.1,0.1c0,0-0.1,0-0.1,0.1c-0.1,0-0.1,0-0.2,0c0,0-0.1,0-0.2,0c-0.2,0-0.4,0-0.8,0V4.6c0.4,0,0.6,0,0.8,0
	c0.1,0,0.2,0,0.2,0C58.1,4.4,58.1,4.3,58.1,4.2 M59.9,2.4c-0.6-0.3-1-0.5-1.4-0.8v0.7H58V1.6c-0.4,0.3-0.8,0.6-1.4,0.8H59.9z"/>
<path fill="#221815" d="M61.3,0.7h3.9v0.1c0,1.2-0.3,2.1-0.8,2.7s-1.4,1-2.6,1.1l-0.1-0.4c1-0.1,1.8-0.4,2.2-0.9
	c0.5-0.5,0.7-1.2,0.8-2.2h-3.5V0.7H61.3z"/>
<rect x="65.9" y="2.3" fill="#221815" width="4.3" height="0.4"/>
<path fill="#221815" d="M71.8,0.4v1.5c1,0.2,2,0.5,3,0.9l-0.1,0.4c-1-0.4-2-0.7-2.8-0.9v2.4h-0.4V0.4H71.8z M73,0.7l0.3-0.2
	c0.2,0.3,0.4,0.6,0.5,1l-0.3,0.2C73.4,1.4,73.2,1.1,73,0.7 M73.7,0.5L74,0.3c0.2,0.3,0.4,0.6,0.6,1l-0.3,0.2
	C74.1,1.1,74,0.8,73.7,0.5"/>
<polygon fill="#221815" points="75.6,0.7 79.3,0.7 79.3,4.3 75.6,4.3 75.6,3.9 78.9,3.9 78.9,1.1 75.6,1.1 "/>
<path fill="#221815" d="M80.3,0.9l0.2-0.4c0.6,0.3,1.1,0.6,1.6,0.9l-0.2,0.4C81.4,1.5,80.9,1.2,80.3,0.9 M84.4,1.1
	c-0.4,2-1.7,3.2-3.9,3.4l-0.1-0.4c1-0.1,1.9-0.4,2.4-0.9C83.5,2.7,83.9,2,84,1L84.4,1.1z"/>
<path fill="#221815" d="M84.8,3.7l-0.3-0.3c0.1-0.1,0.3-0.3,0.4-0.5c0.2-0.2,0.3-0.4,0.4-0.6C85.4,2.1,85.5,2,85.6,2
	c0.3-0.4,0.5-0.6,0.6-0.7s0.2-0.1,0.3-0.1c0.1,0,0.3,0,0.4,0.1s0.3,0.3,0.7,0.7c0.6,0.6,1.2,1.3,1.8,1.9L89,4.2
	c-0.6-0.6-1.2-1.3-1.9-1.9c-0.2-0.3-0.4-0.4-0.5-0.5s-0.2-0.1-0.2-0.1s-0.1,0-0.2,0.1S86,2,85.9,2.2c0,0,0,0.1-0.1,0.1
	C85.4,2.8,85.1,3.3,84.8,3.7 M87.4,0.7l0.3-0.2c0.2,0.3,0.4,0.6,0.5,0.9L88,1.6C87.9,1.4,87.7,1,87.4,0.7 M88.2,0.4l0.3-0.2
	c0.2,0.3,0.4,0.6,0.6,1l-0.4,0.2C88.6,1.1,88.4,0.8,88.2,0.4"/>
<path fill="#221815" d="M89.9,0.9l0.2-0.4c0.6,0.3,1.1,0.6,1.6,0.9l-0.2,0.4C91,1.5,90.5,1.2,89.9,0.9 M94,1.1
	c-0.4,2-1.7,3.2-3.9,3.4L90,4.1c1-0.1,1.9-0.4,2.4-0.9c0.6-0.5,1-1.2,1.2-2.1L94,1.1z"/>
<path fill="#221815" d="M94.7,2.1l0.1-0.4C95.4,1.9,96,2,96.5,2.1l-0.1,0.4C95.6,2.3,95,2.2,94.7,2.1 M94.9,4.2
	c1.1-0.1,2-0.4,2.5-0.8c0.5-0.5,0.9-1.2,1.1-2.2l0.4,0.1c-0.2,1.1-0.6,1.9-1.2,2.4S96.2,4.5,95,4.6L94.9,4.2z M94.9,0.8L95,0.4
	c0.6,0.1,1.2,0.2,1.8,0.3l-0.1,0.4C96.2,1,95.6,0.9,94.9,0.8"/>
<polygon fill="#221815" points="99.8,1.4 102.9,1.4 102.9,4.4 99.8,4.4 99.8,4.1 102.5,4.1 102.5,3 100,3 100,2.7 102.5,2.7 
	102.5,1.8 99.8,1.8 "/>
<path fill="#221815" d="M104,0.9l0.2-0.4c0.6,0.3,1.1,0.6,1.6,0.9l-0.2,0.4C105.2,1.5,104.6,1.2,104,0.9 M108.1,1.1
	c-0.4,2-1.7,3.2-3.9,3.4l-0.1-0.4c1-0.1,1.9-0.4,2.4-0.9c0.6-0.5,1-1.2,1.2-2.1L108.1,1.1z"/>
<g>
	<path fill="#221815" d="M111.2,4.5c-0.4,0-0.5,0-0.6,0c0-0.3,0.1-0.5,0.1-0.6c0.1-0.4,0.4-0.7,0.7-1c0.2-0.2,0.3-0.3,0.8-0.6
		s0.6-0.5,0.6-0.7c0-0.3-0.3-0.6-0.7-0.6c-0.3,0-0.5,0.1-0.6,0.3c-0.1,0.1-0.1,0.2-0.2,0.5l-0.7-0.1c0.1-0.4,0.2-0.6,0.3-0.8
		c0.3-0.3,0.7-0.4,1.2-0.4c0.9,0,1.4,0.4,1.4,1.1c0,0.3-0.1,0.6-0.4,0.8c-0.1,0.1-0.2,0.2-0.8,0.6c-0.2,0.2-0.5,0.4-0.6,0.5
		c-0.2,0.2-0.2,0.3-0.3,0.5h1.4c0.3,0,0.6,0,0.7,0v0.7c-0.2,0-0.4,0-0.8,0h-1.5V4.5z"/>
	<path fill="#221815" d="M114.4,4.2c-0.2-0.2-0.3-0.3-0.3-0.5c-0.1-0.4-0.2-0.8-0.2-1.2c0-0.5,0.1-1.1,0.3-1.4
		c0.3-0.5,0.7-0.7,1.3-0.7c0.4,0,0.8,0.1,1.1,0.4c0.2,0.2,0.3,0.3,0.3,0.5c0.1,0.4,0.2,0.8,0.2,1.2c0,0.6-0.1,1.2-0.4,1.5
		c-0.3,0.4-0.7,0.6-1.2,0.6C115.1,4.6,114.7,4.4,114.4,4.2z M116,3.8c0.2-0.2,0.4-0.7,0.4-1.3s-0.1-1-0.4-1.3
		c-0.1-0.1-0.3-0.2-0.5-0.2s-0.4,0.1-0.6,0.3c-0.2,0.3-0.3,0.7-0.3,1.2s0.1,1,0.3,1.2c0.2,0.2,0.4,0.3,0.6,0.3S115.9,3.9,116,3.8z"
		/>
	<path fill="#221815" d="M118.1,4.5c-0.4,0-0.5,0-0.6,0c0-0.3,0.1-0.5,0.1-0.6c0.1-0.4,0.4-0.7,0.7-1c0.2-0.2,0.3-0.3,0.8-0.6
		s0.6-0.5,0.6-0.7c0-0.3-0.3-0.6-0.7-0.6c-0.3,0-0.5,0.1-0.6,0.3c-0.1,0.1-0.1,0.2-0.2,0.5l-0.7-0.1c0.1-0.4,0.2-0.6,0.3-0.8
		c0.3-0.3,0.7-0.4,1.2-0.4c0.9,0,1.4,0.4,1.4,1.1c0,0.3-0.1,0.6-0.4,0.8c-0.1,0.1-0.2,0.2-0.8,0.6c-0.2,0.2-0.5,0.4-0.6,0.5
		c-0.2,0.2-0.2,0.3-0.3,0.5h1.4c0.3,0,0.6,0,0.7,0v0.7c-0.2,0-0.4,0-0.8,0h-1.5V4.5z"/>
	<path fill="#221815" d="M121.9,4.5c0-0.2,0-0.4,0-0.7V1.1h-0.2c-0.2,0-0.3,0-0.5,0V0.5c0.2,0,0.3,0,0.5,0h0.5c0.3,0,0.3,0,0.5,0
		c0,0.3,0,0.5,0,0.8v2.5c0,0.3,0,0.4,0,0.7H121.9z"/>
</g>
</svg>
